<svg width="240" height="240" viewBox="0 0 240 240" fill="none" xmlns="http://www.w3.org/2000/svg">
<path d="M240 183.552H0V183.672H240V183.552Z" fill="#EBEBEB"/>
<path d="M151.522 186.821H139.301V186.941H151.522V186.821Z" fill="#EBEBEB"/>
<path d="M218.611 189.418H189.653V189.538H218.611V189.418Z" fill="#EBEBEB"/>
<path d="M136.699 186.878H106.781V186.998H136.699V186.878Z" fill="#EBEBEB"/>
<path d="M87.3792 190.469H81.12V190.589H87.3792V190.469Z" fill="#EBEBEB"/>
<path d="M121.963 190.469H93.4608V190.589H121.963V190.469Z" fill="#EBEBEB"/>
<path d="M43.6368 188.443H25.1808V188.563H43.6368V188.443Z" fill="#EBEBEB"/>
<path d="M113.76 162.144H21.0768C20.3507 162.143 19.6548 161.853 19.1419 161.34C18.6289 160.826 18.3408 160.129 18.3408 159.403V29.1168C18.3471 28.3949 18.638 27.7046 19.1503 27.1959C19.6626 26.6873 20.3549 26.4012 21.0768 26.4H113.76C114.487 26.4 115.184 26.6888 115.698 27.2028C116.212 27.7168 116.501 28.4139 116.501 29.1408V159.403C116.501 160.13 116.212 160.827 115.698 161.341C115.184 161.855 114.487 162.144 113.76 162.144ZM21.0768 26.496C20.3826 26.4973 19.7172 26.774 19.2267 27.2653C18.7363 27.7567 18.4608 28.4226 18.4608 29.1168V159.403C18.4608 160.097 18.7363 160.763 19.2267 161.255C19.7172 161.746 20.3826 162.023 21.0768 162.024H113.76C114.455 162.023 115.121 161.746 115.612 161.255C116.103 160.764 116.38 160.098 116.381 159.403V29.1168C116.38 28.4221 116.103 27.7562 115.612 27.265C115.121 26.7738 114.455 26.4973 113.76 26.496H21.0768Z" fill="#A9A9A9"/>
<path d="M217.589 162.144H124.901C124.174 162.143 123.478 161.854 122.964 161.34C122.45 160.826 122.161 160.13 122.16 159.403V29.1168C122.168 28.3945 122.46 27.7042 122.973 27.1956C123.486 26.6871 124.178 26.4012 124.901 26.4H217.589C218.31 26.4025 219.001 26.6891 219.512 27.1976C220.023 27.7062 220.314 28.3957 220.32 29.1168V159.403C220.32 160.128 220.033 160.824 219.521 161.338C219.009 161.852 218.314 162.141 217.589 162.144ZM124.901 26.496C124.206 26.4973 123.54 26.7738 123.049 27.265C122.558 27.7562 122.281 28.4221 122.28 29.1168V159.403C122.281 160.098 122.558 160.764 123.049 161.255C123.54 161.746 124.206 162.023 124.901 162.024H217.589C218.284 162.023 218.949 161.746 219.441 161.255C219.932 160.764 220.208 160.098 220.21 159.403V29.1168C220.208 28.4221 219.932 27.7562 219.441 27.265C218.949 26.7738 218.284 26.4973 217.589 26.496H124.901Z" fill="#A9A9A9"/>
<path d="M94.0608 141.922H62.1888L60.2544 119.602H92.1264L94.0608 141.922Z" fill="#E6E6E6"/>
<path d="M95.712 141.922H63.84L61.9056 119.602H93.7776L95.712 141.922Z" fill="#F0F0F0"/>
<path d="M68.1984 137.126L67.1328 124.392H89.4192L90.4848 137.126H68.1984Z" fill="white"/>
<path d="M101.227 141.922H97.488V183.552H101.227V141.922Z" fill="#E6E6E6"/>
<path d="M102.408 141.922H99.8112V183.552H102.408V141.922Z" fill="#F0F0F0"/>
<path d="M66.2113 146.515H102.408V141.922H66.2113V146.515Z" fill="#F0F0F0"/>
<path d="M67.488 146.515H63.7488V183.552H67.488V146.515Z" fill="#E6E6E6"/>
<path d="M68.6688 146.515H66.072V183.552H68.6688V146.515Z" fill="#F0F0F0"/>
<path d="M40.872 146.515H37.1328V183.552H40.872V146.515Z" fill="#E6E6E6"/>
<path d="M42.0527 146.515H39.4559V183.552H42.0527V146.515Z" fill="#F0F0F0"/>
<path d="M77.5632 146.515H73.824V183.552H77.5632V146.515Z" fill="#E6E6E6"/>
<path d="M78.7391 146.515H76.1423V183.552H78.7391V146.515Z" fill="#F0F0F0"/>
<path d="M66.2112 141.922H37.1328V146.515H66.2112V141.922Z" fill="#E6E6E6"/>
<path d="M174.643 38.1168H62.1648V100.738H174.643V38.1168Z" fill="#E0E0E0"/>
<path d="M180.821 38.1168H62.7312V100.738H180.821V38.1168Z" fill="#F5F5F5"/>
<path d="M178.891 98.808V40.0464L64.6607 40.0464V98.808H178.891Z" fill="white"/>
<path d="M110.914 98.808L132.48 40.0464H96.8879L75.3215 98.808H110.914Z" fill="#F5F5F5"/>
<path d="M145.171 98.808L166.738 40.0464H139.886L118.32 98.808H145.171Z" fill="#F5F5F5"/>
<path d="M210.293 123.744H200.731V183.552H210.293V123.744Z" fill="#E6E6E6"/>
<path d="M207.778 183.552H210.293V178.949H205.142L207.778 183.552Z" fill="#FAFAFA"/>
<path d="M122.136 123.744H112.574V183.552H122.136V123.744Z" fill="#E6E6E6"/>
<path d="M210.293 123.744H119.942V182.309H210.293V123.744Z" fill="#FAFAFA"/>
<path d="M208.584 142.642H121.656V126.101H208.584V142.642ZM122.136 142.162H208.104V126.581H122.136V142.162Z" fill="#E6E6E6"/>
<path d="M193.282 134.131H138.643C136.109 134.131 133.666 132.086 131.923 128.515L131.76 128.174H200.16L199.997 128.515C198.24 132.086 195.84 134.131 193.282 134.131ZM132.547 128.64C134.17 131.822 136.387 133.637 138.643 133.637H193.282C195.547 133.637 197.755 131.822 199.378 128.64H132.547Z" fill="#E6E6E6"/>
<path d="M122.458 183.552H119.942V178.949H125.093L122.458 183.552Z" fill="#FAFAFA"/>
<path d="M208.584 161.28H121.656V144.758H208.584V161.28ZM122.136 160.8H208.104V145.238H122.136V160.8Z" fill="#E6E6E6"/>
<path d="M193.282 152.789H138.643C136.109 152.789 133.666 150.739 131.923 147.173L131.76 146.827H200.16L199.997 147.173C198.24 150.72 195.84 152.789 193.282 152.789ZM132.547 147.307C134.17 150.49 136.387 152.309 138.643 152.309H193.282C195.547 152.309 197.755 150.49 199.378 147.307H132.547Z" fill="#E6E6E6"/>
<path d="M208.584 179.952H121.656V163.411H208.584V179.952ZM122.136 179.472H208.104V163.891H122.136V179.472Z" fill="#E6E6E6"/>
<path d="M193.282 171.442H138.643C136.109 171.442 133.666 169.397 131.923 165.83L131.76 165.485H200.16L199.997 165.83C198.24 169.397 195.84 171.442 193.282 171.442ZM132.547 165.965C134.17 169.147 136.387 170.962 138.643 170.962H193.282C195.547 170.962 197.755 169.147 199.378 165.965H132.547Z" fill="#E6E6E6"/>
<path d="M58.0703 131.654V132.816H57.3311L56.7167 141.922H47.6735L47.0639 132.816H46.3199V131.654H58.0703Z" fill="#E6E6E6"/>
<path d="M55.0944 109.061C54.3552 103.637 47.0352 102.091 37.7472 101.89C28.9104 101.702 26.0784 98.5776 26.0784 98.5776C26.0784 98.5776 26.1072 111.235 38.8416 115.824C50.9328 120.173 55.8384 114.494 55.0944 109.061Z" fill="#E6E6E6"/>
<path d="M50.5824 121.354C50.736 119.126 54.2976 115.027 62.8656 116.89C69.0576 118.238 71.3616 115.027 71.3616 115.027C71.3616 115.027 70.7856 124.09 61.4736 126.811C52.6272 129.398 50.3088 125.28 50.5824 121.354Z" fill="#E6E6E6"/>
<path d="M52.5361 135.072C52.5843 135.072 52.6321 135.062 52.676 135.043C52.7199 135.023 52.759 134.993 52.7905 134.957C53.4097 134.222 52.9009 132.466 52.2001 130.032C51.2977 126.912 50.1745 123.024 51.1249 120.206C51.6517 118.718 52.2672 117.263 52.9681 115.848C54.3121 113.006 55.4737 110.568 54.5041 107.986C54.4889 107.945 54.4658 107.907 54.436 107.875C54.4063 107.843 54.3704 107.817 54.3306 107.799C54.2907 107.78 54.2477 107.77 54.2039 107.769C54.1602 107.768 54.1166 107.775 54.0757 107.79C54.0347 107.806 53.9973 107.829 53.9655 107.86C53.9337 107.89 53.9082 107.926 53.8905 107.966C53.8727 108.006 53.8631 108.049 53.8621 108.093C53.8612 108.137 53.8689 108.18 53.8849 108.221C54.7537 110.52 53.7025 112.747 52.3681 115.57C51.6583 117.007 51.0332 118.485 50.4961 119.995C49.4833 123.01 50.6353 127.008 51.5617 130.214C52.1089 132.134 52.6753 134.054 52.2865 134.534C52.2556 134.568 52.232 134.607 52.2171 134.65C52.2022 134.692 52.1964 134.738 52.2 134.783C52.2036 134.828 52.2166 134.872 52.2381 134.912C52.2596 134.952 52.2891 134.987 52.3249 135.014C52.3862 135.058 52.4611 135.079 52.5361 135.072Z" fill="#E6E6E6"/>
<path d="M120 205.229C171.4 205.229 213.067 202.796 213.067 199.795C213.067 196.794 171.4 194.362 120 194.362C68.6003 194.362 26.9327 196.794 26.9327 199.795C26.9327 202.796 68.6003 205.229 120 205.229Z" fill="#E6E6E6"/>
<path d="M119.981 173.304H51.8208L48.0912 63.6864H116.251L119.981 173.304Z" fill="#407BFF"/>
<path d="M123.384 169.901H55.2239L51.4895 60.2832H119.65L123.384 169.901Z" fill="#407BFF"/>
<path opacity="0.3" d="M123.384 169.901H55.2239L51.4895 60.2832H119.65L123.384 169.901Z" fill="white"/>
<path d="M100.547 105.391C107.845 97.9668 107.534 85.8274 99.8533 78.2767C92.1723 70.7259 80.0294 70.6231 72.7314 78.047C65.4334 85.4709 65.7439 97.6103 73.4249 105.161C81.1059 112.712 93.2488 112.815 100.547 105.391Z" fill="#407BFF"/>
<path d="M102.466 91.7232C102.564 94.3352 101.994 96.929 100.81 99.2592C99.5315 101.77 97.579 103.876 95.1711 105.339C92.7633 106.803 89.9952 107.566 87.1776 107.544C84.2938 107.528 81.4648 106.755 78.9744 105.301C76.484 103.846 74.4198 101.763 72.9888 99.2592C71.6546 96.9648 70.9092 94.3758 70.8192 91.7232C70.7307 89.6664 71.0612 87.6132 71.7908 85.6881C72.5203 83.763 73.6336 82.0064 75.063 80.5249C76.4925 79.0433 78.2082 77.8679 80.1059 77.07C82.0037 76.2721 84.0438 75.8683 86.1024 75.8832C90.3434 75.9132 94.4097 77.5758 97.4569 80.5255C100.504 83.4753 102.298 87.4855 102.466 91.7232Z" fill="white"/>
<path opacity="0.6" d="M100.8 99.2592C99.522 101.77 97.5695 103.876 95.1616 105.339C92.7537 106.803 89.9857 107.566 87.1681 107.544C84.2842 107.528 81.4552 106.755 78.9648 105.301C76.4744 103.847 74.4102 101.763 72.9792 99.2592C77.0387 96.4916 81.8422 95.0204 86.7553 95.04C91.7475 95.0508 96.6283 96.517 100.8 99.2592Z" fill="#407BFF"/>
<path opacity="0.6" d="M91.5705 91.3285C94.2541 88.5986 94.1399 84.1349 91.3155 81.3584C88.4911 78.5819 84.0261 78.5441 81.3425 81.274C78.659 84.0038 78.7731 88.4676 81.5975 91.2441C84.4219 94.0205 88.8869 94.0583 91.5705 91.3285Z" fill="#407BFF"/>
<path d="M109.69 130.205H66.2111L65.9183 121.565H109.397L109.69 130.205Z" fill="white"/>
<path d="M103.042 143.347H74.736L74.5488 137.722H102.85L103.042 143.347Z" fill="#407BFF"/>
<path d="M89.3856 125.885C89.394 126.09 89.3607 126.295 89.2877 126.487C89.2146 126.679 89.1034 126.854 88.9607 127.001C88.8179 127.149 88.6467 127.266 88.4574 127.346C88.268 127.425 88.0645 127.465 87.8591 127.464C87.4359 127.461 87.0301 127.295 86.7255 127.001C86.4209 126.707 86.2408 126.308 86.2224 125.885C86.2139 125.68 86.2472 125.475 86.3202 125.283C86.3933 125.091 86.5045 124.916 86.6472 124.768C86.79 124.621 86.9612 124.503 87.1505 124.424C87.3399 124.344 87.5434 124.304 87.7488 124.306C88.1723 124.308 88.5788 124.473 88.8837 124.767C89.1885 125.061 89.3683 125.462 89.3856 125.885Z" fill="#263238"/>
<path d="M82.56 125.885C82.5691 126.09 82.5363 126.295 82.4635 126.487C82.3907 126.68 82.2795 126.855 82.1366 127.003C81.9938 127.151 81.8223 127.268 81.6326 127.347C81.4429 127.426 81.2391 127.466 81.0336 127.464C80.6108 127.461 80.2055 127.295 79.9017 127.001C79.5979 126.707 79.4188 126.307 79.4016 125.885C79.3931 125.68 79.4264 125.475 79.4994 125.283C79.5725 125.091 79.6837 124.916 79.8265 124.768C79.9692 124.621 80.1404 124.503 80.3297 124.424C80.5191 124.344 80.7226 124.304 80.928 124.306C81.3511 124.308 81.757 124.473 82.0611 124.767C82.3652 125.062 82.5439 125.462 82.56 125.885Z" fill="#263238"/>
<path d="M75.7776 125.885C75.7861 126.09 75.7528 126.295 75.6797 126.487C75.6067 126.679 75.4954 126.854 75.3527 127.001C75.21 127.149 75.0388 127.266 74.8494 127.346C74.6601 127.425 74.4566 127.465 74.2512 127.464C73.8281 127.462 73.4222 127.296 73.1181 127.002C72.814 126.708 72.6353 126.308 72.6192 125.885C72.6108 125.68 72.6441 125.475 72.7171 125.283C72.7901 125.091 72.9014 124.916 73.0441 124.768C73.1868 124.621 73.3581 124.503 73.5474 124.424C73.7367 124.344 73.9403 124.304 74.1456 124.306C74.5687 124.308 74.9747 124.473 75.2787 124.767C75.5828 125.062 75.7615 125.462 75.7776 125.885Z" fill="#263238"/>
<path d="M96.1873 125.885C96.1957 126.09 96.1624 126.295 96.0894 126.487C96.0164 126.679 95.9051 126.854 95.7624 127.001C95.6197 127.149 95.4484 127.266 95.2591 127.346C95.0698 127.425 94.8662 127.465 94.6609 127.464C94.2378 127.462 93.8318 127.296 93.5277 127.002C93.2237 126.708 93.045 126.308 93.0289 125.885C93.0217 125.68 93.0562 125.476 93.1301 125.285C93.2041 125.095 93.3161 124.921 93.4593 124.774C93.6024 124.628 93.7738 124.512 93.9631 124.434C94.1523 124.356 94.3554 124.317 94.5601 124.32C94.98 124.323 95.3827 124.487 95.6854 124.778C95.988 125.069 96.1676 125.465 96.1873 125.885Z" fill="#263238"/>
<path d="M102.989 125.885C102.998 126.09 102.965 126.295 102.892 126.487C102.82 126.68 102.708 126.855 102.565 127.003C102.423 127.151 102.251 127.268 102.061 127.347C101.872 127.426 101.668 127.466 101.462 127.464C101.04 127.461 100.634 127.295 100.331 127.001C100.027 126.707 99.8476 126.307 99.8304 125.885C99.8219 125.68 99.8552 125.475 99.9283 125.283C100.001 125.091 100.113 124.916 100.255 124.768C100.398 124.621 100.569 124.503 100.759 124.424C100.948 124.344 101.151 124.304 101.357 124.306C101.78 124.308 102.186 124.473 102.49 124.767C102.794 125.062 102.973 125.462 102.989 125.885Z" fill="#263238"/>
<path d="M160.277 83.6544C160.915 84.6816 161.448 85.6608 161.995 86.6832C162.543 87.7056 163.037 88.7328 163.522 89.784C164.511 91.9125 165.329 94.1163 165.97 96.3744C166.056 96.6576 166.119 96.96 166.191 97.2528L166.296 97.6992L166.349 97.92L166.411 98.2848C166.52 99.1124 166.469 99.953 166.263 100.762C165.931 102.017 165.427 103.221 164.765 104.338C163.58 106.367 162.149 108.243 160.503 109.92L158.482 108.394C159.496 106.529 160.398 104.606 161.184 102.634C161.534 101.765 161.781 100.858 161.919 99.9312C161.963 99.6483 161.95 99.3594 161.88 99.0816L161.688 98.496C161.611 98.256 161.539 98.016 161.448 97.7712C160.718 95.791 159.873 93.8549 158.919 91.9728C157.959 90.0528 156.927 88.1328 155.895 86.2992L160.277 83.6544Z" fill="#FF8B7B"/>
<path d="M158.995 107.726L156.787 108.893L159.322 111.859C159.322 111.859 160.906 110.789 160.978 109.157L158.995 107.726Z" fill="#FF8B7B"/>
<path d="M153.826 110.722L156.538 112.877L159.322 111.859L156.787 108.893L153.826 110.722Z" fill="#FF8B7B"/>
<path d="M144.552 67.9488C144.499 68.2176 144.312 68.4048 144.139 68.3712C143.966 68.3376 143.866 68.088 143.918 67.824C143.971 67.56 144.158 67.344 144.336 67.4016C144.514 67.4592 144.605 67.68 144.552 67.9488Z" fill="#263238"/>
<path d="M144.336 68.4096C143.853 69.1615 143.268 69.8431 142.598 70.4352C142.756 70.5991 142.948 70.7268 143.16 70.8097C143.372 70.8925 143.6 70.9285 143.827 70.9152L144.336 68.4096Z" fill="#FF5652"/>
<path d="M143.472 77.8272V74.6784L147.639 75.1584C147.639 75.1584 147.571 77.8656 145.239 78.6624L143.472 77.8272Z" fill="#FF8B7B"/>
<path d="M144.672 72.4128L147.605 73.2576L147.658 75.1824L143.491 74.6784L144.672 72.4128Z" fill="#FF8B7B"/>
<path opacity="0.2" d="M147.605 73.2576L144.672 72.4128L144.101 73.5072C144.132 74.3695 144.401 75.2064 144.879 75.9249C145.357 76.6434 146.025 77.2155 146.808 77.5776C147.312 76.8738 147.606 76.0417 147.658 75.1776L147.605 73.2576Z" fill="black"/>
<path d="M145.829 66.6672C145.86 66.6664 145.89 66.6569 145.915 66.6398C145.941 66.6227 145.961 66.5987 145.973 66.5706C145.986 66.5425 145.99 66.5114 145.986 66.4809C145.982 66.4505 145.969 66.4219 145.949 66.3984C145.78 66.208 145.569 66.0607 145.331 65.9689C145.094 65.877 144.839 65.8433 144.586 65.8704C144.544 65.8775 144.507 65.9006 144.483 65.9348C144.459 65.969 144.449 66.0114 144.456 66.0528C144.463 66.0945 144.486 66.1318 144.52 66.1568C144.554 66.1819 144.597 66.1928 144.638 66.1872C144.839 66.1676 145.041 66.1961 145.228 66.2704C145.415 66.3447 145.581 66.4627 145.714 66.6144C145.728 66.6304 145.746 66.6434 145.766 66.6524C145.786 66.6615 145.807 66.6665 145.829 66.6672Z" fill="#263238"/>
<path d="M151.963 72.8064C151.483 75.2784 151.186 78.7008 152.923 80.3472C152.923 80.3472 152.251 82.8528 147.643 82.8528C142.599 82.8528 145.219 80.6544 145.219 80.6544C147.317 80.0016 147.298 77.616 146.818 75.696L151.963 72.8064Z" fill="#FF8B7B"/>
<path d="M153.859 81.9984C154.31 81.3648 154.291 79.3536 153.811 78.9984C153.038 78.4272 149.722 78.2928 145.262 79.32C145.742 81.2688 144.71 82.2864 144.71 82.2864L153.859 81.9984Z" fill="#407BFF"/>
<path d="M168.864 195.955C168.727 196.003 168.582 196.024 168.437 196.016C168.292 196.008 168.15 195.971 168.019 195.907C167.97 195.861 167.936 195.801 167.922 195.735C167.908 195.668 167.915 195.6 167.943 195.538C167.958 195.486 167.984 195.438 168.02 195.397C168.055 195.356 168.099 195.324 168.149 195.302C168.605 195.082 169.651 195.509 169.699 195.528C169.714 195.534 169.726 195.544 169.734 195.557C169.743 195.569 169.748 195.585 169.747 195.6C169.747 195.615 169.743 195.631 169.736 195.644C169.728 195.657 169.717 195.669 169.704 195.677C169.433 195.796 169.152 195.889 168.864 195.955ZM168.312 195.413C168.281 195.42 168.25 195.432 168.221 195.446C168.191 195.457 168.164 195.475 168.142 195.499C168.121 195.522 168.105 195.55 168.096 195.581C168.053 195.725 168.096 195.773 168.125 195.787C168.307 195.941 168.979 195.787 169.455 195.61C169.093 195.46 168.703 195.393 168.312 195.413Z" fill="#407BFF"/>
<path d="M169.685 195.682H169.647C169.263 195.571 168.447 194.99 168.437 194.611C168.437 194.551 168.457 194.492 168.494 194.445C168.532 194.398 168.585 194.365 168.643 194.352C168.7 194.331 168.761 194.322 168.822 194.327C168.882 194.332 168.941 194.35 168.994 194.381C169.445 194.611 169.733 195.542 169.743 195.586C169.749 195.597 169.753 195.611 169.753 195.624C169.753 195.637 169.749 195.651 169.743 195.662C169.735 195.67 169.726 195.676 169.716 195.679C169.706 195.682 169.695 195.683 169.685 195.682ZM168.725 194.486H168.687C168.591 194.52 168.591 194.568 168.591 194.592C168.591 194.818 169.138 195.274 169.551 195.456C169.45 195.187 169.229 194.654 168.936 194.496C168.871 194.466 168.797 194.463 168.73 194.486H168.725Z" fill="#407BFF"/>
<path d="M143.933 196.522C143.501 196.522 143.083 196.459 142.944 196.267C142.908 196.216 142.888 196.155 142.888 196.092C142.888 196.029 142.908 195.968 142.944 195.917C142.972 195.87 143.008 195.829 143.052 195.797C143.096 195.765 143.146 195.742 143.198 195.73C143.76 195.576 144.941 196.248 144.989 196.277C145.004 196.284 145.015 196.296 145.022 196.311C145.029 196.326 145.031 196.342 145.027 196.358C145.026 196.375 145.018 196.39 145.007 196.402C144.996 196.414 144.981 196.423 144.965 196.426C144.624 196.488 144.279 196.52 143.933 196.522ZM143.4 195.864C143.349 195.856 143.297 195.856 143.246 195.864C143.214 195.871 143.183 195.884 143.156 195.903C143.129 195.922 143.106 195.946 143.088 195.974C143.031 196.075 143.055 196.123 143.088 196.152C143.247 196.373 144.096 196.378 144.725 196.286C144.314 196.062 143.865 195.919 143.4 195.864Z" fill="#407BFF"/>
<path d="M144.96 196.426H144.926C144.518 196.243 143.712 195.514 143.774 195.13C143.774 195.038 143.851 194.928 144.072 194.909C144.151 194.9 144.231 194.907 144.307 194.93C144.383 194.953 144.453 194.992 144.514 195.043C144.821 195.411 145.006 195.866 145.042 196.344C145.041 196.358 145.038 196.371 145.033 196.384C145.027 196.396 145.018 196.407 145.008 196.416C144.993 196.424 144.977 196.427 144.96 196.426ZM144.134 195.058H144.086C143.942 195.058 143.933 195.125 143.933 195.144C143.894 195.374 144.442 195.95 144.859 196.2C144.823 195.815 144.666 195.451 144.413 195.158C144.334 195.091 144.233 195.055 144.13 195.058H144.134Z" fill="#407BFF"/>
<path d="M148.666 196.349H145.291L144.955 188.53H148.33L148.666 196.349Z" fill="#FF8B7B"/>
<path d="M173.448 194.784L170.151 195.499L166.834 188.218L170.136 187.502L173.448 194.784Z" fill="#FF8B7B"/>
<path d="M169.829 195.168L173.539 194.366C173.604 194.353 173.672 194.361 173.731 194.391C173.79 194.421 173.838 194.469 173.866 194.53L175.152 197.323C175.186 197.391 175.204 197.466 175.204 197.541C175.204 197.617 175.185 197.692 175.151 197.759C175.116 197.827 175.066 197.885 175.004 197.929C174.943 197.974 174.872 198.003 174.797 198.014C173.501 198.269 172.853 198.331 171.226 198.682C170.222 198.902 167.957 199.454 166.57 199.752C165.182 200.05 164.707 198.72 165.25 198.475C167.674 197.366 168.682 196.392 169.339 195.485C169.458 195.323 169.632 195.21 169.829 195.168Z" fill="#263238"/>
<path d="M145.315 195.955H149.002C149.069 195.956 149.133 195.979 149.186 196.02C149.238 196.062 149.275 196.12 149.29 196.186L149.957 199.186C149.976 199.258 149.979 199.334 149.964 199.408C149.948 199.481 149.916 199.55 149.869 199.609C149.823 199.668 149.763 199.715 149.695 199.746C149.627 199.778 149.552 199.793 149.477 199.79C148.147 199.766 146.227 199.69 144.557 199.69C142.599 199.69 140.914 199.795 138.619 199.795C137.232 199.795 136.848 198.394 137.429 198.264C140.069 197.688 142.229 197.626 144.509 196.219C144.748 196.059 145.027 195.967 145.315 195.955Z" fill="#263238"/>
<path d="M158.962 81.12C162.125 81.8448 164.722 89.9232 164.722 89.9232L158.4 94.7568C156.759 93.0024 155.601 90.8524 155.04 88.5168C153.922 84.2832 155.726 80.3712 158.962 81.12Z" fill="#407BFF"/>
<path opacity="0.4" d="M158.962 81.12C162.125 81.8448 164.722 89.9232 164.722 89.9232L158.4 94.7568C156.759 93.0024 155.601 90.8524 155.04 88.5168C153.922 84.2832 155.726 80.3712 158.962 81.12Z" fill="black"/>
<path d="M142.32 90.7536C141.533 91.6032 140.746 92.3616 139.92 93.1536C139.512 93.5376 139.099 93.9216 138.677 94.2912L138.038 94.8528L137.88 94.992L137.606 95.2128C137.325 95.4378 137.013 95.622 136.68 95.76C136.31 95.9173 135.911 95.9989 135.509 96C135.165 96.0015 134.824 95.9413 134.501 95.8224C134.143 95.6861 133.816 95.4787 133.541 95.2128C133.189 94.8691 132.931 94.4411 132.792 93.9696C132.719 93.7371 132.672 93.4972 132.653 93.2544C132.628 92.9702 132.628 92.6842 132.653 92.4C132.677 92.1696 132.706 91.968 132.744 91.7808C132.875 91.1263 133.062 90.484 133.301 89.8608C133.517 89.2684 133.765 88.6883 134.045 88.1232C134.352 87.5136 134.645 87.0672 134.938 86.5584C136.127 84.6102 137.484 82.7696 138.994 81.0576C140.488 79.3557 142.135 77.794 143.914 76.392L145.68 78.2112C144.442 79.872 143.222 81.6528 142.094 83.4048C140.972 85.1469 139.946 86.9496 139.023 88.8048C138.816 89.256 138.542 89.7648 138.413 90.1296C138.241 90.5534 138.092 90.986 137.966 91.4256C137.846 91.8215 137.754 92.2258 137.693 92.6352C137.69 92.6992 137.69 92.7632 137.693 92.8272C137.693 92.8656 137.693 92.8848 137.693 92.784C137.685 92.6763 137.664 92.5699 137.631 92.4672C137.527 92.1269 137.337 91.8193 137.078 91.5744C136.849 91.3635 136.58 91.2003 136.286 91.0944C136.029 90.9968 135.756 90.9464 135.48 90.9456C135.215 90.9424 134.952 90.993 134.707 91.0944C134.624 91.1283 134.544 91.1684 134.467 91.2144L134.65 91.0464L135.231 90.5184L136.378 89.4432C137.136 88.728 137.899 87.9648 138.619 87.2544L142.32 90.7536Z" fill="#FF8B7B"/>
<path opacity="0.2" d="M156.25 87.0528C157.968 88.752 158.53 91.8528 158.65 94.5408L158.371 94.7568C156.73 93.0024 155.573 90.8524 155.011 88.5168C154.949 88.2672 154.891 88.0368 154.848 87.7632L156.25 87.0528Z" fill="black"/>
<path d="M138.965 84.48C138.274 88.128 137.842 95.6208 139.843 110.453H157.92C158.045 107.683 156.303 94.1568 158.976 81.096C156.979 80.7124 154.958 80.4575 152.928 80.3328C150.37 80.1861 147.806 80.1861 145.248 80.3328C144.403 80.4096 143.568 80.5344 142.848 80.664C141.891 80.832 141.007 81.2868 140.313 81.9682C139.62 82.6496 139.15 83.5255 138.965 84.48Z" fill="#407BFF"/>
<path opacity="0.4" d="M138.965 84.48C138.274 88.128 137.842 95.6208 139.843 110.453H157.92C158.045 107.683 156.303 94.1568 158.976 81.096C156.979 80.7124 154.958 80.4575 152.928 80.3328C150.37 80.1861 147.806 80.1861 145.248 80.3328C144.403 80.4096 143.568 80.5344 142.848 80.664C141.891 80.832 141.007 81.2868 140.313 81.9682C139.62 82.6496 139.15 83.5255 138.965 84.48Z" fill="black"/>
<path opacity="0.2" d="M141.73 89.8896L138.466 89.1072C138.365 91.0848 138.355 93.5328 138.499 96.5616C140.002 94.8528 141.922 92.184 141.73 89.8896Z" fill="black"/>
<path opacity="0.2" d="M144.955 188.53L145.128 192.562H148.507L148.335 188.53H144.955Z" fill="black"/>
<path opacity="0.2" d="M170.136 187.502L166.834 188.218L168.543 191.971L171.845 191.256L170.136 187.502Z" fill="black"/>
<path d="M153.566 69.1968C152.702 72.432 152.357 74.3712 150.36 75.7152C147.36 77.76 143.616 75.4176 143.52 72C143.414 68.9136 144.85 64.1376 148.32 63.4848C149.083 63.3417 149.869 63.3951 150.605 63.64C151.342 63.885 152.004 64.3134 152.528 64.8849C153.053 65.4563 153.424 66.1521 153.606 66.9065C153.787 67.6608 153.774 68.4491 153.566 69.1968Z" fill="#FF8B7B"/>
<path d="M145.992 69.3168C145.829 68.8848 145.085 65.5392 145.786 64.6704C146.487 63.8016 154.479 64.4304 155.659 65.592C157.623 67.512 156.259 69.24 154.114 71.4624C152.501 73.1328 152.439 75.0144 151.623 75.3024C150.183 75.7824 147.984 75.3312 147.543 73.8096C147.101 72.288 145.992 69.3168 145.992 69.3168Z" fill="#263238"/>
<path d="M154.69 61.7856C151.867 60.5856 146.573 61.9152 143.712 61.224C143.676 62.2878 144.025 63.3288 144.697 64.1546C145.368 64.9805 146.316 65.5354 147.365 65.7168C149.738 66.1691 152.149 66.3925 154.565 66.384C157.704 66.24 157.09 62.808 154.69 61.7856Z" fill="#263238"/>
<path d="M155.131 65.6928C156.162 65.7943 157.201 65.5959 158.122 65.1216C158.65 66.3984 155.746 66.7488 155.131 65.6928Z" fill="#263238"/>
<path d="M147.528 69.4512C147.463 70.2836 147.126 71.0715 146.568 71.6928C145.829 72.504 145.061 71.9952 144.931 71.0112C144.816 70.1184 145.056 68.6112 145.959 68.1792C146.861 67.7472 147.591 68.448 147.528 69.4512Z" fill="#FF8B7B"/>
<path d="M146.251 110.467C146.251 110.467 150.091 136.267 152.189 145.934C154.488 156.518 166.843 191.534 166.843 191.534L172.886 190.224C172.886 190.224 164.246 161.683 162.326 146.885C160.838 135.518 157.915 110.458 157.915 110.458L146.251 110.467Z" fill="#407BFF"/>
<path d="M165.394 189.523C165.37 189.523 166.522 191.712 166.522 191.712L173.318 190.238L172.747 188.194L165.394 189.523Z" fill="#263238"/>
<path opacity="0.3" d="M148.675 119.659C153.106 120.528 152.635 137.05 152.103 145.55C150.826 139.541 148.954 127.982 147.677 119.779C147.986 119.626 148.339 119.584 148.675 119.659Z" fill="black"/>
<path d="M139.843 110.467C139.843 110.467 139.363 135.71 139.747 145.987C140.131 156.696 143.87 191.76 143.87 191.76H149.592C149.592 191.76 149.798 157.32 150.072 146.803C150.35 135.341 151.733 110.448 151.733 110.448L139.843 110.467Z" fill="#407BFF"/>
<path d="M142.771 189.504C142.742 189.504 143.093 191.875 143.093 191.875H150.048L150.24 189.758L142.771 189.504Z" fill="#263238"/>
<path d="M146.04 85.6032C147.658 89.9664 138.149 95.1072 138.149 95.1072L134.031 89.8272C134.031 89.8272 136.8 84.3456 140.16 81.8784C144.312 78.8352 144.807 82.2816 146.04 85.6032Z" fill="#407BFF"/>
<path opacity="0.4" d="M146.04 85.6032C147.658 89.9664 138.149 95.1072 138.149 95.1072L134.031 89.8272C134.031 89.8272 136.8 84.3456 140.16 81.8784C144.312 78.8352 144.807 82.2816 146.04 85.6032Z" fill="black"/>
<path d="M183.298 52.4784C192.865 52.4784 200.621 47.5356 200.621 41.4384C200.621 35.3412 192.865 30.3984 183.298 30.3984C173.73 30.3984 165.974 35.3412 165.974 41.4384C165.974 47.5356 173.73 52.4784 183.298 52.4784Z" fill="#407BFF"/>
<path opacity="0.6" d="M169.2 58.9536C172.344 58.9536 174.893 57.3289 174.893 55.3248C174.893 53.3207 172.344 51.696 169.2 51.696C166.056 51.696 163.507 53.3207 163.507 55.3248C163.507 57.3289 166.056 58.9536 169.2 58.9536Z" fill="#407BFF"/>
<path opacity="0.3" d="M160.143 60.4416C161.434 60.4416 162.48 59.7754 162.48 58.9536C162.48 58.1318 161.434 57.4656 160.143 57.4656C158.852 57.4656 157.805 58.1318 157.805 58.9536C157.805 59.7754 158.852 60.4416 160.143 60.4416Z" fill="#407BFF"/>
<path d="M179.067 45.5404C178.508 45.5404 177.993 45.4108 177.52 45.1516C177.054 44.8867 176.682 44.5209 176.406 44.0544C176.135 43.582 176 43.0521 176 42.4646C176 41.8771 176.135 41.35 176.406 40.8835C176.682 40.4169 177.054 40.054 177.52 39.7948C177.993 39.5299 178.508 39.3974 179.067 39.3974C179.631 39.3974 180.147 39.5299 180.613 39.7948C181.086 40.054 181.457 40.4169 181.728 40.8835C181.999 41.35 182.134 41.8771 182.134 42.4646C182.134 43.0521 181.999 43.582 181.728 44.0544C181.457 44.5209 181.086 44.8867 180.613 45.1516C180.147 45.4108 179.631 45.5404 179.067 45.5404ZM179.067 44.6851C179.464 44.6851 179.818 44.5958 180.13 44.4172C180.441 44.2329 180.682 43.9737 180.855 43.6396C181.034 43.2998 181.123 42.9081 181.123 42.4646C181.123 42.0211 181.034 41.6323 180.855 41.2982C180.682 40.9641 180.441 40.7078 180.13 40.5292C179.818 40.3507 179.464 40.2614 179.067 40.2614C178.669 40.2614 178.315 40.3507 178.004 40.5292C177.693 40.7078 177.448 40.9641 177.27 41.2982C177.097 41.6323 177.01 42.0211 177.01 42.4646C177.01 42.9081 177.097 43.2998 177.27 43.6396C177.448 43.9737 177.693 44.2329 178.004 44.4172C178.315 44.5958 178.669 44.6851 179.067 44.6851ZM186.983 39.4752V40.2787H185.384V45.48H184.399V40.2787H182.792V39.4752H186.983ZM192.179 41.2636C192.179 41.5689 192.107 41.8569 191.963 42.1276C191.819 42.3984 191.589 42.6201 191.272 42.7929C190.955 42.96 190.549 43.0435 190.054 43.0435H188.965V45.48H187.98V39.4752H190.054C190.515 39.4752 190.903 39.5558 191.22 39.7171C191.543 39.8726 191.782 40.0857 191.937 40.3564C192.099 40.6272 192.179 40.9296 192.179 41.2636ZM190.054 42.24C190.428 42.24 190.707 42.1564 190.892 41.9894C191.076 41.8166 191.168 41.5747 191.168 41.2636C191.168 40.607 190.797 40.2787 190.054 40.2787H188.965V42.24H190.054Z" fill="#F9FAFB"/>
</svg>
