<svg width="262" height="175" viewBox="0 0 262 175" fill="none" xmlns="http://www.w3.org/2000/svg">
<path d="M151.551 77.5031C151.551 77.5031 151.551 77.4716 151.551 77.4192V77.1887C151.551 76.9791 151.551 76.6821 151.551 76.3049C151.551 75.5293 151.551 74.4115 151.523 73.0072L151.576 73.0596L134.581 73.091C134.619 73.0526 134.493 73.1783 134.668 73.0072V75.2848C134.668 76.0324 134.668 76.773 134.668 77.4961L134.584 77.4088L146.695 77.4472L150.269 77.4716H151.237H151.488C151.519 77.4687 151.549 77.4687 151.579 77.4716H151.502H151.258H150.311L146.72 77.552L134.549 77.5904H134.465V77.5066C134.465 76.7835 134.465 76.0429 134.465 75.2953V73.0107L134.553 72.9233L151.548 72.9548H151.611V73.0107C151.611 74.429 151.59 75.5573 151.583 76.3398C151.583 76.7136 151.583 77.0035 151.583 77.2131C151.583 77.304 151.583 77.3773 151.583 77.4332C151.575 77.4578 151.565 77.4813 151.551 77.5031Z" fill="#E0E0E0"/>
<path d="M184.242 30.4758C184.239 30.4491 184.239 30.4222 184.242 30.3955C184.242 30.3361 184.242 30.2593 184.242 30.1649C184.242 29.9518 184.242 29.6584 184.242 29.2776C184.242 28.5021 184.225 27.3877 184.214 25.9799L184.266 26.0323L167.271 26.0673C167.31 26.0288 167.184 26.1546 167.355 25.9799V30.4758L167.268 30.392L179.379 30.4304L182.956 30.4549H183.924H184.176H184.266C184.24 30.4582 184.213 30.4582 184.186 30.4549H183.945H182.995L179.439 30.4793L167.268 30.5178H167.184V25.9869C167.355 25.8157 167.229 25.938 167.271 25.8996L184.266 25.9345H184.319V25.9869C184.319 27.4087 184.294 28.5335 184.287 29.3161C184.287 29.6898 184.287 29.9833 184.287 30.1894C184.287 30.2802 184.287 30.3536 184.287 30.413C184.274 30.4352 184.259 30.4563 184.242 30.4758Z" fill="#E0E0E0"/>
<path d="M247.269 97.8133C247.265 97.7866 247.265 97.7597 247.269 97.733V97.5024C247.269 97.2928 247.269 96.9959 247.269 96.6186C247.269 95.8431 247.269 94.7252 247.241 93.3174L247.293 93.3698L230.298 93.4047L230.385 93.3174V97.8133L230.301 97.7295L242.413 97.7679L245.986 97.7924H246.954H247.206H247.296C247.296 97.7924 247.272 97.7924 247.216 97.7924H246.975H246.028L242.472 97.8168L230.301 97.8552H230.214V93.3349L230.301 93.251L247.296 93.2825H247.328V93.3349C247.328 94.7567 247.307 95.8815 247.3 96.6675C247.3 97.0413 247.3 97.3313 247.3 97.5409V97.7609C247.291 97.7791 247.28 97.7966 247.269 97.8133Z" fill="#E0E0E0"/>
<path d="M249.574 93.3314C249.569 93.3037 249.569 93.2753 249.574 93.2475C249.574 93.1812 249.574 93.1043 249.574 93.01C249.574 92.7864 249.574 92.486 249.574 92.1087C249.574 91.3192 249.557 90.2049 249.543 88.8355L249.606 88.8983L239.395 88.9228C239.314 88.9997 239.5 88.818 239.479 88.8355V91.1481C239.479 91.9026 239.479 92.6292 239.479 93.3279L239.395 93.2475L246.703 93.286L248.83 93.3104H249.403H249.609C249.548 93.3152 249.486 93.3152 249.424 93.3104H248.865L246.769 93.3349L239.409 93.3733H239.293V93.2895C239.293 92.5908 239.293 91.8642 239.293 91.1096V88.797C239.272 88.818 239.458 88.6329 239.381 88.7132L249.592 88.7342H249.655V88.7935C249.655 90.1909 249.63 91.3053 249.623 92.1017C249.623 92.4755 249.623 92.7725 249.623 92.9925C249.613 93.1063 249.597 93.2195 249.574 93.3314Z" fill="#E0E0E0"/>
<path d="M88.9229 148.334L85.0803 149.986L85.3388 127.192C85.4575 124.464 84.2034 123.301 83.5222 122.525C77.3355 115.49 68.1096 120.593 68.0293 127.723L67.7987 148.093L64.0574 148.051L64.4277 126.742C64.4556 124.342 66.3211 120.178 68.204 118.686C78.6141 110.438 89.2653 118.958 89.164 127.971L88.9229 148.334Z" fill="#F5F5F5"/>
<path d="M88.9228 148.334V147.925C88.9228 147.656 88.9228 147.261 88.9228 146.744C88.9228 145.696 88.9438 144.177 88.9578 142.203C88.9717 140.229 88.9962 137.836 89.0206 135.045C89.0346 133.648 89.0486 132.161 89.0626 130.584C89.0626 129.005 89.2058 127.325 88.8809 125.599C88.5556 123.792 87.8233 122.083 86.7395 120.6C86.5963 120.408 86.46 120.213 86.3098 120.024C86.1596 119.835 85.9884 119.675 85.8277 119.482C85.4994 119.118 85.1494 118.774 84.7797 118.452C84.6016 118.281 84.392 118.145 84.1964 117.987C84.0007 117.83 83.8086 117.669 83.5885 117.544C83.1653 117.262 82.7242 117.007 82.268 116.782C81.3346 116.313 80.3466 115.961 79.3266 115.734L78.5372 115.605L78.1424 115.538L77.7407 115.514L76.9302 115.462C76.6577 115.462 76.3853 115.479 76.1128 115.49C73.8544 115.592 71.6684 116.318 69.7968 117.586C67.8273 118.919 66.2834 120.792 65.3498 122.979C64.8809 124.108 64.5728 125.297 64.4346 126.511C64.3298 127.734 64.3577 128.995 64.3333 130.256C64.2774 135.311 64.218 140.544 64.1586 145.906C64.1586 146.621 64.1504 147.334 64.1341 148.044L64.0468 147.953L67.7882 147.995L67.7008 148.082C67.7451 144.03 67.7905 140.071 67.8371 136.205C67.858 134.281 67.8802 132.385 67.9034 130.514C67.9034 129.583 67.9139 128.657 67.9349 127.737C67.9549 126.819 68.1079 125.908 68.389 125.033C68.9624 123.332 70.0424 121.846 71.4841 120.775C71.6549 120.64 71.8334 120.515 72.0186 120.401L72.5775 120.052C72.9568 119.851 73.3503 119.678 73.7548 119.535C74.1546 119.389 74.5644 119.272 74.9809 119.186C75.187 119.14 75.3966 119.123 75.6028 119.088L75.9137 119.046H76.2281C77.0488 119 77.8719 119.07 78.6734 119.252C79.4547 119.439 80.2085 119.727 80.9161 120.108C82.9297 121.226 84.4321 123.08 85.1081 125.281C85.3055 125.964 85.4228 126.668 85.4574 127.377C85.4574 127.552 85.4574 127.727 85.4749 127.898C85.4924 128.069 85.4749 128.247 85.4749 128.411C85.4749 128.761 85.4749 129.089 85.4749 129.424C85.4749 130.092 85.4749 130.748 85.4505 131.391C85.4155 133.962 85.3876 136.324 85.3596 138.455C85.3002 142.713 85.2548 146.046 85.2234 148.261L85.1989 148.236L88.0216 148.282H88.7202H88.9473H88.032L85.1954 148.264H85.171V148.24C85.171 146.025 85.2199 142.692 85.2583 138.434C85.2793 136.303 85.3037 133.938 85.3282 131.367C85.3282 130.724 85.3282 130.067 85.3492 129.4C85.3492 129.051 85.3492 128.729 85.3492 128.387C85.3492 128.219 85.3492 128.038 85.3492 127.877L85.3282 127.363C85.2762 125.932 84.8511 124.538 84.095 123.322C83.3067 122.019 82.19 120.945 80.8567 120.209C80.1609 119.836 79.4201 119.555 78.6524 119.371C77.8609 119.193 77.0484 119.127 76.2385 119.175H75.9311L75.6272 119.22C75.4211 119.252 75.215 119.269 75.0124 119.315C74.1916 119.49 73.3984 119.775 72.6544 120.164L72.1059 120.492C71.9246 120.598 71.7497 120.715 71.5819 120.841C70.1649 121.895 69.1053 123.358 68.5462 125.033C68.2711 125.892 68.1228 126.787 68.1061 127.688C68.1061 128.606 68.0956 129.532 68.0746 130.466C68.0537 132.329 68.0327 134.226 68.0117 136.156C67.9698 139.999 67.9244 143.971 67.879 148.033V148.121H67.7917L64.0468 148.079H63.9595V147.992C63.9595 147.293 63.9676 146.58 63.9839 145.854C64.0468 140.495 64.1062 135.262 64.1656 130.204C64.19 128.939 64.1656 127.692 64.2669 126.441C64.4094 125.211 64.7234 124.007 65.1996 122.864C65.6867 121.772 66.3163 120.748 67.072 119.821C67.8377 118.918 68.7199 118.12 69.6955 117.449C71.5915 116.164 73.8068 115.428 76.0953 115.325C76.3713 115.325 76.6473 115.294 76.9232 115.301L77.8629 115.357L78.38 115.416L79.1625 115.545L79.5118 115.622C80.4818 115.849 81.4203 116.194 82.3065 116.649C82.7693 116.876 83.2163 117.134 83.6444 117.421C83.8645 117.551 84.0531 117.725 84.2557 117.872C84.4584 118.019 84.6645 118.169 84.8496 118.34C85.2194 118.668 85.5694 119.018 85.8976 119.388L86.3867 119.937C86.5369 120.129 86.6731 120.328 86.8164 120.523C87.9101 122.022 88.6473 123.751 88.9717 125.578C89.2966 127.325 89.1324 129.016 89.1429 130.595C89.1534 132.174 89.101 133.676 89.0835 135.073C89.0451 137.868 89.0102 140.271 88.9822 142.238C88.9543 144.205 88.9333 145.731 88.9158 146.758C88.9158 147.268 88.9158 147.663 88.8949 147.929C88.8739 148.194 88.9228 148.334 88.9228 148.334Z" fill="#E0E0E0"/>
<path d="M59.7837 134.745L93.6668 135.13C94.0133 135.134 94.3441 135.275 94.5863 135.523C94.8285 135.771 94.9624 136.104 94.9584 136.451L94.6613 162.639C94.6578 162.954 94.5292 163.254 94.304 163.475C94.0787 163.695 93.7752 163.817 93.4602 163.813L59.4723 163.427L59.7977 134.745L59.7837 134.745Z" fill="#E0E0E0"/>
<path d="M59.7843 134.672L89.5824 134.97C89.9585 134.974 90.3178 135.127 90.5811 135.395C90.8444 135.664 90.9903 136.026 90.9865 136.402L90.7315 161.904C90.7269 162.367 90.5384 162.809 90.2075 163.134C89.8767 163.458 89.4306 163.638 88.9674 163.633L59.5465 163.339C59.1574 163.335 58.7857 163.177 58.5133 162.899C58.2409 162.621 58.0901 162.246 58.094 161.857L58.3518 136.076C58.3555 135.7 58.5086 135.341 58.7772 135.077C59.0459 134.814 59.4081 134.668 59.7843 134.672Z" fill="#EBEBEB"/>
<path d="M78.897 146.772C78.9032 146.236 78.8016 145.705 78.5983 145.209C78.395 144.713 78.0941 144.263 77.7135 143.886C77.3329 143.508 76.8804 143.211 76.3828 143.012C75.8851 142.813 75.3526 142.716 74.8168 142.727C73.786 142.758 72.8059 143.181 72.0768 143.91C71.3476 144.639 70.9245 145.619 70.8937 146.65C70.8776 147.524 71.1493 148.379 71.6669 149.084C72.1845 149.788 72.9194 150.303 73.7583 150.549L71.0859 156.04L77.9852 156.246L75.9451 150.563C76.7821 150.337 77.5229 149.846 78.0555 149.162C78.5881 148.478 78.8835 147.639 78.897 146.772Z" fill="#E0E0E0"/>
<path d="M90.5401 161.074C90.4912 161.074 90.5401 156.082 90.6275 149.927C90.7148 143.772 90.8406 138.776 90.8895 138.776C90.9384 138.776 90.8895 143.768 90.8021 149.927C90.7148 156.086 90.5891 161.078 90.5401 161.074Z" fill="#FAFAFA"/>
<path d="M83.26 135.891C83.26 135.94 78.8689 135.988 73.4507 135.999C68.0326 136.009 63.6379 135.978 63.6379 135.929C63.6379 135.88 68.0291 135.835 73.4507 135.824C78.8724 135.814 83.26 135.835 83.26 135.891Z" fill="white"/>
<path d="M70.74 148.837C70.6715 148.763 70.616 148.678 70.5758 148.585C70.4504 148.342 70.3497 148.087 70.2753 147.824C70.0254 146.947 70.0486 146.014 70.3419 145.15C70.6352 144.287 71.1847 143.533 71.9172 142.989C72.1349 142.825 72.3691 142.683 72.6159 142.566C72.7028 142.518 72.7973 142.485 72.8953 142.469C72.8953 142.497 72.5146 142.661 71.9906 143.087C71.3023 143.636 70.786 144.372 70.5031 145.206C70.2201 146.04 70.1823 146.938 70.3941 147.792C70.5653 148.467 70.7679 148.816 70.74 148.837Z" fill="white"/>
<path d="M72.3121 150.751C72.2876 150.793 72.0535 150.692 71.7881 150.528C71.5226 150.364 71.3304 150.196 71.3549 150.154C71.3793 150.112 71.6169 150.213 71.8824 150.378C72.1479 150.542 72.3121 150.709 72.3121 150.751Z" fill="white"/>
<path d="M75.6377 116.387C75.415 116.43 75.1898 116.459 74.9635 116.475C74.3534 116.556 73.7507 116.686 73.161 116.862C71.2015 117.431 69.4445 118.546 68.0953 120.076C66.7461 121.607 65.8605 123.49 65.542 125.505C65.4369 126.112 65.3843 126.727 65.3848 127.342C65.3848 127.776 65.3848 128.02 65.3848 128.02C65.366 127.964 65.3566 127.905 65.3569 127.846C65.3569 127.73 65.3219 127.563 65.3184 127.342C65.2938 126.721 65.3289 126.099 65.4232 125.484C65.7147 123.435 66.5998 121.516 67.9692 119.964C69.3387 118.412 71.1326 117.295 73.1295 116.751C73.727 116.575 74.34 116.458 74.96 116.401C75.1766 116.377 75.3478 116.38 75.4631 116.377C75.5215 116.375 75.58 116.378 75.6377 116.387Z" fill="white"/>
<path d="M65.1995 131.112C65.12 130.768 65.0987 130.414 65.1367 130.064C65.1128 129.711 65.1494 129.356 65.245 129.016C65.3503 129.712 65.3349 130.421 65.1995 131.112Z" fill="white"/>
<path d="M86.729 33.805H69.7339V38.3009H86.729V33.805Z" fill="#F5F5F5"/>
<path d="M79.5431 43.0379C79.5431 43.0379 79.5431 43.0099 79.5431 42.9575V42.727C79.5431 42.5139 79.5431 42.2169 79.5431 41.8396C79.5431 41.0641 79.5431 39.9498 79.5152 38.5419L79.5676 38.5943L62.5725 38.6293C62.611 38.5909 62.4852 38.7131 62.6599 38.5419V40.8196C62.6599 41.5695 62.6599 42.3066 62.6599 43.0309L62.576 42.947L74.6874 42.9855L78.2611 43.0099H79.2287H79.4803C79.5105 43.007 79.5409 43.007 79.5711 43.0099H79.4942H79.2497H78.303L74.7468 43.0344L62.576 43.0728H62.4922V42.989C62.4922 42.2647 62.4922 41.5276 62.4922 40.7777V38.5L62.5795 38.4127L79.5746 38.4476H79.627V38.5C79.627 39.9183 79.606 41.0467 79.599 41.8292C79.599 42.203 79.599 42.4929 79.599 42.7025C79.599 42.7933 79.599 42.8667 79.599 42.9226C79.599 42.9785 79.5466 43.0379 79.5431 43.0379Z" fill="#E0E0E0"/>
<path d="M244.764 22.0674H227.769V26.5633H244.764V22.0674Z" fill="#F5F5F5"/>
<path d="M237.578 31.3003C237.575 31.2735 237.575 31.2466 237.578 31.2199V30.9894C237.578 30.7763 237.578 30.4828 237.578 30.1021C237.578 29.3265 237.578 28.2122 237.55 26.8043L237.603 26.8567L220.608 26.8917C220.646 26.8533 220.52 26.9755 220.695 26.8043V27.3738C220.695 27.5659 220.695 27.758 220.695 27.9467V31.3003L220.611 31.2164L232.722 31.2549L236.296 31.2793H237.264H237.515H237.606H237.526H237.285H236.338L232.782 31.3038L220.611 31.3422H220.524V26.8113L220.611 26.724L237.606 26.7589H237.658V26.8113C237.658 28.2296 237.638 29.358 237.631 30.1405C237.631 30.5143 237.631 30.8042 237.631 31.0138C237.631 31.1046 237.631 31.178 237.631 31.2374C237.631 31.2968 237.582 31.3003 237.578 31.3003Z" fill="#E0E0E0"/>
<path d="M147.841 111.448H130.846V115.944H147.841V111.448Z" fill="#F5F5F5"/>
<path d="M140.656 120.681C140.653 120.653 140.653 120.625 140.656 120.597V120.366C140.656 120.157 140.656 119.86 140.656 119.482C140.656 118.707 140.638 117.593 140.628 116.185L140.68 116.237L123.685 116.272C123.723 116.234 123.598 116.356 123.769 116.185V120.674L123.685 120.59L135.796 120.628L139.37 120.653H140.338H140.589H140.68H140.6H140.359H139.412L135.856 120.677L123.664 120.765H123.577V116.192L123.664 116.104L140.659 116.139H140.711V116.192C140.711 117.61 140.691 118.738 140.684 119.521C140.684 119.895 140.684 120.185 140.684 120.394C140.684 120.485 140.684 120.558 140.684 120.614C140.676 120.637 140.666 120.659 140.656 120.681Z" fill="#E0E0E0"/>
<path d="M36.4215 26.7624C36.4184 26.7357 36.4184 26.7088 36.4215 26.6821C36.4215 26.6227 36.4215 26.5458 36.4215 26.4515C36.4215 26.2384 36.4215 25.945 36.4215 25.5642C36.4215 24.7887 36.4215 23.6743 36.3936 22.2665L36.446 22.3189L19.4264 22.3573C19.4649 22.3189 19.3391 22.4447 19.5103 22.27V26.7624L19.4264 26.6786L31.5378 26.717L35.1115 26.7415H36.0792H36.3307H36.4215C36.3948 26.7448 36.3678 26.7448 36.3412 26.7415H36.1001H35.1499L31.5972 26.7659L19.4264 26.8043H19.3391V22.2735L19.4264 22.1862L36.4215 22.2211H36.4739V22.2735C36.4739 23.6953 36.453 24.8201 36.446 25.6026C36.446 25.9764 36.446 26.2699 36.446 26.476C36.446 26.5668 36.446 26.6402 36.446 26.6995C36.4395 26.7211 36.4313 26.7421 36.4215 26.7624Z" fill="#E0E0E0"/>
<path d="M205.901 156.407C205.901 156.407 205.901 156.379 205.901 156.327V156.096C205.901 155.883 205.901 155.59 205.901 155.209C205.901 154.433 205.901 153.319 205.873 151.911L205.925 151.963L188.93 151.998L189.017 151.911V154.189C189.017 154.941 189.017 155.678 189.017 156.4L188.933 156.316L201.045 156.355L204.619 156.379H205.586H205.841H205.929C205.929 156.379 205.904 156.379 205.852 156.379H205.607H204.66L201.104 156.404L188.933 156.442H188.85V156.358C188.85 155.634 188.85 154.897 188.85 154.147V151.869L188.937 151.782L205.932 151.817H205.984V151.869C205.984 153.287 205.963 154.416 205.956 155.198C205.956 155.572 205.956 155.862 205.956 156.072C205.956 156.162 205.956 156.236 205.956 156.295C205.956 156.355 205.904 156.411 205.901 156.407Z" fill="#E0E0E0"/>
<path d="M137.763 20.3067C137.763 20.3067 137.763 20.2753 137.763 20.2229V19.9923C137.763 19.7827 137.763 19.4858 137.763 19.1085C137.763 18.333 137.763 17.2151 137.735 15.8108L137.788 15.8632L120.793 15.8947L120.88 15.8108V18.0955C120.88 18.8477 120.88 19.5848 120.88 20.3067L120.796 20.2229L132.907 20.2613L136.481 20.2823H137.449H137.704C137.733 20.2794 137.762 20.2794 137.791 20.2823H137.714H137.47H136.523L132.967 20.3067L120.796 20.3452H120.712V20.2613C120.712 19.5382 120.712 18.8011 120.712 18.05V15.8178L120.799 15.7305L137.795 15.7654H137.847V15.8178C137.847 17.2361 137.826 18.3645 137.819 19.147C137.819 19.5207 137.819 19.8107 137.819 20.0203V20.2404C137.804 20.2651 137.785 20.2875 137.763 20.3067Z" fill="#E0E0E0"/>
<path d="M140.083 15.8108C140.08 15.7818 140.08 15.7525 140.083 15.7235C140.083 15.6606 140.083 15.5803 140.083 15.4859C140.083 15.2659 140.083 14.9654 140.083 14.5847C140.083 13.7952 140.062 12.6843 140.048 11.3149L140.111 11.3743L129.9 11.3987L129.983 11.3149V13.624C129.983 14.3751 129.983 15.1052 129.983 15.8038L129.903 15.72L137.208 15.7584L139.335 15.7829H139.908H140.114C140.053 15.7879 139.991 15.7879 139.929 15.7829H139.37L137.274 15.8038L129.914 15.8423H129.83V15.7619C129.83 15.0633 129.83 14.3331 129.83 13.5821V11.3219C129.809 11.3219 129.994 11.1577 129.917 11.2346L140.128 11.259H140.191V11.3219C140.191 12.7192 140.163 13.8301 140.156 14.6301C140.156 15.0039 140.156 15.2973 140.156 15.5174C140.156 15.7375 140.083 15.8143 140.083 15.8108Z" fill="#E0E0E0"/>
<path d="M30.5178 127.507C30.5163 127.48 30.5163 127.453 30.5178 127.426C30.5178 127.367 30.5178 127.29 30.5178 127.196C30.5178 126.983 30.5178 126.689 30.5178 126.312C30.5178 125.536 30.5178 124.419 30.4898 123.011L30.5422 123.063L13.5471 123.098L13.6345 123.011V125.292C13.6345 126.042 13.6345 126.779 13.6345 127.503L13.5506 127.419L25.662 127.458L29.2357 127.482H30.2034H30.4584H30.5457C30.5457 127.482 30.5212 127.482 30.4688 127.482H30.2243H29.2776L25.7214 127.507L13.5506 127.545H13.4668V127.507C13.4668 126.784 13.4668 126.046 13.4668 125.295V123.014C13.6415 122.843 13.5157 122.969 13.5541 122.93L30.5492 122.962H30.6016V123.014C30.6016 124.436 30.5806 125.561 30.5736 126.347C30.5736 126.721 30.5736 127.011 30.5736 127.22V127.44C30.5212 127.507 30.5212 127.507 30.5178 127.507Z" fill="#E0E0E0"/>
<path d="M32.8374 123.018C32.8346 122.99 32.8346 122.962 32.8374 122.934C32.8374 122.868 32.8374 122.791 32.8374 122.696C32.8374 122.473 32.8374 122.172 32.8374 121.795C32.8374 121.006 32.8164 119.891 32.8025 118.522L32.8654 118.585L22.6543 118.609C22.5775 118.686 22.7591 118.504 22.7382 118.522V120.834C22.7382 121.589 22.7382 122.316 22.7382 123.014L22.6578 122.934L29.9624 122.972L32.0898 122.997H32.6627H32.8688C32.8072 123.002 32.7453 123.002 32.6837 122.997H32.1248L30.0288 123.021L22.6683 123.06H22.5845V122.976C22.5845 122.277 22.5845 121.551 22.5845 120.796V118.483L22.6718 118.396L32.8374 118.459H32.9003V118.522C32.9003 119.919 32.8723 121.034 32.8654 121.83C32.8654 122.204 32.8654 122.501 32.8654 122.721C32.8654 122.941 32.8374 123.025 32.8374 123.018Z" fill="#E0E0E0"/>
<path d="M84.0357 90.5437C84.0326 90.517 84.0326 90.49 84.0357 90.4633V90.2328C84.0357 90.0197 84.0357 89.7263 84.0357 89.349C84.0357 88.57 84.0183 87.4556 84.0078 86.0478L84.0602 86.1002L67.0651 86.1351C67.1035 86.0967 66.9778 86.2224 67.149 86.0478V90.5367L67.0651 90.4529L79.1765 90.4913L82.7502 90.5157H83.7178H83.9694H84.0602H83.9798H83.7388H82.7886L79.2359 90.5367L67.0651 90.5751H66.9778V85.9989L67.0651 85.9115L84.0602 85.9465H84.1126V85.9989C84.1126 87.4206 84.0916 88.5455 84.0846 89.3315C84.0846 89.7018 84.0846 89.9952 84.0846 90.2013V90.4249C84.0744 90.4667 84.0579 90.5068 84.0357 90.5437Z" fill="#E0E0E0"/>
<path d="M86.3413 86.0478C86.3363 86.0201 86.3363 85.9917 86.3413 85.9639C86.3413 85.8976 86.3413 85.8207 86.3413 85.7229L86.3238 84.8216C86.3238 84.0356 86.3238 82.9213 86.2924 81.5519L86.3553 81.6147L76.1408 81.6392L76.2281 81.5519V83.8645C76.2281 84.6155 76.2281 85.3456 76.2281 86.0443L76.1443 85.9639L83.4488 86.0024L85.5797 86.0233H86.1527H86.3588C86.296 86.028 86.2329 86.028 86.1701 86.0233H85.6147L83.5187 86.0478L76.1582 86.0862H76.0779V86.0024C76.0779 85.3037 76.0779 84.5736 76.0779 83.8225V81.5099C76.0779 81.5274 76.2456 81.3458 76.1652 81.4226L86.3797 81.4471H86.4426V81.5099C86.4426 82.9073 86.4181 84.0217 86.4112 84.8181C86.4112 85.1919 86.4112 85.4889 86.3937 85.7054C86.3762 85.922 86.3448 86.0513 86.3413 86.0478Z" fill="#E0E0E0"/>
<path d="M242.563 163.799C242.563 163.848 192.766 163.89 131.356 163.89C69.9469 163.89 20.1355 163.837 20.1355 163.799C20.1355 163.76 69.9225 163.708 131.356 163.708C192.79 163.708 242.563 163.75 242.563 163.799Z" fill="#263238"/>
<path d="M238.727 44.3304H159.425V146.105H238.727V44.3304Z" fill="white"/>
<path d="M238.727 146.102C238.727 145.386 238.692 104.734 238.643 44.3304L238.727 44.4107H159.429L159.519 44.3199C159.519 82.0724 159.519 117.124 159.519 146.091L159.443 146.018L238.741 146.091L159.443 146.168H159.369V146.091C159.369 117.124 159.369 82.0724 159.352 44.3199V44.2291H159.453H238.752H238.832V44.3129C238.759 104.734 238.727 145.386 238.727 146.102Z" fill="#263238"/>
<path d="M230.543 83.1588H167.855C167.575 83.1588 167.348 83.3856 167.348 83.6653V93.6562C167.348 93.936 167.575 94.1628 167.855 94.1628H230.543C230.822 94.1628 231.049 93.936 231.049 93.6562V83.6653C231.049 83.3856 230.822 83.1588 230.543 83.1588Z" fill="#EBEBEB"/>
<path d="M230.605 98.271H167.917C167.638 98.271 167.411 98.4977 167.411 98.7775V108.768C167.411 109.048 167.638 109.275 167.917 109.275H230.605C230.885 109.275 231.112 109.048 231.112 108.768V98.7775C231.112 98.4977 230.885 98.271 230.605 98.271Z" fill="#EBEBEB"/>
<path d="M230.232 115.311H167.547C167.268 115.311 167.041 115.538 167.041 115.818V125.809C167.041 126.089 167.268 126.315 167.547 126.315H230.232C230.511 126.315 230.738 126.089 230.738 125.809V115.818C230.738 115.538 230.511 115.311 230.232 115.311Z" fill="#407BFF"/>
<path d="M192.965 67.5541H192.381V68.5567H191.312V64.7804H193.038C194.068 64.7804 194.718 65.3148 194.718 66.1777C194.728 66.4274 194.662 66.6743 194.53 66.8865C194.398 67.0988 194.206 67.2668 193.978 67.3689L194.792 68.5567H193.649L192.965 67.5541ZM192.965 65.6223H192.371V66.7227H192.965C193.405 66.7227 193.628 66.52 193.628 66.1742C193.628 65.8284 193.415 65.6223 192.975 65.6223H192.965Z" fill="#263238"/>
<path d="M198.229 67.3549H196.105C196.151 67.5009 196.245 67.627 196.372 67.7121C196.499 67.7972 196.651 67.8364 196.804 67.8231C196.927 67.8276 197.051 67.8074 197.167 67.7636C197.282 67.7198 197.388 67.6533 197.478 67.568L198.016 68.1305C197.856 68.2958 197.662 68.4241 197.447 68.5062C197.232 68.5883 197.002 68.6222 196.772 68.6056C195.724 68.6056 195.057 67.9628 195.057 67.0895C195.057 66.8831 195.1 66.6789 195.182 66.4895C195.264 66.3001 195.384 66.1296 195.534 65.9885C195.685 65.8474 195.863 65.7387 196.057 65.6691C196.252 65.5995 196.458 65.5705 196.664 65.5838C196.869 65.57 197.075 65.5994 197.267 65.67C197.46 65.7406 197.636 65.851 197.784 65.9939C197.931 66.1368 198.047 66.3091 198.124 66.4996C198.201 66.6902 198.236 66.8947 198.229 67.0999C198.247 67.1768 198.236 67.2711 198.229 67.3549ZM196.088 66.8135H197.286C197.262 66.6721 197.188 66.5439 197.079 66.4515C196.969 66.359 196.83 66.3083 196.687 66.3083C196.543 66.3083 196.405 66.359 196.295 66.4515C196.185 66.5439 196.112 66.6721 196.088 66.8135Z" fill="#263238"/>
<path d="M198.488 68.3016L198.795 67.603C199.107 67.7781 199.458 67.8707 199.815 67.872C200.165 67.872 200.273 67.7951 200.273 67.6728C200.273 67.2781 198.547 67.7252 198.547 66.555C198.547 66.0065 199.054 65.5838 199.972 65.5838C200.371 65.5762 200.765 65.6611 201.125 65.8319L200.818 66.5305C200.56 66.3883 200.27 66.3149 199.976 66.3174C199.627 66.3174 199.508 66.4117 199.508 66.52C199.508 66.9253 201.23 66.4886 201.23 67.6484C201.23 68.1864 200.734 68.6091 199.784 68.6091C199.333 68.6169 198.887 68.5111 198.488 68.3016Z" fill="#263238"/>
<path d="M204.643 67.3549H202.519C202.565 67.5006 202.659 67.6262 202.786 67.7113C202.913 67.7963 203.065 67.8357 203.218 67.8231C203.341 67.8276 203.465 67.8074 203.58 67.7636C203.696 67.7198 203.802 67.6533 203.892 67.568L204.433 68.1305C204.273 68.2957 204.078 68.4238 203.862 68.5059C203.647 68.588 203.416 68.622 203.186 68.6056C202.138 68.6056 201.471 67.9628 201.471 67.0895C201.471 66.8831 201.513 66.6789 201.595 66.4895C201.678 66.3001 201.798 66.1296 201.948 65.9885C202.099 65.8474 202.277 65.7387 202.471 65.6691C202.665 65.5995 202.872 65.5705 203.078 65.5838C203.283 65.57 203.488 65.5994 203.681 65.67C203.874 65.7406 204.05 65.851 204.197 65.9939C204.345 66.1368 204.461 66.3091 204.538 66.4996C204.614 66.6902 204.65 66.8947 204.643 67.0999C204.66 67.1768 204.65 67.2711 204.643 67.3549ZM202.501 66.8135H203.7C203.681 66.6703 203.61 66.5392 203.499 66.4466C203.388 66.354 203.247 66.3066 203.102 66.3139C202.958 66.3081 202.817 66.356 202.706 66.4483C202.595 66.5405 202.522 66.6706 202.501 66.8135Z" fill="#263238"/>
<path d="M207.155 68.4379C206.941 68.5547 206.7 68.6125 206.456 68.6056C205.705 68.6056 205.268 68.2562 205.268 67.4877V66.5061H204.842V65.741H205.268V64.976H206.292V65.7375H206.962V66.5026H206.292V67.4737C206.284 67.5178 206.286 67.563 206.298 67.6061C206.31 67.6493 206.331 67.6891 206.361 67.7227C206.391 67.7563 206.427 67.7828 206.469 67.8001C206.51 67.8175 206.554 67.8254 206.599 67.8231C206.711 67.8246 206.82 67.793 206.914 67.7322L207.155 68.4379Z" fill="#263238"/>
<path d="M180.221 73.2587V74.6141H179.152V73.2412L177.713 70.8378H178.838L179.736 72.3365L180.63 70.8378H181.678L180.221 73.2587Z" fill="#263238"/>
<path d="M181.381 73.1469C181.381 72.2666 182.08 71.6413 183.03 71.6413C183.98 71.6413 184.682 72.2666 184.682 73.1469C184.682 74.0272 183.983 74.663 183.03 74.663C182.076 74.663 181.381 74.0307 181.381 73.1469ZM183.645 73.1469C183.654 73.0607 183.645 72.9734 183.618 72.8909C183.591 72.8084 183.548 72.7324 183.49 72.6679C183.432 72.6034 183.361 72.5518 183.281 72.5165C183.202 72.4812 183.116 72.463 183.03 72.463C182.943 72.463 182.857 72.4812 182.778 72.5165C182.699 72.5518 182.628 72.6034 182.57 72.6679C182.512 72.7324 182.468 72.8084 182.441 72.8909C182.415 72.9734 182.406 73.0607 182.415 73.1469C182.406 73.2332 182.415 73.3204 182.441 73.4029C182.468 73.4854 182.512 73.5614 182.57 73.6259C182.628 73.6904 182.699 73.742 182.778 73.7773C182.857 73.8126 182.943 73.8309 183.03 73.8309C183.116 73.8309 183.202 73.8126 183.281 73.7773C183.361 73.742 183.432 73.6904 183.49 73.6259C183.548 73.5614 183.591 73.4854 183.618 73.4029C183.645 73.3204 183.654 73.2332 183.645 73.1469Z" fill="#263238"/>
<path d="M188.231 71.6902V74.6141H187.243V74.2997C187.13 74.4156 186.995 74.5066 186.845 74.5668C186.695 74.627 186.534 74.655 186.373 74.649C185.674 74.649 185.133 74.2368 185.133 73.3111V71.6762H186.156V73.1434C186.156 73.5975 186.334 73.7722 186.642 73.7722C186.949 73.7722 187.194 73.5731 187.194 73.0735V71.6762L188.231 71.6902Z" fill="#263238"/>
<path d="M190.848 71.6413V72.5635C190.771 72.5531 190.694 72.5473 190.617 72.5461C190.521 72.5362 190.424 72.5483 190.333 72.5815C190.242 72.6147 190.159 72.6681 190.092 72.7378C190.025 72.8074 189.974 72.8915 189.944 72.9835C189.914 73.0756 189.905 73.1732 189.919 73.2692V74.6141H188.895V71.6902H189.87V72.0395C189.991 71.9026 190.143 71.7955 190.312 71.7265C190.482 71.6574 190.665 71.6283 190.848 71.6413Z" fill="#263238"/>
<path d="M196.304 72.2351C196.304 73.091 195.655 73.6325 194.624 73.6325H193.967V74.6211H192.898V70.8378H194.624C195.655 70.8378 196.304 71.3723 196.304 72.2351ZM195.225 72.2351C195.225 71.8858 195.001 71.6797 194.561 71.6797H193.967V72.7836H194.579C195.001 72.7836 195.225 72.581 195.225 72.2351Z" fill="#263238"/>
<path d="M199.487 72.9897V74.6141H198.533V74.2368C198.445 74.3833 198.316 74.5013 198.162 74.5769C198.009 74.6524 197.837 74.6823 197.667 74.663C196.968 74.663 196.577 74.2683 196.577 73.7617C196.577 73.2552 196.972 72.8884 197.88 72.8884H198.46C198.46 72.5915 198.247 72.4238 197.842 72.4238C197.558 72.4236 197.28 72.5115 197.049 72.6753L196.699 71.9766C197.089 71.744 197.535 71.6232 197.988 71.6273C198.942 71.6413 199.487 72.0605 199.487 72.9897ZM198.46 73.6884V73.4334H198.02C197.691 73.4334 197.573 73.5521 197.573 73.7303C197.573 73.9084 197.712 74.0272 197.953 74.0272C198.065 74.0331 198.175 74.0015 198.267 73.9376C198.359 73.8737 198.427 73.7811 198.46 73.6744V73.6884Z" fill="#263238"/>
<path d="M199.903 74.3591L200.21 73.6604C200.52 73.8389 200.872 73.9328 201.23 73.9329C201.579 73.9329 201.688 73.856 201.688 73.7338C201.688 73.339 199.962 73.7862 199.962 72.6159C199.962 72.064 200.469 71.6448 201.384 71.6448C201.783 71.6367 202.179 71.7216 202.54 71.8928L202.233 72.5915C201.975 72.4486 201.685 72.374 201.391 72.3749C201.041 72.3749 200.923 72.4727 200.923 72.581C200.923 72.9862 202.641 72.5495 202.641 73.7093C202.641 74.2473 202.145 74.67 201.195 74.67C200.745 74.6769 200.3 74.5699 199.903 74.3591Z" fill="#263238"/>
<path d="M202.854 74.3591L203.162 73.6604C203.471 73.8384 203.821 73.9324 204.178 73.9329C204.528 73.9329 204.639 73.856 204.639 73.7338C204.639 73.339 202.914 73.7862 202.914 72.6159C202.914 72.064 203.42 71.6448 204.335 71.6448C204.735 71.6371 205.131 71.722 205.492 71.8928L205.184 72.5915C204.926 72.4495 204.637 72.375 204.342 72.3749C203.993 72.3749 203.871 72.4727 203.871 72.581C203.871 72.9862 205.593 72.5495 205.593 73.7093C205.593 74.2473 205.097 74.67 204.147 74.67C203.697 74.6772 203.252 74.5702 202.854 74.3591Z" fill="#263238"/>
<path d="M210.826 71.6902L209.778 74.6141H208.786L208.241 73.0107L207.672 74.6036H206.68L205.632 71.6797H206.603L207.2 73.4473L207.818 71.6797H208.695L209.3 73.4648L209.918 71.6797L210.826 71.6902Z" fill="#263238"/>
<path d="M210.875 73.1469C210.875 72.2666 211.574 71.6413 212.527 71.6413C213.481 71.6413 214.176 72.2666 214.176 73.1469C214.176 74.0272 213.478 74.663 212.527 74.663C211.577 74.663 210.875 74.0307 210.875 73.1469ZM213.142 73.1469C213.127 73.0291 213.078 72.9183 213.001 72.8276C212.924 72.737 212.823 72.6704 212.709 72.6358C212.596 72.6012 212.474 72.6 212.36 72.6325C212.246 72.6649 212.143 72.7296 212.065 72.8188C211.986 72.908 211.935 73.0178 211.918 73.1353C211.9 73.2528 211.917 73.3729 211.965 73.4812C212.014 73.5895 212.093 73.6814 212.193 73.7461C212.292 73.8107 212.409 73.8452 212.527 73.8456C212.616 73.8464 212.703 73.8282 212.784 73.7922C212.864 73.7562 212.936 73.7032 212.995 73.6369C213.053 73.5707 213.096 73.4926 213.122 73.408C213.147 73.3234 213.154 73.2344 213.142 73.1469Z" fill="#263238"/>
<path d="M216.611 71.6413V72.5635C216.534 72.553 216.455 72.5472 216.377 72.546C216.281 72.5354 216.183 72.5471 216.092 72.58C216 72.613 215.918 72.6665 215.85 72.7363C215.783 72.8061 215.732 72.8904 215.703 72.9828C215.673 73.0751 215.664 73.1731 215.678 73.2692V74.6141H214.651V71.6902H215.629V72.0395C215.751 71.9017 215.903 71.794 216.073 71.7249C216.244 71.6558 216.428 71.6272 216.611 71.6413Z" fill="#263238"/>
<path d="M220.111 70.6107V74.6141H219.137V74.3207C219.03 74.4409 218.897 74.535 218.748 74.5956C218.599 74.6562 218.438 74.6816 218.277 74.67C217.889 74.6513 217.523 74.484 217.255 74.2027C216.987 73.9214 216.837 73.5477 216.837 73.1591C216.837 72.7705 216.987 72.3969 217.255 72.1156C217.523 71.8343 217.889 71.6669 218.277 71.6483C218.426 71.6398 218.574 71.6621 218.714 71.7138C218.853 71.7655 218.981 71.8455 219.088 71.9487V70.6177L220.111 70.6107ZM219.102 73.1469C219.086 73.0288 219.037 72.9177 218.96 72.827C218.883 72.7362 218.781 72.6696 218.667 72.6353C218.553 72.6009 218.432 72.6002 218.317 72.6332C218.203 72.6662 218.1 72.7316 218.022 72.8214C217.944 72.9113 217.893 73.0218 217.877 73.1397C217.86 73.2575 217.877 73.3778 217.927 73.486C217.977 73.5941 218.057 73.6856 218.157 73.7494C218.258 73.8132 218.375 73.8466 218.494 73.8456C218.582 73.846 218.669 73.8274 218.749 73.7912C218.829 73.7549 218.9 73.7018 218.958 73.6355C219.016 73.5692 219.058 73.4912 219.083 73.4069C219.108 73.3226 219.114 73.2339 219.102 73.1469Z" fill="#263238"/>
<path d="M209.659 48.1486L206.9 47.5757L210.393 30.7693C210.523 29.8881 210.329 28.9896 209.848 28.2401C205.45 22.1512 198.296 24.6245 197.199 29.8855L194.055 44.9068L191.295 44.3304L194.82 27.4157C195.001 26.5406 195.375 25.717 195.915 25.0046C196.455 24.2922 197.146 23.7089 197.939 23.297C206.826 18.7173 214.285 25.8367 212.765 33.1343L209.659 48.1486Z" fill="#E0E0E0"/>
<path d="M209.659 48.1486C209.659 48.1486 209.677 48.0438 209.719 47.8482C209.761 47.6526 209.817 47.3556 209.893 46.9749L210.592 43.6317C210.892 42.182 211.256 40.4109 211.678 38.3533L212.377 35.0626C212.594 33.8958 212.954 32.6732 212.968 31.3527C212.989 29.9703 212.695 28.6013 212.108 27.3493C212.031 27.1886 211.958 27.0209 211.878 26.8602L211.598 26.3886C211.408 26.0727 211.199 25.7682 210.973 25.4769C210.861 25.3232 210.728 25.1904 210.606 25.0472C210.484 24.904 210.365 24.7573 210.222 24.6315C209.95 24.3608 209.661 24.1087 209.355 23.8769C208.736 23.3919 208.057 22.987 207.336 22.6717L206.774 22.4621L206.456 22.3573L206.162 22.2805L205.572 22.1268C205.369 22.0814 205.167 22.0604 204.964 22.0255C203.279 21.7746 201.558 21.9946 199.99 22.6613C198.745 23.1901 197.631 23.9848 196.726 24.9895C195.821 25.9942 195.146 27.1848 194.75 28.4777C194.495 29.3685 194.331 30.3012 194.131 31.2304C193.356 34.9578 192.549 38.8179 191.728 42.7584C191.616 43.2859 191.508 43.8064 191.4 44.3339L191.347 44.2536L194.107 44.83L194.03 44.8823C194.652 41.8955 195.263 38.9716 195.854 36.149C196.149 34.7307 196.442 33.3334 196.73 31.957L197.157 29.9099C197.306 29.2338 197.551 28.5822 197.883 27.9746C198.557 26.8021 199.57 25.8616 200.79 25.2778C200.94 25.2114 201.083 25.131 201.24 25.0786L201.702 24.918C202.011 24.825 202.326 24.7538 202.645 24.7049C202.962 24.6567 203.281 24.631 203.602 24.628C203.759 24.628 203.92 24.628 204.077 24.649H204.311L204.545 24.6874C205.16 24.7712 205.76 24.9417 206.327 25.1939C206.874 25.4462 207.388 25.7679 207.853 26.1511C208.744 26.9029 209.422 27.8749 209.82 28.9702C210.205 29.9953 210.317 31.1027 210.145 32.1841L210.082 32.5718C210.058 32.6976 210.03 32.8234 210.005 32.9491L209.848 33.6967C209.743 34.1893 209.642 34.6713 209.544 35.1464C209.146 37.0398 208.779 38.783 208.451 40.3515C207.787 43.4955 207.27 45.9408 206.928 47.5792L206.91 47.5548L209.006 47.9984L209.516 48.1102L209.684 48.1486L209.52 48.1172L209.013 48.0194L206.917 47.5932V47.5722L208.405 40.341C208.73 38.769 209.104 37.0258 209.485 35.129C209.582 34.6574 209.684 34.1718 209.785 33.6792C209.834 33.4347 209.886 33.1832 209.939 32.9352C209.967 32.8094 209.991 32.6836 210.019 32.5544C210.047 32.4251 210.058 32.2994 210.079 32.1736C210.246 31.1083 210.134 30.0178 209.754 29.0086C209.36 27.9313 208.69 26.9761 207.811 26.2384C207.351 25.8617 206.843 25.5459 206.302 25.2987C205.746 25.0535 205.158 24.8865 204.556 24.8027L204.325 24.7677H204.091C203.937 24.7677 203.784 24.7468 203.626 24.7677C202.994 24.7749 202.366 24.8713 201.761 25.0542L201.307 25.2149C201.156 25.2715 201.009 25.3368 200.867 25.4105C199.669 25.9833 198.674 26.9084 198.016 28.062C197.693 28.6572 197.457 29.2961 197.317 29.9588C197.178 30.6365 197.036 31.3189 196.891 32.0059C196.605 33.3823 196.314 34.7796 196.018 36.1979L194.198 44.9313V44.9976H194.131L191.372 44.4212H191.309V44.3549C191.417 43.8344 191.525 43.3069 191.637 42.7794C192.462 38.8284 193.265 34.9683 194.044 31.2514C194.243 30.3186 194.393 29.3929 194.666 28.4846C194.95 27.5968 195.355 26.7527 195.871 25.9764C196.893 24.4752 198.327 23.301 200 22.5949C201.588 21.9216 203.332 21.7004 205.038 21.9556C205.244 21.9905 205.45 22.015 205.652 22.0569L206.351 22.2386L206.725 22.3573L207.284 22.5669L207.542 22.6752C208.226 22.985 208.87 23.3755 209.46 23.8385C209.766 24.0757 210.058 24.3312 210.334 24.6036C210.444 24.7235 210.549 24.8482 210.648 24.9773C210.77 25.1241 210.906 25.2568 211.015 25.4105C211.245 25.7062 211.457 26.0154 211.651 26.3362L211.93 26.8113C212.014 26.9755 212.084 27.1607 212.164 27.3074C212.753 28.5745 213.046 29.9591 213.02 31.3562C213.02 32.6906 212.639 33.9168 212.419 35.087C212.199 36.2573 211.94 37.3577 211.72 38.3882C211.287 40.4458 210.91 42.2309 210.606 43.6667C210.302 45.1024 210.061 46.2343 209.907 46.9958L209.722 47.8587C209.684 48.0543 209.659 48.1486 209.659 48.1486Z" fill="#263238"/>
<path d="M190.104 33.867L214.758 39.004C215.097 39.0747 215.394 39.2772 215.584 39.5671C215.774 39.8569 215.841 40.2103 215.77 40.5496L211.875 59.2426C211.811 59.551 211.627 59.8212 211.364 59.9939C211.1 60.1665 210.779 60.2274 210.47 60.1631L185.7 55.0019L190.104 33.867Z" fill="#455A64"/>
<g opacity="0.3">
<path d="M190.117 33.8869L214.641 38.9968C215.015 39.0747 215.342 39.2978 215.551 39.6171C215.76 39.9364 215.834 40.3257 215.756 40.6994L211.916 59.1325C211.844 59.4754 211.639 59.7758 211.346 59.9677C211.053 60.1597 210.696 60.2273 210.353 60.1559L185.713 55.0217L190.117 33.8869Z" fill="black"/>
</g>
<path d="M190.314 33.9115L211.579 38.3424C211.947 38.4191 212.27 38.639 212.476 38.9536C212.682 39.2682 212.755 39.6519 212.678 40.0201L208.918 58.0669C208.823 58.5204 208.553 58.9178 208.165 59.1716C207.778 59.4255 207.305 59.515 206.852 59.4205L185.97 55.0695C185.781 55.0302 185.602 54.9541 185.443 54.8456C185.284 54.7371 185.148 54.5983 185.042 54.4372C184.936 54.276 184.864 54.0956 184.828 53.9063C184.792 53.717 184.794 53.5225 184.833 53.3338L188.65 35.0135C188.726 34.6476 188.944 34.3266 189.256 34.1203C189.567 33.9139 189.948 33.8389 190.314 33.9115Z" fill="#455A64"/>
<g opacity="0.3">
<path d="M202.477 45.5391C202.56 45.1441 202.562 44.7365 202.484 44.3406C202.406 43.9447 202.249 43.5684 202.023 43.2342C201.797 42.8999 201.506 42.6145 201.168 42.3947C200.829 42.175 200.45 42.0254 200.053 41.9549C199.286 41.8286 198.5 41.9993 197.855 42.4322C197.21 42.8651 196.754 43.5277 196.58 44.285C196.443 44.929 196.52 45.6005 196.801 46.1962C197.082 46.7919 197.55 47.279 198.135 47.5827L195.358 51.2542L200.426 52.407L199.728 47.918C200.383 47.8764 201.007 47.6213 201.503 47.1916C202 46.762 202.342 46.1816 202.477 45.5391Z" fill="black"/>
</g>
<path d="M209.003 57.7972C208.968 57.7972 209.722 54.1082 210.686 49.5739C211.651 45.0395 212.465 41.3646 212.499 41.3715C212.534 41.3785 211.78 45.064 210.816 49.6053C209.852 54.1467 209.038 57.8042 209.003 57.7972Z" fill="#263238"/>
<path d="M207.284 38.1262C207.284 38.1612 204.025 37.5568 200.021 36.7778C196.018 35.9988 192.773 35.3386 192.78 35.3036C192.787 35.2687 196.039 35.8695 200.046 36.6486C204.053 37.4276 207.291 38.0773 207.284 38.1262Z" fill="white"/>
<path d="M196.151 45.8779C196.151 45.8779 196.109 45.8081 196.067 45.6683C196.007 45.4718 195.969 45.269 195.955 45.064C195.9 44.3794 196.052 43.6941 196.392 43.0973C196.737 42.5041 197.252 42.0274 197.869 41.7279C198.055 41.6389 198.249 41.5687 198.449 41.5183C198.521 41.4957 198.597 41.4851 198.673 41.4868C198.673 41.5113 198.362 41.5742 197.911 41.8117C197.325 42.1204 196.839 42.5895 196.509 43.1641C196.179 43.7387 196.02 44.3952 196.049 45.057C196.067 45.567 196.175 45.871 196.151 45.8779Z" fill="white"/>
<path d="M197.024 47.5093C196.999 47.5373 196.839 47.429 196.675 47.2683C196.51 47.1076 196.385 46.9574 196.409 46.919C196.434 46.8805 196.594 47.0028 196.758 47.16C196.923 47.3172 197.048 47.5093 197.024 47.5093Z" fill="white"/>
<path d="M204.482 22.6158C204.482 22.6158 204.301 22.6158 203.972 22.5809C203.507 22.5518 203.039 22.56 202.575 22.6054C201.046 22.7435 199.588 23.313 198.37 24.2474C197.153 25.1819 196.225 26.4429 195.696 27.8838C195.534 28.3178 195.407 28.764 195.316 29.2182C195.253 29.5396 195.225 29.7213 195.214 29.7213C195.209 29.6772 195.209 29.6326 195.214 29.5885C195.214 29.5012 195.214 29.372 195.26 29.2078C195.334 28.7462 195.451 28.2925 195.609 27.8524C196.123 26.3797 197.056 25.0895 198.294 24.1404C199.531 23.1914 201.019 22.625 202.575 22.511C203.04 22.4736 203.508 22.4806 203.972 22.532C204.136 22.532 204.262 22.5739 204.349 22.5844C204.395 22.5885 204.44 22.5991 204.482 22.6158Z" fill="white"/>
<path d="M194.631 31.978C194.622 31.7131 194.658 31.4487 194.736 31.1955C194.77 30.9341 194.848 30.6802 194.966 30.4444C194.977 30.7079 194.943 30.9714 194.865 31.2234C194.83 31.4864 194.751 31.7416 194.631 31.978Z" fill="white"/>
<path d="M21.1066 144.484L14.8291 153.008L25.3999 160.875C26.0986 159.827 22.1267 153.721 22.1267 153.721L26.3746 148.425L21.1066 144.484Z" fill="#455A64"/>
<path d="M19.2134 150.835C19.0891 150.79 18.9524 150.792 18.8298 150.842C18.7072 150.892 18.6074 150.985 18.5497 151.104C18.5006 151.227 18.5004 151.365 18.5491 151.488C18.5977 151.611 18.6917 151.711 18.8117 151.768C18.9434 151.814 19.0876 151.81 19.2166 151.757C19.3456 151.703 19.4502 151.604 19.5104 151.478C19.5489 151.344 19.5341 151.2 19.469 151.077C19.4038 150.954 19.2934 150.861 19.161 150.818" fill="white"/>
<path d="M14.8152 153.029L15.4824 152.114L25.3581 160.065C25.3581 160.065 25.6725 160.623 25.3581 160.913L14.8152 153.029Z" fill="#263238"/>
<path d="M22.3572 153.797C22.3188 153.85 22.0428 153.682 21.6586 153.658C21.2743 153.633 20.9844 153.752 20.9599 153.696C20.9355 153.64 21.2289 153.399 21.683 153.434C22.1372 153.469 22.3852 153.759 22.3572 153.797Z" fill="#263238"/>
<path d="M23.1083 155.083C23.0804 155.142 22.7939 155.062 22.4551 155.149C22.1162 155.237 21.8962 155.432 21.8438 155.39C21.7914 155.349 21.98 155.041 22.4027 154.933C22.8254 154.825 23.1433 155.034 23.1083 155.083Z" fill="#263238"/>
<path d="M22.7486 156.879C22.6927 156.854 22.815 156.529 23.1573 156.358C23.4997 156.187 23.8245 156.243 23.8141 156.302C23.8036 156.362 23.5416 156.4 23.2656 156.557C22.9896 156.714 22.8045 156.91 22.7486 156.879Z" fill="#263238"/>
<path d="M23.1747 152.484C23.1153 152.515 22.9336 152.267 22.6262 152.072C22.3188 151.876 22.0253 151.796 22.0288 151.722C22.0323 151.649 22.3782 151.635 22.7485 151.873C23.1188 152.11 23.2305 152.463 23.1747 152.484Z" fill="#263238"/>
<path d="M46.6638 108.803C46.8525 109.872 47.1529 118.965 47.345 123.762C47.5372 128.558 47.0586 130.916 46.5101 131.992C45.9617 133.068 25.2777 148.309 23.7022 151.96L18.4622 147.737C18.4622 147.737 26.1475 133.941 29.4242 131.433C32.701 128.925 39.0065 126.623 39.0065 126.623L37.2144 100.356L45.8045 99.8884L46.6638 108.803Z" fill="#263238"/>
<path d="M27.4399 152.914L27.3491 163.488L40.5225 163.67C40.4631 162.412 33.6825 159.789 33.6825 159.789L34.0319 153.008L27.4399 152.914Z" fill="#455A64"/>
<path d="M29.6166 159.177C29.4894 159.214 29.3803 159.296 29.3101 159.408C29.2399 159.521 29.2134 159.655 29.2358 159.785C29.2682 159.914 29.3484 160.025 29.4601 160.096C29.5717 160.168 29.7064 160.194 29.8366 160.169C29.9709 160.129 30.0857 160.041 30.1592 159.922C30.2326 159.803 30.2596 159.661 30.2349 159.523C30.1881 159.392 30.0923 159.285 29.9677 159.224C29.8432 159.163 29.6997 159.152 29.5677 159.195" fill="white"/>
<path d="M27.3457 163.526V162.391L40.009 163.048C40.009 163.048 40.5889 163.317 40.5156 163.729L27.3457 163.526Z" fill="#263238"/>
<path d="M33.8852 159.74C33.8852 159.806 33.5604 159.83 33.2425 160.033C32.9246 160.236 32.7499 160.501 32.6905 160.477C32.6311 160.452 32.7324 160.079 33.1237 159.841C33.515 159.603 33.9132 159.68 33.8852 159.74Z" fill="#263238"/>
<path d="M35.2826 160.344C35.2826 160.407 35.0136 160.512 34.7935 160.781C34.5734 161.05 34.5035 161.34 34.4442 161.333C34.3848 161.326 34.3429 160.966 34.6258 160.634C34.9088 160.302 35.2826 160.271 35.2826 160.344Z" fill="#263238"/>
<path d="M36.0338 161.996C35.9744 161.996 35.8906 161.685 36.0582 161.336C36.2259 160.987 36.5333 160.851 36.5578 160.903C36.5822 160.955 36.3971 161.144 36.2609 161.434C36.1246 161.724 36.0967 161.989 36.0338 161.996Z" fill="#263238"/>
<path d="M33.8014 158.185C33.7734 158.245 33.48 158.15 33.1027 158.185C32.7254 158.22 32.453 158.314 32.4041 158.258C32.3551 158.203 32.6451 157.979 33.0748 157.962C33.5045 157.944 33.8328 158.136 33.8014 158.185Z" fill="#263238"/>
<path d="M47.6141 98.8019C47.6141 99.4203 48.6167 115.074 43.499 126.399C43.499 126.399 41.7278 129.942 41.403 131.489C41.0781 133.037 34.4582 158.706 34.4582 158.706L26.8078 158.426C26.8078 158.426 25.5851 145.567 26.8078 138.123C28.0305 130.679 30.3011 131.552 30.3011 126.745C30.3011 121.938 29.1588 111.972 29.1588 111.972C29.1588 111.972 27.489 109.251 26.9196 103.972C26.455 99.6858 28.4741 95.092 28.4741 95.092L30.4688 91.5603L47.3451 90.6765L47.6141 98.8019Z" fill="#263238"/>
<path d="M47.6142 98.8019C47.6142 98.8019 47.6142 98.6203 47.6142 98.2675C47.6142 97.9146 47.5933 97.3906 47.5793 96.7025C47.5478 95.3226 47.4954 93.2895 47.4326 90.6625V90.6241H47.3906L30.5144 91.4834H30.4794L30.4585 91.5148C29.8401 92.6118 29.1589 93.81 28.4603 95.0466C27.9406 96.3001 27.5349 97.5979 27.2481 98.9242C26.9312 100.321 26.7892 101.751 26.8254 103.183C26.9317 104.677 27.1655 106.161 27.5241 107.616C27.87 109.143 28.4137 110.62 29.1415 112.007V111.972C29.4314 114.578 29.7004 117.278 29.9275 120.059C30.0393 121.456 30.1371 122.854 30.2069 124.289C30.2419 124.988 30.2698 125.722 30.2733 126.445C30.2733 126.794 30.2733 127.168 30.2524 127.528C30.2275 127.888 30.1832 128.248 30.1196 128.604C29.9766 129.321 29.7232 130.011 29.3685 130.651C29.0192 131.304 28.6699 131.95 28.3205 132.631C27.6879 134.014 27.2268 135.469 26.9477 136.963C26.3398 139.967 26.2176 143.09 26.1826 146.238C26.1826 150.391 26.3782 154.472 26.7206 158.416V158.5H26.8009L34.4513 158.779H34.5247L34.5422 158.706C36.7604 150.109 38.8285 142.074 40.652 134.85L41.3122 132.177C41.4275 131.734 41.5009 131.293 41.6371 130.874C41.7734 130.455 41.9271 130.039 42.0878 129.634C42.4161 128.824 42.7864 128.038 43.1358 127.273L43.4082 126.703C43.505 126.517 43.5913 126.326 43.6667 126.13C43.8239 125.743 43.9811 125.362 44.1383 124.981C45.2247 122.164 46.0332 119.247 46.5522 116.272C47.3004 112.034 47.6861 107.741 47.705 103.438C47.726 100.426 47.6037 98.7915 47.6037 98.7915C47.6037 98.7915 47.6037 98.8928 47.6037 99.0919C47.6037 99.291 47.6037 99.5949 47.6247 99.9862C47.6457 100.772 47.6596 101.932 47.6247 103.438C47.5924 107.737 47.2033 112.026 46.4614 116.262C45.9304 119.227 45.1114 122.133 44.0161 124.939L43.548 126.081C43.4711 126.277 43.3838 126.462 43.2895 126.651C43.1952 126.839 43.1043 127.032 43.0135 127.224C42.6642 127.989 42.2939 128.775 41.9655 129.589C41.8013 129.997 41.6441 130.413 41.5079 130.839C41.3716 131.265 41.2913 131.716 41.1795 132.149C40.9594 133.03 40.7393 133.917 40.5123 134.822C38.6573 142.039 36.5928 150.074 34.3815 158.671L34.4723 158.604L26.8219 158.321L26.9127 158.405C26.5634 154.468 26.3608 150.391 26.3748 146.245C26.4097 143.101 26.532 139.992 27.1363 137.009C27.4146 135.528 27.8709 134.086 28.4952 132.715C28.8096 132.041 29.1939 131.402 29.5432 130.738C29.8956 130.081 30.1453 129.374 30.2838 128.642C30.35 128.278 30.3955 127.911 30.42 127.542C30.42 127.192 30.455 126.808 30.441 126.448C30.441 125.722 30.4096 124.998 30.3746 124.282C30.3048 122.85 30.2034 121.439 30.0882 120.048C29.8553 117.254 29.5909 114.556 29.2952 111.954V111.933C28.5672 110.564 28.0211 109.105 27.6708 107.595C27.3142 106.15 27.0805 104.677 26.9721 103.193C26.9345 101.775 27.073 100.357 27.3843 98.9731C27.6658 97.66 28.0621 96.3742 28.5686 95.1305L30.5598 91.5952L30.5039 91.6301L47.3802 90.7184L47.3348 90.6799C47.4186 93.3034 47.4815 95.3366 47.5234 96.7164C47.5478 97.4151 47.5653 97.9251 47.5793 98.2814C47.5933 98.6378 47.6142 98.8019 47.6142 98.8019Z" fill="#455A64"/>
<path d="M42.1262 66.7471C42.1262 66.7471 37.5848 65.9437 38.0075 71.788C38.273 75.2813 39.3 81.2759 39.8695 85.1011C40.0651 86.4251 40.4983 88.7936 42.2484 90.1839L54.7895 98.8613L58.7474 94.1279L47.5478 83.4627L45.8011 72.9129L42.1262 66.7471Z" fill="#455A64"/>
<path d="M42.6606 45.6823C43.3804 46.262 43.9499 47.0065 44.3208 47.853C44.6918 48.6995 44.8532 49.6229 44.7915 50.545C44.7216 51.4393 44.4736 52.4559 45.057 53.1371C45.6404 53.8183 46.7582 53.7938 47.3102 54.4855C47.9564 55.303 47.415 56.5186 47.6595 57.5352C47.7842 58.01 48.0736 58.425 48.4762 58.706C48.8788 58.9869 49.3681 59.1155 49.8568 59.0688C48.7104 60.0069 47.3277 60.6112 45.8604 60.8154L44.7146 59.3867C45.1408 59.8897 45.0255 60.6897 44.6168 61.2032C44.1728 61.6812 43.6003 62.0208 42.968 62.1813C41.463 62.6443 39.8715 62.7538 38.3174 62.5011C36.7632 62.2484 35.2883 61.6405 34.0076 60.7246" fill="#263238"/>
<path d="M25.882 53.5668C26.1056 52.8681 26.4828 52.2498 26.6331 51.5476C26.9544 50.035 26.2174 48.3303 26.951 46.9679C27.475 46.0002 28.5858 45.5251 29.6408 45.2002C30.6958 44.8754 31.8207 44.6029 32.6067 43.8309C33.1796 43.2649 33.5079 42.4824 34.0808 41.9165C34.8983 41.1061 36.107 40.8301 37.2528 40.7602C38.436 40.6459 39.6286 40.8396 40.7147 41.3226C41.254 41.5687 41.7279 41.9382 42.0981 42.4012C42.4682 42.8642 42.7243 43.4078 42.8456 43.9881C42.9364 44.554 42.8666 45.1513 43.0482 45.6998C43.2439 46.3006 43.7155 46.7688 44.0089 47.3312C44.3028 47.9352 44.3878 48.6197 44.2506 49.2772C44.1134 49.9348 43.7618 50.5282 43.2508 50.9642L35.1533 61.4233C33.452 62.0661 29.3299 61.2905 28.0164 60.026C26.7029 58.7614 25.3196 55.296 25.882 53.5668Z" fill="#263238"/>
<path d="M43.0378 49.6368C42.6885 47.2613 40.8964 44.4562 38.5384 44.8893L31.2583 47.3347C30.5597 47.4674 31.0557 48.6377 31.1256 49.3608L32.7081 65.7795C32.7081 65.7795 31.7229 66.4781 31.3736 66.3454C31.3537 66.3384 31.3322 66.3379 31.3119 66.3437C31.2917 66.3496 31.2738 66.3617 31.2607 66.3782C31.2476 66.3947 31.2401 66.4149 31.239 66.436C31.2379 66.457 31.2435 66.4778 31.2548 66.4956C32.1386 67.7707 36.2573 73.3146 40.5226 71.6133C41.4728 71.2326 40.4213 68.2388 40.5226 67.1314L40.3969 64.2983C40.3026 62.8521 40.2572 62.2582 40.2572 62.2722C40.2572 62.2861 43.2684 61.5316 43.5933 57.5038C43.7575 55.5091 43.4081 52.2742 43.0378 49.6368Z" fill="#FFBF9D"/>
<path d="M42.5312 53.2908C42.542 53.4238 42.5007 53.5557 42.4159 53.6587C42.3312 53.7618 42.2096 53.8278 42.0771 53.8427C42.0125 53.8531 41.9465 53.8504 41.883 53.8348C41.8195 53.8192 41.7597 53.7911 41.7073 53.752C41.6548 53.7129 41.6108 53.6637 41.5777 53.6073C41.5446 53.5509 41.5232 53.4884 41.5146 53.4235C41.5038 53.2906 41.5452 53.1586 41.6299 53.0556C41.7147 52.9526 41.8362 52.8866 41.9688 52.8716C42.0333 52.8612 42.0993 52.8639 42.1629 52.8795C42.2264 52.8951 42.2861 52.9233 42.3386 52.9624C42.391 53.0014 42.4351 53.0506 42.4682 53.1071C42.5012 53.1635 42.5227 53.226 42.5312 53.2908Z" fill="#263238"/>
<path d="M37.5707 53.6017C37.5825 53.7343 37.5419 53.8663 37.4577 53.9694C37.3735 54.0726 37.2523 54.1387 37.12 54.1537C37.0555 54.1635 36.9897 54.1605 36.9264 54.1447C36.863 54.1289 36.8035 54.1007 36.7511 54.0617C36.6988 54.0227 36.6547 53.9737 36.6215 53.9175C36.5883 53.8613 36.5666 53.7991 36.5576 53.7345C36.5468 53.6015 36.5881 53.4695 36.6729 53.3665C36.7576 53.2635 36.8792 53.1975 37.0117 53.1825C37.0761 53.1722 37.1419 53.1749 37.2052 53.1905C37.2685 53.2061 37.328 53.2343 37.3802 53.2735C37.4324 53.3126 37.4761 53.3618 37.5088 53.4182C37.5416 53.4746 37.5626 53.537 37.5707 53.6017Z" fill="#263238"/>
<path d="M42.7129 51.607C42.657 51.7013 42.1819 51.4009 41.588 51.4882C40.9942 51.5756 40.6134 51.9808 40.54 51.9074C40.4667 51.8341 40.54 51.7118 40.7112 51.5267C40.9262 51.2854 41.22 51.1286 41.5401 51.0844C41.8603 51.0402 42.1856 51.1116 42.4579 51.2856C42.6535 51.4219 42.7408 51.5651 42.7129 51.607Z" fill="#263238"/>
<path d="M37.3786 52.0507C37.3088 52.138 36.8441 51.7992 36.2049 51.8271C35.5656 51.855 35.1115 52.2149 35.0381 52.1345C34.9647 52.0542 35.0695 51.9459 35.2687 51.7852C35.53 51.5694 35.8556 51.4466 36.1944 51.4358C36.5315 51.4226 36.8634 51.5222 37.1376 51.7188C37.3367 51.862 37.4101 52.0088 37.3786 52.0507Z" fill="#263238"/>
<path d="M39.3803 55.813C39.6624 55.6978 39.9584 55.6203 40.2606 55.5824C40.3969 55.558 40.5296 55.5195 40.5436 55.4217C40.5454 55.2757 40.5014 55.1327 40.4178 55.013C40.2606 54.6846 40.0964 54.3388 39.9218 53.965C39.2231 52.4873 38.7166 51.2716 38.776 51.2437C38.8354 51.2158 39.4467 52.3895 40.1384 53.8637C40.3061 54.2305 40.4667 54.5624 40.617 54.9117C40.7191 55.0738 40.76 55.2671 40.7322 55.4567C40.7162 55.5078 40.6887 55.5545 40.6517 55.5933C40.6148 55.632 40.5694 55.6618 40.5191 55.6802C40.4434 55.7061 40.3648 55.7226 40.2851 55.7291C39.9879 55.7928 39.6842 55.8209 39.3803 55.813Z" fill="#263238"/>
<path d="M40.2572 62.2791C38.3864 62.4509 36.5048 62.1002 34.8215 61.2661C34.8215 61.2661 36.3761 63.9559 40.327 63.2782L40.2572 62.2791Z" fill="#FF9A6C"/>
<path d="M37.7069 57.4129C37.7692 57.2749 37.8654 57.1547 37.9864 57.0636C38.1345 56.9932 38.3027 56.9771 38.4615 57.0182C38.6974 57.0526 38.9157 57.163 39.0833 57.3326C39.1656 57.4182 39.2235 57.5242 39.2511 57.6396C39.2788 57.7551 39.2751 57.8758 39.2405 57.9893C39.1776 58.2199 38.8353 58.3387 38.6012 58.3876C38.3588 58.423 38.1115 58.3723 37.9026 58.2444C37.8117 58.203 37.7323 58.1399 37.6714 58.0608C37.6105 57.9816 37.5699 57.8887 37.5532 57.7902C37.5687 57.6527 37.6219 57.5221 37.7069 57.4129Z" fill="#FF9A6C"/>
<path d="M37.8188 56.6409C37.9061 56.6409 37.955 57.2243 38.4965 57.6086C39.038 57.9928 39.6668 57.8775 39.6772 57.9579C39.6877 58.0382 39.548 58.0836 39.279 58.1116C38.93 58.1436 38.5809 58.0507 38.2939 57.8496C38.0169 57.6585 37.8262 57.3661 37.7629 57.0356C37.728 56.7946 37.7769 56.6409 37.8188 56.6409Z" fill="#263238"/>
<path d="M37.3296 49.9023C37.2842 50.0525 36.7323 50.0245 36.093 50.1538C35.4537 50.283 34.9472 50.5031 34.8529 50.3669C34.811 50.3075 34.8878 50.1608 35.0869 50.0001C35.3537 49.8013 35.6624 49.6665 35.9895 49.6059C36.3165 49.5454 36.6531 49.5607 36.9733 49.6507C37.2179 49.7206 37.3471 49.8289 37.3296 49.9023Z" fill="#263238"/>
<path d="M42.3741 49.6053C42.2728 49.7381 41.8326 49.6438 41.3261 49.6787C40.8195 49.7136 40.3724 49.8359 40.2606 49.7136C40.2117 49.6542 40.2606 49.5215 40.4527 49.3888C40.7054 49.2223 40.9992 49.1292 41.3016 49.1198C41.6021 49.0981 41.9026 49.1623 42.168 49.3049C42.3496 49.4097 42.4195 49.5355 42.3741 49.6053Z" fill="#263238"/>
<path d="M29.6479 47.9076C29.9973 47.3416 30.675 47.0517 31.3038 46.8107C34.0194 45.7621 36.8503 45.0409 39.7367 44.6623C40.086 45.2526 39.7646 46.0596 39.2232 46.4893C38.6817 46.919 37.983 47.0901 37.3368 47.3312C36.6905 47.5722 36.0233 47.9495 35.7543 48.5888C35.4853 49.228 35.7124 50.0699 35.4608 50.7616C35.0312 51.9563 33.3648 52.3406 32.9491 53.5318C32.6277 54.4366 33.1517 55.3973 33.2985 56.3475C33.3656 56.8297 33.329 57.3207 33.1913 57.7877C33.0535 58.2547 32.8178 58.6869 32.4997 59.0556C32.1817 59.4242 31.7886 59.7208 31.3469 59.9254C30.9051 60.1301 30.4247 60.2382 29.9379 60.2425C29.7423 56.8214 29.5455 53.4026 29.3475 49.9861C29.2881 49.2735 29.2602 48.5049 29.6479 47.9076Z" fill="#263238"/>
<path d="M22.7591 56.5466C23.3005 56.061 23.9782 55.6418 24.1913 54.9501C24.5057 53.9406 23.6953 52.7563 24.2193 51.8376C24.6944 50.9992 26.0952 51.0446 26.5388 50.1887C26.8882 49.518 26.4864 48.9276 26.6157 48.3407C26.745 47.7539 27.5834 47.2403 28.1772 47.3102L32.8373 54.0768C33.2705 56.3475 33.7072 57.5701 33.2216 58.8836C32.9004 59.5909 32.6579 60.3312 32.4985 61.0914C32.3937 61.8599 32.5928 62.7298 33.2181 63.1874C30.4234 63.4075 27.8104 61.9473 25.393 60.5325L22.8464 59.0373C22.5676 58.9039 22.3272 58.702 22.1477 58.4505C21.767 57.8286 22.2211 57.0287 22.7591 56.5466Z" fill="#263238"/>
<path d="M25.3337 59.8443C25.4312 59.8756 25.5321 59.8956 25.6342 59.9037C25.9256 59.9315 26.2196 59.9103 26.504 59.8408C26.958 59.7321 27.3758 59.5069 27.7162 59.1875C28.1659 58.7548 28.448 58.1769 28.5127 57.5562C28.5547 57.1962 28.5238 56.8315 28.4218 56.4837C28.2966 56.1131 28.1227 55.7607 27.9048 55.4357C27.6738 55.1059 27.4936 54.7432 27.3704 54.3598C27.3049 54.1638 27.2844 53.9555 27.3104 53.7505C27.3364 53.5455 27.4082 53.349 27.5206 53.1755C27.7721 52.8262 28.2437 52.7528 28.6838 52.5782C28.9216 52.4927 29.1284 52.3383 29.2777 52.1345C29.4152 51.9167 29.4823 51.6617 29.4698 51.4044C29.4094 50.9111 29.303 50.4246 29.152 49.9512C29.0983 49.7214 29.0983 49.4823 29.152 49.2525C29.2135 49.0208 29.356 48.8188 29.5537 48.6831C29.9788 48.438 30.4604 48.308 30.951 48.3058C31.4588 48.289 31.954 48.1436 32.3903 47.8831C32.8148 47.6244 33.1593 47.2532 33.3859 46.8107C33.5718 46.3858 33.6897 45.9343 33.7352 45.4727C33.7837 45.0455 33.875 44.6241 34.0077 44.2151C34.1548 43.8432 34.3786 43.5063 34.6644 43.2265C35.1917 42.7262 35.8723 42.4185 36.5962 42.3532C37.1998 42.3016 37.8056 42.4227 38.3429 42.7025C38.747 42.9093 39.1113 43.1861 39.4189 43.52C39.6759 43.8114 39.8986 44.1314 40.0826 44.4736C40.0826 44.4736 40.0826 44.4492 40.0581 44.4003C40.0295 44.3309 39.9968 44.2633 39.9603 44.1977C39.8269 43.9441 39.6639 43.7072 39.4748 43.492C39.1675 43.1447 38.8007 42.8549 38.3918 42.6361C37.8489 42.3377 37.2319 42.2007 36.6137 42.2414C35.8551 42.2969 35.1385 42.6114 34.5841 43.1322C34.2786 43.4273 34.0403 43.7847 33.8854 44.1802C33.7469 44.5968 33.6509 45.0263 33.599 45.4622C33.5505 45.9086 33.4326 46.3447 33.2496 46.7548C33.0366 47.1671 32.7154 47.5137 32.3204 47.7574C31.9042 48.0015 31.4333 48.1372 30.951 48.1521C30.4254 48.151 29.909 48.2909 29.4559 48.5573C29.2292 48.7116 29.0655 48.9422 28.9948 49.2071C28.9335 49.4655 28.9335 49.7347 28.9948 49.9931C29.1427 50.4576 29.2479 50.9347 29.3092 51.4184C29.3236 51.643 29.2674 51.8665 29.1485 52.0577C29.0135 52.2349 28.8304 52.3695 28.621 52.4454C28.4149 52.5328 28.1913 52.5921 27.9747 52.683C27.7492 52.7681 27.5503 52.9116 27.3983 53.0987C27.2749 53.2916 27.1959 53.5094 27.1669 53.7366C27.1379 53.9637 27.1597 54.1945 27.2306 54.4122C27.3614 54.8079 27.5498 55.1822 27.7896 55.523C28.0023 55.8319 28.1727 56.1679 28.2961 56.5221C28.3951 56.8525 28.4283 57.1991 28.3939 57.5422C28.3366 58.1396 28.0722 58.6982 27.6463 59.1212C27.3204 59.4368 26.9185 59.663 26.4796 59.7779C26.1058 59.8755 25.7163 59.8981 25.3337 59.8443Z" fill="#455A64"/>
<path d="M21.6097 55.034C21.564 55.1025 21.5331 55.1799 21.5189 55.261C21.4724 55.5006 21.5146 55.7489 21.6377 55.9597C21.7229 56.1102 21.8426 56.2383 21.987 56.3335C22.167 56.4424 22.3741 56.4981 22.5844 56.4942C22.8399 56.4886 23.089 56.413 23.3046 56.2756C23.5202 56.1383 23.694 55.9444 23.807 55.7152C23.9399 55.4521 24.0082 55.161 24.0061 54.8663C23.9977 54.5495 23.9314 54.237 23.8105 53.944C23.5904 53.3397 23.1852 52.7493 23.1782 52.0437C23.165 51.8699 23.187 51.6953 23.2428 51.5302C23.2986 51.3652 23.3872 51.2131 23.5031 51.083C23.7863 50.8491 24.1503 50.7362 24.5162 50.7686C24.9233 50.7984 25.3325 50.7558 25.7249 50.6428C25.9304 50.5592 26.1041 50.4124 26.2209 50.2237C26.3334 50.0361 26.4037 49.8263 26.427 49.6088C26.4472 49.1916 26.4131 48.7736 26.3257 48.3652C26.2632 47.9819 26.2858 47.5895 26.3921 47.2159C26.5901 46.5028 27.0539 45.8927 27.6881 45.5111C28.2901 45.2045 28.9584 45.0509 29.6339 45.064C30.2342 45.0654 30.8309 44.971 31.4015 44.7845C31.8655 44.6143 32.2907 44.353 32.6521 44.016C32.929 43.7603 33.1646 43.4633 33.3508 43.1357C33.5147 42.8639 33.6272 42.5643 33.6827 42.2519C33.5787 42.5468 33.4489 42.832 33.2949 43.1042C32.8548 43.8387 32.1769 44.4008 31.3736 44.6972C30.8077 44.8703 30.2186 44.9551 29.6269 44.9487C28.9318 44.9291 28.2427 45.0828 27.6217 45.3959C26.9548 45.7869 26.4625 46.418 26.2454 47.16C26.1336 47.554 26.1086 47.9676 26.172 48.3722C26.2538 48.7672 26.2878 49.1707 26.2733 49.5739C26.2651 49.7656 26.2043 49.9513 26.0978 50.1108C25.9912 50.2704 25.8429 50.3976 25.669 50.4787C25.2957 50.5846 24.9066 50.6237 24.5197 50.5939C24.1145 50.5585 23.7117 50.684 23.3983 50.9433C23.2703 51.089 23.1734 51.2592 23.1133 51.4436C23.0533 51.6279 23.0314 51.8226 23.049 52.0157C23.0644 52.3784 23.151 52.7345 23.304 53.0637C23.4402 53.3781 23.5904 53.6716 23.7057 53.965C23.8229 54.2432 23.8892 54.5402 23.9013 54.8418C23.9061 55.1173 23.8463 55.3901 23.7267 55.6383C23.6253 55.8525 23.4672 56.0347 23.2695 56.1653C23.0718 56.2959 22.8421 56.3697 22.6053 56.3789C22.4111 56.3859 22.2188 56.3387 22.0499 56.2427C21.9053 56.1583 21.7849 56.0379 21.7005 55.8933C21.5781 55.6989 21.5274 55.4679 21.5573 55.2401C21.5748 55.1143 21.6202 55.0375 21.6097 55.034Z" fill="#263238"/>
<path d="M51.0341 56.7003C51.1172 56.9366 51.1172 57.1941 51.0341 57.4304C50.988 57.566 50.9119 57.6896 50.8115 57.7918C50.7112 57.894 50.589 57.9722 50.4542 58.0208C50.2745 58.0738 50.0836 58.0757 49.9028 58.0263C49.722 57.977 49.5585 57.8783 49.4307 57.7413C49.284 57.58 49.1986 57.3723 49.1896 57.1544C49.1829 56.9169 49.2196 56.6801 49.2979 56.4558C49.4447 55.9842 49.7486 55.4706 49.7032 54.8523C49.6811 54.5388 49.5939 54.2334 49.4471 53.9555C49.3004 53.6776 49.0973 53.4334 48.8508 53.2384C48.5927 53.0318 48.2974 52.8764 47.981 52.7808C47.6577 52.6912 47.3243 52.643 46.9888 52.6375C46.6638 52.6349 46.3398 52.6009 46.0212 52.5362C45.7238 52.4749 45.4578 52.3103 45.2701 52.0716C45.104 51.8266 45.0107 51.5396 45.0011 51.2437C44.9856 50.9554 45.0091 50.6663 45.071 50.3843C45.2243 49.8524 45.3089 49.3029 45.3225 48.7495C45.2944 48.2581 45.1205 47.7862 44.823 47.394C44.5714 47.0829 44.2632 46.8221 43.9147 46.6255C43.6601 46.4748 43.4161 46.3067 43.1846 46.1225C42.9947 45.9599 42.8402 45.7602 42.7305 45.5356C42.7305 45.5356 42.7305 45.5356 42.7305 45.5845C42.7442 45.6318 42.763 45.6774 42.7864 45.7207C42.8735 45.8905 42.992 46.0423 43.1357 46.1679C43.3621 46.365 43.6039 46.5437 43.8588 46.7024C44.1921 46.9006 44.4858 47.1588 44.7252 47.4639C45.0021 47.8398 45.1602 48.29 45.1793 48.7565C45.1586 49.2974 45.0705 49.8337 44.9173 50.3529C44.8497 50.6483 44.8227 50.9515 44.837 51.2542C44.85 51.5802 44.954 51.896 45.1374 52.1659C45.3456 52.4354 45.6427 52.6223 45.9758 52.6934C46.3035 52.7607 46.6368 52.797 46.9714 52.8017C47.2947 52.806 47.6163 52.8506 47.9285 52.9345C48.225 53.0266 48.502 53.1722 48.746 53.3642C48.9756 53.5452 49.1652 53.7718 49.3029 54.0297C49.4406 54.2876 49.5233 54.5713 49.546 54.8628C49.5949 55.4252 49.3154 55.9108 49.1617 56.4173C49.081 56.6603 49.0454 56.9161 49.0569 57.1719C49.0721 57.416 49.1722 57.6471 49.3399 57.8251C49.4834 57.9755 49.6662 58.0824 49.8676 58.1336C50.069 58.1849 50.2808 58.1785 50.4787 58.1151C50.6233 58.059 50.7531 57.9707 50.8585 57.8569C50.9638 57.7431 51.0418 57.6068 51.0865 57.4583C51.1499 57.2763 51.1596 57.0798 51.1145 56.8924C51.0993 56.8241 51.0721 56.7591 51.0341 56.7003Z" fill="#263238"/>
<path d="M47.6945 84.0636V80.2C48.1277 78.0306 47.9216 75.4595 46.912 73.4788C46.1796 72.2021 45.37 70.9713 44.4876 69.7933L40.645 64.8013C38.528 66.3419 35.2128 65.2275 32.3692 64.1935C32.3692 64.1935 29.5746 65.748 28.2541 67.2082C26.8812 68.7453 31.5763 87.9761 31.5763 87.9761C29.4488 92.231 26.7031 96.0108 26.2874 99.8884L48.505 100.744L47.5618 90.5577L47.6945 84.0636Z" fill="#455A64"/>
<path d="M47.387 90.666C47.3649 90.5215 47.3591 90.3751 47.3695 90.2293C47.3695 89.9114 47.3695 89.5306 47.3695 89.0451C47.387 87.9971 47.408 86.6452 47.4324 85.1395C47.4569 83.6339 47.5023 82.2331 47.5512 81.234C47.5756 80.7344 47.6001 80.3292 47.6211 80.0497C47.6235 79.9049 47.6422 79.7607 47.677 79.6201C47.6911 79.7641 47.6911 79.9092 47.677 80.0532C47.677 80.3711 47.677 80.7519 47.677 81.2375C47.6595 82.2855 47.635 83.6374 47.6106 85.143C47.5861 86.6486 47.5442 88.0495 47.4953 89.0486C47.4709 89.5481 47.4464 89.9533 47.4219 90.2328C47.4274 90.3781 47.4157 90.5235 47.387 90.666Z" fill="#263238"/>
<path d="M57.5352 94.1803C57.5352 94.1803 59.7011 94.299 61.0286 95.1374C62.356 95.9758 64.5219 97.2823 65.4127 98.8998C65.8214 99.6438 64.6581 99.801 64.0817 99.3714C63.5053 98.9417 62.6285 98.1242 62.1919 98.0264L61.7552 97.9251C62.1538 98.8274 62.5981 99.7089 63.0861 100.566C63.5368 101.265 63.928 102.425 62.5726 102.477C62.5726 102.477 61.6609 103.665 60.7386 102.784C60.7386 102.784 60.019 103.864 58.8592 102.369C58.8592 102.369 58.1815 103.225 57.902 102.896C57.6226 102.568 56.6968 102.051 56.4279 100.982C56.0242 99.7375 55.5579 98.5144 55.0305 97.3173L57.5352 94.1803Z" fill="#FFBF9D"/>
<path d="M106.026 64.1586C106.267 64.1586 116.185 63.1106 116.185 63.1106C116.185 63.1106 117.027 59.0793 116.981 58.0313C116.936 56.9833 116.23 50.049 116.23 50.049L119.944 48.3023C119.944 48.3023 124.908 65.0424 123.825 66.4327C122.742 67.8231 120.705 69.0702 120.531 69.0772C120.356 69.0842 110.92 73.2692 104.356 71.0928C97.7924 68.9165 106.026 64.1586 106.026 64.1586Z" fill="#FFBF9D"/>
<path d="M97.3347 73.1958C98.7949 74.6455 101.31 75.8507 105.509 74.8027C113.809 72.7277 120.031 70.9601 122.504 69.6326C124.977 68.3051 124.013 62.3735 124.223 62.1045C124.848 61.294 124.16 59.5543 123.269 59.2819C120.73 58.5133 116.31 58.8172 116.087 59.0478C114.784 60.4172 115.972 62.08 115.972 62.08L105.027 63.5158C103.681 63.4527 102.333 63.5382 101.006 63.7708" fill="#455A64"/>
<path d="M101.006 63.7708L101.268 63.7149C101.443 63.6835 101.701 63.638 102.044 63.5961C103.034 63.4714 104.033 63.4294 105.031 63.4704L115.972 62.0032L115.919 62.1254C115.56 61.5967 115.383 60.9649 115.416 60.3264C115.446 59.9961 115.554 59.6777 115.731 59.3971C115.819 59.2562 115.92 59.123 116.031 58.9989C116.075 58.9665 116.123 58.9406 116.174 58.922L116.3 58.8906C116.384 58.8696 116.464 58.8627 116.545 58.8452C117.9 58.6889 119.267 58.6608 120.628 58.7614C121.343 58.8049 122.053 58.903 122.752 59.0548C122.927 59.0932 123.102 59.1456 123.283 59.191C123.47 59.2504 123.64 59.3507 123.783 59.4845C124.061 59.7484 124.272 60.0739 124.401 60.4347C124.54 60.796 124.589 61.1855 124.544 61.57C124.512 61.7701 124.437 61.9608 124.324 62.1289C124.293 62.1639 124.296 62.2582 124.293 62.349V62.6285C124.317 63.3795 124.352 64.1446 124.331 64.9131C124.337 66.0041 124.158 67.0883 123.804 68.12C123.622 68.6369 123.309 69.0978 122.896 69.4579C122.682 69.6252 122.447 69.7637 122.197 69.8702C121.966 69.9924 121.722 70.0867 121.498 70.1985C120.541 70.6072 119.58 70.9426 118.634 71.2465C117.687 71.5504 116.758 71.8439 115.839 72.1129C112.185 73.1609 108.852 74.0098 106.079 74.7049C105.416 74.8801 104.744 75.0189 104.066 75.1206C103.459 75.2053 102.845 75.238 102.232 75.2184C101.248 75.1974 100.276 74.9862 99.3714 74.5966C98.804 74.3462 98.2747 74.017 97.7994 73.6185C97.6319 73.4832 97.4754 73.3348 97.3313 73.1748C97.3313 73.1748 97.492 73.3286 97.8239 73.5906C98.3053 73.9746 98.8365 74.2918 99.4028 74.5338C100.302 74.9049 101.263 75.1028 102.236 75.1171C102.842 75.1317 103.449 75.0943 104.049 75.0054C104.722 74.8991 105.389 74.7569 106.047 74.5792C108.842 73.8805 112.147 73.0211 115.79 71.9522C116.702 71.6832 117.631 71.3967 118.585 71.0823C119.538 70.7679 120.485 70.4361 121.432 70.0343C121.662 69.926 121.903 69.8317 122.13 69.7095C122.364 69.6068 122.583 69.4753 122.784 69.3182C123.174 68.9794 123.469 68.5447 123.64 68.0571C123.984 67.039 124.155 65.9704 124.146 64.8956C124.167 64.1306 124.146 63.3726 124.108 62.618V62.3315C124.108 62.2826 124.108 62.2337 124.108 62.1813C124.105 62.1534 124.105 62.1254 124.108 62.0975C124.116 62.0759 124.125 62.0549 124.136 62.0346L124.153 62.0067C124.251 61.8634 124.316 61.6998 124.342 61.5281C124.383 61.1729 124.336 60.813 124.206 60.4801C124.088 60.1465 123.894 59.845 123.64 59.5998C123.516 59.4837 123.368 59.3966 123.206 59.3447C123.032 59.2993 122.857 59.2504 122.686 59.2085C121.996 59.0589 121.295 58.9619 120.59 58.9186C119.243 58.8156 117.89 58.8413 116.548 58.9954C116.468 58.9954 116.387 59.0164 116.311 59.0373L116.199 59.0618C116.175 59.0713 116.151 59.083 116.129 59.0967C116.024 59.2114 115.929 59.3353 115.846 59.467C115.68 59.724 115.579 60.0179 115.553 60.3229C115.522 60.9233 115.686 61.5174 116.021 62.0171L116.091 62.1254H115.968L105.02 63.5228C104.029 63.4724 103.034 63.5005 102.047 63.6066C101.698 63.6415 101.443 63.68 101.268 63.7044C101.094 63.7289 101.006 63.7708 101.006 63.7708Z" fill="#263238"/>
<path d="M71.3733 75.1479L66.9153 67.1384L151.234 20.2071C152.206 19.6664 153.352 19.5338 154.421 19.8384C155.491 20.143 156.395 20.8598 156.936 21.8313L157.318 22.5181C157.859 23.4895 157.991 24.636 157.687 25.7052C157.382 26.7745 156.665 27.6789 155.694 28.2196L71.375 75.1509L71.3733 75.1479Z" fill="#407BFF"/>
<path d="M142.079 32.7892L131.754 14.2399C131.704 14.1501 131.672 14.0514 131.661 13.9493C131.649 13.8472 131.657 13.7438 131.685 13.645C131.714 13.5462 131.761 13.4538 131.825 13.3733C131.889 13.2928 131.968 13.2256 132.057 13.1756L136.795 10.5389C136.884 10.4889 136.983 10.4571 137.085 10.4453C137.187 10.4335 137.291 10.4419 137.39 10.4701C137.488 10.4982 137.581 10.5456 137.661 10.6094C137.742 10.6732 137.809 10.7523 137.859 10.8421L148.183 29.3914L142.079 32.7892Z" fill="#407BFF"/>
<path d="M121.768 24.1517L129.293 37.6706C129.597 38.2168 130.286 38.4132 130.832 38.1092L134.959 35.8122C135.505 35.5082 135.702 34.819 135.398 34.2728L127.873 20.7538C127.569 20.2076 126.88 20.0113 126.334 20.3153L122.207 22.6122C121.661 22.9162 121.464 23.6055 121.768 24.1517Z" fill="#407BFF"/>
<path d="M128.412 23.3622L133.07 31.7318L142.551 26.4549L137.892 18.0853L128.412 23.3622Z" fill="#407BFF"/>
<path d="M150 20.9111C150.025 20.953 133.477 30.2103 113.048 41.5846C92.6186 52.9589 76.0183 62.1464 76.0183 62.101C76.0183 62.0556 92.5383 52.8017 112.974 41.4239C133.41 30.0462 149.976 20.8657 150 20.9111Z" fill="#263238"/>
<path d="M37.225 90.6205C43.4431 101.799 56.5536 106.341 66.5096 100.804C76.4656 95.2667 79.5048 81.7125 73.2866 70.5479C67.0685 59.3832 53.9615 54.8279 44.002 60.3648C34.0425 65.9017 31.0103 79.4559 37.225 90.6205ZM67.8929 73.5521C72.2491 81.3772 70.1217 90.8686 63.142 94.7497C56.1623 98.6308 46.9783 95.4483 42.6222 87.6163C38.266 79.7842 40.3934 70.2998 47.3696 66.4152C54.3458 62.5307 63.5367 65.7271 67.8929 73.5521Z" fill="#407BFF"/>
<path d="M81.109 59.1417L85.7097 67.4076C86.3214 68.5067 87.7084 68.9018 88.8075 68.29L89.1799 68.0828C90.2791 67.471 90.6741 66.084 90.0624 64.9849L85.4617 56.7191C84.8499 55.6199 83.4629 55.2249 82.3638 55.8366L81.9914 56.0439C80.8923 56.6557 80.4972 58.0426 81.109 59.1417Z" fill="#407BFF"/>
<path d="M89.9447 54.2236L94.5454 62.4894C95.1571 63.5885 96.5441 63.9836 97.6432 63.3718L98.0156 63.1646C99.1147 62.5528 99.5098 61.1658 98.8981 60.0667L94.2974 51.8009C93.6856 50.7017 92.2986 50.3067 91.1995 50.9184L90.8271 51.1257C89.728 51.7375 89.3329 53.1244 89.9447 54.2236Z" fill="#407BFF"/>
<path d="M85.3631 56.592C85.4085 56.5675 86.4739 58.4435 87.749 60.784C89.0241 63.1245 90.0197 65.0319 89.9743 65.0563C89.9289 65.0808 88.8634 63.2084 87.5883 60.8643C86.3133 58.5203 85.3177 56.592 85.3631 56.592Z" fill="#263238"/>
<path d="M81.3074 59.474C81.3528 59.4495 82.3939 61.2416 83.6375 63.4704C84.8811 65.6991 85.8488 67.5331 85.8068 67.5576C85.7649 67.582 84.7204 65.7899 83.4908 63.5787C82.2611 61.3674 81.2655 59.4985 81.3074 59.474Z" fill="#263238"/>
<path d="M94.2537 51.7258C94.2991 51.7013 95.3855 53.5668 96.6816 55.8933C97.9776 58.2199 98.9907 60.1307 98.9452 60.1552C98.8998 60.1797 97.8169 58.3107 96.5209 55.9842C95.2248 53.6576 94.2118 51.7502 94.2537 51.7258Z" fill="#263238"/>
<path d="M89.9883 54.3004C90.0302 54.2759 91.0957 56.1309 92.3603 58.4435C93.6249 60.7561 94.6205 62.6355 94.5751 62.6739C94.5297 62.7123 93.4712 60.8434 92.2031 58.5308C90.935 56.2182 89.9429 54.3248 89.9883 54.3004Z" fill="#263238"/>
<path d="M115.325 41.6999C115.732 41.7478 116.142 41.6426 116.476 41.4048C116.809 41.167 117.042 40.8136 117.129 40.4134C117.217 40.0132 117.152 39.5949 116.947 39.2399C116.743 38.8849 116.414 38.6187 116.024 38.493C116.276 38.235 116.441 37.9043 116.494 37.5477C116.548 37.1911 116.488 36.8266 116.323 36.5059C116.158 36.1853 115.896 35.9246 115.575 35.7609C115.254 35.5971 114.889 35.5386 114.533 35.5936C114.518 35.2389 114.412 34.894 114.224 34.5925C114.037 34.291 113.775 34.0431 113.463 33.8729C113.152 33.7027 112.801 33.616 112.446 33.6213C112.091 33.6265 111.744 33.7235 111.437 33.9028C111.038 33.5762 110.541 33.3925 110.025 33.3811C109.509 33.3698 109.004 33.5312 108.59 33.8399C108.243 33.7736 107.883 33.821 107.565 33.9751C107.247 34.1293 106.986 34.3819 106.823 34.6956C106.659 35.0092 106.601 35.3673 106.657 35.7165C106.713 36.0658 106.88 36.3877 107.134 36.6346" fill="#263238"/>
<path d="M108.237 35.4678H108.587C110.348 35.4693 112.044 36.134 113.338 37.3297C114.631 38.5253 115.427 40.1642 115.566 41.92C115.828 45.305 116.073 49.0464 116.045 50.8629C115.979 54.6357 112.227 55.1947 112.227 55.1947L112.531 59.715L103.403 59.4181L102.645 43.0344C102.323 39.1253 104.325 35.6844 108.237 35.4678Z" fill="#FFBF9D"/>
<path d="M112.258 55.1947C110.512 55.1899 108.804 54.6843 107.336 53.7379C107.336 53.7379 108.545 56.585 112.297 56.2566L112.258 55.1947Z" fill="#FF9A6C"/>
<path d="M113.502 45.4657C113.503 45.6057 113.449 45.7405 113.352 45.8411C113.254 45.9416 113.121 46 112.981 46.0037C112.913 46.0084 112.845 45.9996 112.78 45.9777C112.715 45.9558 112.655 45.9213 112.604 45.8761C112.553 45.831 112.511 45.7761 112.481 45.7146C112.451 45.6532 112.433 45.5864 112.429 45.5181C112.429 45.3781 112.484 45.2434 112.581 45.1425C112.678 45.0415 112.81 44.9821 112.95 44.9767C113.018 44.9719 113.087 44.9809 113.152 45.003C113.217 45.0251 113.277 45.06 113.328 45.1055C113.38 45.151 113.422 45.2063 113.451 45.2682C113.481 45.33 113.498 45.3972 113.502 45.4657Z" fill="#263238"/>
<path d="M114.752 43.768C114.686 43.8379 114.277 43.5374 113.704 43.5374C113.132 43.5374 112.702 43.8239 112.639 43.754C112.576 43.6841 112.677 43.5968 112.863 43.4606C113.113 43.2884 113.411 43.1981 113.715 43.2021C114.015 43.2008 114.308 43.2963 114.55 43.4745C114.725 43.6108 114.784 43.74 114.752 43.768Z" fill="#263238"/>
<path d="M108.293 45.2142C108.296 45.3563 108.243 45.4938 108.144 45.5965C108.046 45.6993 107.911 45.759 107.769 45.7627C107.701 45.7674 107.633 45.7586 107.568 45.7367C107.503 45.7148 107.443 45.6802 107.392 45.6351C107.341 45.5899 107.299 45.535 107.269 45.4736C107.239 45.4121 107.221 45.3453 107.217 45.2771C107.216 45.1368 107.27 45.0017 107.367 44.9005C107.465 44.7993 107.598 44.7402 107.738 44.7356C107.806 44.7304 107.874 44.7386 107.939 44.7599C108.004 44.7811 108.063 44.815 108.115 44.8594C108.167 44.9039 108.209 44.9582 108.24 45.019C108.27 45.0799 108.288 45.1463 108.293 45.2142Z" fill="#263238"/>
<path d="M109.072 43.8588C109.006 43.9287 108.597 43.6282 108.024 43.6282C107.451 43.6282 107.022 43.9147 106.959 43.8448C106.896 43.775 106.997 43.6876 107.182 43.5514C107.433 43.3792 107.731 43.2889 108.035 43.2929C108.335 43.2916 108.628 43.3872 108.87 43.5654C109.044 43.7016 109.104 43.8274 109.072 43.8588Z" fill="#263238"/>
<path d="M111.154 48.1521C111.459 48.0563 111.775 47.9999 112.094 47.9844C112.241 47.9844 112.38 47.9425 112.408 47.8412C112.421 47.6891 112.387 47.5369 112.311 47.4045L111.877 46.2797C111.277 44.6762 110.829 43.3593 110.906 43.3383C110.983 43.3173 111.511 44.5924 112.112 46.1924C112.255 46.5871 112.394 46.9644 112.527 47.3242C112.618 47.5032 112.644 47.7081 112.601 47.9041C112.579 47.9558 112.545 48.0019 112.503 48.0388C112.461 48.0757 112.41 48.1025 112.356 48.1172C112.276 48.1411 112.192 48.1528 112.108 48.1521C111.791 48.1917 111.471 48.1917 111.154 48.1521Z" fill="#263238"/>
<path d="M109.579 41.637C109.502 41.7838 109.01 41.637 108.398 41.6021C107.787 41.5672 107.277 41.6825 107.221 41.5287C107.196 41.4554 107.305 41.3261 107.525 41.2074C107.809 41.0671 108.124 41.0022 108.44 41.0187C108.754 41.0298 109.059 41.1239 109.324 41.2912C109.523 41.4274 109.614 41.5707 109.579 41.637Z" fill="#263238"/>
<path d="M114.787 41.389C114.665 41.5183 114.187 41.389 113.614 41.389C113.041 41.389 112.566 41.4763 112.443 41.3366C112.394 41.2702 112.471 41.1375 112.684 41.0152C112.978 40.8614 113.307 40.7878 113.638 40.8021C113.967 40.8066 114.29 40.8995 114.571 41.0711C114.773 41.1899 114.84 41.3226 114.787 41.389Z" fill="#263238"/>
<path d="M115.21 40.2083C115.21 40.2083 114.225 37.8503 113.09 37.2983C111.717 36.6276 111.123 38.1332 109.813 37.7629C108.503 37.3926 107.193 36.7534 105.852 37.7629C104.384 38.8668 105.069 39.6458 104.971 41.3157C104.587 48.0787 103.343 49.9861 103.005 46.8002C102.966 46.4509 101.998 46.1714 101.859 44.7042C101.677 42.7933 101.611 40.4703 102.044 39.1149C102.393 37.9725 103.06 37.183 104.231 36.3202C106.082 34.9508 108.618 34.9229 110.341 35.108C112.063 35.2931 115.374 37.2599 115.21 40.2083Z" fill="#263238"/>
<path d="M103.242 46.6954C103.238 46.5574 103.206 46.4216 103.148 46.2962C103.09 46.1709 103.008 46.0586 102.905 45.9662C102.803 45.8737 102.682 45.8031 102.552 45.7585C102.421 45.7139 102.283 45.6963 102.145 45.7068C101.446 45.7731 100.66 46.1679 100.702 47.6176C100.776 50.1887 103.343 49.5844 103.347 49.5075C103.35 49.4307 103.284 47.7713 103.242 46.6954Z" fill="#FFBF9D"/>
<path d="M102.756 48.5573C102.756 48.5573 102.714 48.5923 102.638 48.6272C102.533 48.6751 102.415 48.6813 102.306 48.6447C102.136 48.5443 101.996 48.4003 101.901 48.2277C101.806 48.0551 101.759 47.8601 101.764 47.663C101.751 47.4436 101.787 47.224 101.869 47.0203C101.891 46.9397 101.933 46.8658 101.99 46.8049C102.047 46.744 102.118 46.6981 102.197 46.6709C102.249 46.6553 102.304 46.6584 102.353 46.6795C102.402 46.7005 102.442 46.7384 102.466 46.7862C102.501 46.8561 102.487 46.9085 102.501 46.912C102.515 46.9155 102.554 46.8666 102.529 46.7618C102.515 46.698 102.478 46.6419 102.425 46.6046C102.389 46.5786 102.349 46.56 102.306 46.5498C102.264 46.5396 102.22 46.538 102.176 46.5452C102.071 46.5689 101.974 46.6192 101.894 46.6914C101.814 46.7636 101.753 46.8552 101.719 46.9574C101.615 47.1824 101.568 47.4296 101.583 47.677C101.614 48.194 101.894 48.6726 102.281 48.7704C102.35 48.7887 102.423 48.7909 102.493 48.777C102.563 48.7631 102.629 48.7333 102.687 48.6901C102.756 48.6202 102.767 48.5573 102.756 48.5573Z" fill="#FF9A6C"/>
<path d="M103.308 41.7139C103.623 41.9703 103.996 42.1443 104.395 42.2204C104.595 42.2518 104.8 42.2096 104.971 42.1018C105.143 41.9939 105.269 41.8276 105.327 41.6336C105.359 41.4554 105.327 41.2458 105.432 41.1096C105.537 40.9733 105.834 40.9978 106.047 41.0222C106.795 41.1026 107.671 40.2781 107.864 39.5515C107.961 39.6909 108.107 39.788 108.273 39.823C108.44 39.8581 108.613 39.8284 108.758 39.7402C108.996 39.595 109.206 39.4094 109.38 39.1917C109.481 39.0531 109.614 38.941 109.768 38.865C109.922 38.789 110.092 38.7513 110.264 38.755C110.444 38.8175 110.632 38.8586 110.822 38.8773C111.172 38.8494 111.326 38.4546 111.378 38.1193C111.43 37.7839 111.472 37.3961 111.759 37.2145C112.053 37.0993 112.378 37.0906 112.677 37.19C112.988 37.2389 113.376 37.1656 113.47 36.8617C113.483 36.7804 113.48 36.6975 113.46 36.6177C113.44 36.5379 113.404 36.4628 113.355 36.397C113.147 36.0855 112.84 35.8531 112.484 35.7378C112.128 35.6224 111.743 35.6306 111.392 35.7613C111.268 35.3313 111.019 34.9479 110.677 34.6599C110.335 34.3719 109.915 34.1923 109.47 34.1439C109.025 34.0956 108.576 34.1807 108.18 34.3885C107.784 34.5963 107.458 34.9173 107.245 35.3106C106.973 35.0614 106.645 34.8818 106.288 34.7869C105.932 34.692 105.558 34.6847 105.198 34.7657C104.838 34.8467 104.503 35.0135 104.221 35.2519C103.94 35.4904 103.72 35.7934 103.581 36.135C103.266 36.0512 102.934 36.0616 102.626 36.1651C102.317 36.2686 102.046 36.4606 101.845 36.7171C101.645 36.9736 101.525 37.2834 101.499 37.6079C101.473 37.9324 101.544 38.2572 101.701 38.542C101.462 38.6602 101.257 38.8373 101.104 39.0566C100.952 39.276 100.858 39.5304 100.832 39.7961C100.832 40.327 101.338 40.8441 101.852 40.7183C101.745 40.9275 101.723 41.1696 101.789 41.3948C101.856 41.62 102.006 41.8112 102.209 41.9293C102.412 42.0473 102.652 42.0831 102.88 42.0294C103.109 41.9757 103.308 41.8366 103.438 41.6405" fill="#263238"/>
<path d="M111.581 36.5158C111.581 36.5158 111.581 36.5158 111.581 36.5647C111.581 36.6136 111.581 36.6416 111.563 36.701C111.527 36.8753 111.463 37.0427 111.375 37.197C111.233 37.4388 111.038 37.6453 110.805 37.8014C110.497 38.0113 110.129 38.1156 109.757 38.0983L109.799 38.0424C109.875 38.2731 109.856 38.5242 109.747 38.7411C109.631 38.9709 109.483 39.1827 109.306 39.3699C109.221 39.479 109.124 39.5785 109.017 39.6668C108.826 39.7918 108.598 39.8453 108.372 39.8178C108.147 39.7903 107.938 39.6836 107.783 39.5166L107.878 39.4886C107.842 39.7556 107.75 40.012 107.608 40.2412C107.467 40.4705 107.279 40.6675 107.057 40.8196C106.813 41.0012 106.516 41.0981 106.211 41.0956C105.926 41.08 105.645 41.0174 105.38 40.9104L105.45 40.879C105.315 41.1901 105.105 41.4626 104.838 41.672C104.717 41.7762 104.573 41.8519 104.419 41.8936C104.264 41.9353 104.102 41.942 103.944 41.913C103.674 41.8542 103.427 41.7178 103.233 41.5204C103.04 41.323 102.908 41.0734 102.854 40.8021L102.914 40.8301C102.642 40.9709 102.33 41.0152 102.03 40.9558C101.806 40.9132 101.596 40.8186 101.415 40.6799C101.303 40.5917 101.206 40.4855 101.129 40.3655C101.1 40.3238 101.079 40.2778 101.066 40.2292C101.163 40.3899 101.29 40.5308 101.439 40.6449C101.617 40.7737 101.823 40.8587 102.04 40.893C102.326 40.947 102.621 40.9 102.875 40.7602L102.924 40.7323V40.7882C102.977 41.0406 103.102 41.2722 103.285 41.4546C103.467 41.637 103.699 41.7623 103.951 41.8152C104.095 41.8403 104.243 41.833 104.384 41.7937C104.525 41.7544 104.655 41.6842 104.765 41.5881C105.015 41.3891 105.212 41.131 105.338 40.8371L105.359 40.7916H105.408C105.661 40.8933 105.929 40.9524 106.201 40.9663C106.482 40.9686 106.757 40.8791 106.983 40.7113C107.193 40.5676 107.37 40.3819 107.503 40.166C107.637 39.95 107.724 39.7086 107.759 39.4572V39.3349L107.839 39.4292C107.93 39.5296 108.044 39.6062 108.171 39.6525C108.299 39.6988 108.435 39.7133 108.569 39.6947C108.694 39.6781 108.814 39.6326 108.919 39.562C109.02 39.4807 109.111 39.3881 109.191 39.286C109.364 39.1078 109.51 38.9054 109.624 38.6852C109.676 38.5871 109.707 38.4798 109.717 38.3694C109.726 38.259 109.714 38.1479 109.68 38.0424L109.659 37.9795H109.726C110.082 38.0017 110.437 37.9073 110.735 37.7105C110.964 37.5629 111.158 37.366 111.301 37.1341C111.43 36.9462 111.525 36.7368 111.581 36.5158Z" fill="#455A64"/>
<path d="M111.147 50.0699C111.127 49.9756 110.501 50.1293 109.921 49.7031C109.341 49.277 109.247 48.5923 109.16 48.6097C109.072 48.6272 109.072 48.7914 109.135 49.0743C109.221 49.4435 109.436 49.7703 109.74 49.9966C110.03 50.2131 110.393 50.3083 110.753 50.2621C111.022 50.2202 111.161 50.1119 111.147 50.0699Z" fill="#263238"/>
<path d="M130.521 147.81L133.002 156.26C133.002 156.26 142.434 156.575 143.038 158.094L126.808 163.488L122.399 150.475L130.521 147.81Z" fill="#455A64"/>
<path d="M127.755 157.228C127.615 157.328 127.516 157.475 127.478 157.643C127.44 157.81 127.465 157.986 127.549 158.136C127.643 158.28 127.788 158.382 127.955 158.422C128.122 158.461 128.298 158.435 128.446 158.349C128.595 158.243 128.699 158.086 128.738 157.908C128.778 157.73 128.75 157.544 128.659 157.385C128.546 157.245 128.382 157.155 128.203 157.132C128.024 157.11 127.843 157.158 127.699 157.266" fill="#E0E0E0"/>
<path d="M142.123 157.483C142.123 157.483 142.951 157.556 143.038 158.094L126.808 163.488L126.417 162.157L142.109 157.476" fill="#263238"/>
<path d="M133.236 156.089C133.26 156.169 132.886 156.337 132.572 156.721C132.257 157.106 132.17 157.507 132.086 157.5C132.002 157.493 131.971 156.997 132.348 156.54C132.726 156.082 133.229 156.012 133.236 156.089Z" fill="white"/>
<path d="M135.171 156.225C135.216 156.299 134.919 156.547 134.759 156.969C134.598 157.392 134.643 157.776 134.563 157.797C134.483 157.818 134.284 157.389 134.49 156.865C134.696 156.341 135.146 156.152 135.171 156.225Z" fill="white"/>
<path d="M136.816 157.941C136.75 157.982 136.509 157.623 136.568 157.123C136.628 156.624 136.939 156.323 136.995 156.379C137.05 156.435 136.897 156.728 136.855 157.155C136.813 157.581 136.893 157.899 136.816 157.941Z" fill="white"/>
<path d="M132.457 154.227C132.457 154.311 132.048 154.321 131.611 154.5C131.175 154.678 130.871 154.936 130.808 154.884C130.745 154.832 130.986 154.437 131.507 154.231C132.027 154.025 132.478 154.15 132.457 154.227Z" fill="white"/>
<path d="M92.6746 147.883L89.1429 155.953C89.1429 155.953 96.161 162.241 95.6544 163.806L79.7598 157.518L84.7447 144.718L92.6746 147.883Z" fill="#455A64"/>
<path d="M84.5001 153.322C84.3291 153.309 84.1592 153.359 84.0226 153.462C83.8861 153.566 83.7924 153.717 83.7595 153.885C83.74 154.055 83.7862 154.227 83.8887 154.364C83.9913 154.502 84.1425 154.595 84.3115 154.625C84.4929 154.639 84.673 154.585 84.8173 154.474C84.9617 154.363 85.0601 154.203 85.094 154.025C85.094 153.675 84.7761 153.277 84.4337 153.326" fill="#E0E0E0"/>
<path d="M95.3435 162.751C95.3435 162.751 95.9304 163.341 95.6544 163.799L79.7598 157.511L80.3152 156.243L95.3365 162.74" fill="#263238"/>
<path d="M89.4294 155.974C89.398 156.051 88.9962 155.932 88.5142 156.03C88.0321 156.128 87.7002 156.379 87.6408 156.316C87.5814 156.253 87.8749 155.855 88.4583 155.747C89.0417 155.638 89.4783 155.907 89.4294 155.974Z" fill="white"/>
<path d="M90.8265 157.322C90.8265 157.403 90.4283 157.403 90.0336 157.626C89.6388 157.85 89.4292 158.168 89.3349 158.136C89.2406 158.105 89.3838 157.644 89.8764 157.375C90.3689 157.106 90.8545 157.249 90.8265 157.322Z" fill="white"/>
<path d="M90.9875 159.691C90.9106 159.691 90.956 159.251 91.3368 158.905C91.7176 158.559 92.1333 158.531 92.1403 158.608C92.1473 158.685 91.8329 158.824 91.5359 159.114C91.239 159.404 91.0678 159.715 90.9875 159.691Z" fill="white"/>
<path d="M90.0337 154.056C89.9743 154.112 89.6599 153.867 89.2093 153.707C88.7587 153.546 88.3639 153.567 88.3499 153.487C88.336 153.406 88.7726 153.256 89.3001 153.431C89.8276 153.605 90.0966 154 90.0337 154.056Z" fill="white"/>
<path d="M98.6238 103.553L93.0554 126.141C93.0554 126.141 83.012 143.048 81.3108 151.509L90.4983 155.121C90.4983 155.121 97.181 138.825 99.1408 135.835C100.022 134.495 101.036 133.246 102.166 132.107C102.901 131.379 103.428 130.467 103.693 129.466L107.909 113.352L98.6238 103.553Z" fill="#263238"/>
<path d="M96.2517 99.9408C96.2517 99.9408 97.0272 105.991 102.851 108.674L115.119 128.656C115.119 128.656 116.08 135.154 117.914 140.628C119.748 146.102 123.454 156.652 123.454 156.652L133.547 152.879L127.115 130.892L126.067 123.266L116.055 97.7644L107.455 92.6083L96.2517 99.9408Z" fill="#263238"/>
<path d="M96.2517 99.9408L96.4369 99.815L96.9923 99.4447L99.1721 98.0055L107.437 92.5733L107.465 92.5559L107.493 92.5733L116.101 97.719V97.74L126.134 123.217V123.234C126.466 125.645 126.832 128.226 127.182 130.86C128.928 136.799 130.78 143.153 132.694 149.7C133.004 150.755 133.311 151.803 133.616 152.844L133.641 152.924L133.561 152.952L123.468 156.725L123.381 156.756L123.353 156.669C121.606 151.6 119.916 146.72 118.319 142.091C117.917 140.935 117.523 139.789 117.194 138.643C116.866 137.498 116.569 136.359 116.3 135.234C115.769 132.984 115.343 130.787 115.007 128.656V128.684L102.809 108.695L102.83 108.713C101.354 108.023 100.044 107.024 98.987 105.785C98.2123 104.875 97.5766 103.856 97.1006 102.76C96.806 102.083 96.5722 101.382 96.4019 100.664C96.3425 100.426 96.3076 100.241 96.2866 100.115C96.2657 99.9897 96.2622 99.9268 96.2622 99.9268C96.2622 99.9268 96.2622 99.9897 96.3006 100.112C96.339 100.234 96.36 100.419 96.4264 100.66C96.6067 101.369 96.8474 102.061 97.146 102.728C97.628 103.813 98.2658 104.822 99.0394 105.722C100.1 106.949 101.41 107.935 102.882 108.615L115.175 128.583V128.6C115.524 130.724 115.944 132.918 116.475 135.164C116.744 136.285 117.037 137.421 117.369 138.563C117.701 139.705 118.092 140.844 118.494 142.001C120.097 146.629 121.784 151.509 123.538 156.575L123.423 156.522L133.515 152.75L133.459 152.858C133.156 151.817 132.849 150.769 132.537 149.714L127.031 130.871C126.682 128.237 126.312 125.655 125.983 123.245V123.266L115.989 97.7644L116.017 97.7959L107.423 92.6292H107.476L99.2106 98.0369L97.0098 99.4552L96.4438 99.822L96.2517 99.9408Z" fill="#455A64"/>
<path d="M101.656 56.7736C101.656 56.7736 98.7146 59.0373 97.2858 61.5665C95.5741 64.5952 95.389 69.0842 95.3366 76.0568C95.2842 82.5055 96.2483 84.2976 95.878 86.729C95.1479 91.4764 94.6064 107.41 94.6064 107.41C94.6064 107.41 104.038 103.787 105.869 102.17L107.71 100.57L119.514 104.472L117.131 89.9673L115.497 71.8893L113.401 62.3001L113.051 58.5378L102.914 54.4646L101.656 56.7736Z" fill="#455A64"/>
<path d="M112.671 58.3387C112.793 58.3631 112.381 59.191 111.654 60.4067L111.623 60.4556L111.567 60.4347C110.543 60.0364 109.188 59.5369 107.706 58.9954C106.037 58.3876 104.528 57.8217 103.448 57.3815C102.907 57.1614 102.473 56.9763 102.177 56.84C102.019 56.779 101.867 56.7042 101.722 56.6165C101.888 56.6534 102.05 56.7073 102.204 56.7771L103.494 57.2627L107.769 58.8242C109.251 59.3657 110.602 59.8722 111.612 60.3054L111.528 60.3334C112.29 59.1421 112.74 58.3561 112.671 58.3387Z" fill="#263238"/>
<path d="M124.869 50.807C124.869 50.807 124.122 49.6438 123.416 48.5713C122.71 47.4988 121.641 46.9714 121.47 46.4124C121.299 45.8535 120.359 43.3627 120.209 42.7444C120.079 42.1456 120.018 41.5337 120.027 40.9209C120.027 40.9209 120.799 40.5925 121.17 41.6964C121.393 42.3602 122.106 44.6134 122.26 44.7251C122.413 44.8369 122.609 44.6727 122.609 44.6727C122.292 43.8291 122.018 42.9698 121.788 42.0982C121.753 41.6894 121.896 38.9786 121.896 38.9786C122.088 38.94 122.287 38.9713 122.457 39.0668C122.628 39.1622 122.758 39.3156 122.826 39.4991C123.192 40.1978 123.206 41.9444 123.206 41.9444L123.762 43.8937L123.566 41.9654L123.846 38.4197C124.117 38.4584 124.37 38.5797 124.57 38.7672C124.77 38.9548 124.907 39.1993 124.963 39.4677C125.198 40.4249 124.887 41.7593 125.044 42.0423C125.201 42.3252 125.372 44.037 125.372 44.037C125.372 44.037 125.564 39.8799 126.008 39.7611C126.452 39.6423 126.815 40.0825 126.752 40.9209C126.689 41.7593 126.672 43.5339 126.902 44.3164C127.133 45.0989 129.498 48.1591 129.306 49.5005C129.188 50.311 129.114 51.1274 129.086 51.9459H125.033L124.869 50.807Z" fill="#FFBF9D"/>
<path d="M110.655 61.2766C110.882 61.3639 120.562 63.7603 120.562 63.7603C120.562 63.7603 122.724 60.267 123.042 59.2539C123.36 58.2409 125.061 51.4917 125.061 51.4917L129.152 51.1075C129.152 51.1075 128.104 68.5357 126.623 69.4754C125.142 70.4151 122.78 70.8902 122.626 70.8378C122.473 70.7854 112.164 71.5015 106.732 67.2222C101.3 62.9429 110.655 61.2766 110.655 61.2766Z" fill="#FFBF9D"/>
<g opacity="0.3">
<path d="M103.717 70.5025C104.756 71.6784 106.142 72.4933 107.675 72.829C110.243 73.3949 115.71 74.3975 115.71 74.3975L115.444 71.7146L103.567 70.4431" fill="black"/>
</g>
<path d="M99.4062 66.8135C100.287 68.6719 102.243 70.6562 106.543 71.1068C115.056 71.9871 121.502 72.4552 124.286 72.036C127.07 71.6168 128.177 65.7236 128.478 65.5419C129.344 64.997 129.288 63.1245 128.541 62.5656C126.417 60.9761 122.158 59.7709 121.872 59.9002C120.178 60.7421 120.73 62.7123 120.73 62.7123L109.935 60.3299C108.692 59.8127 107.395 59.4355 106.068 59.205" fill="#455A64"/>
<path d="M106.068 59.205C106.068 59.205 106.159 59.205 106.333 59.24C106.508 59.2749 106.77 59.3168 107.106 59.3902C108.079 59.611 109.033 59.9125 109.956 60.2914L120.743 62.639L120.653 62.7368C120.493 62.1177 120.542 61.4632 120.792 60.8748C120.93 60.5736 121.139 60.31 121.4 60.1063C121.533 60.003 121.674 59.9119 121.823 59.8338C121.874 59.8186 121.927 59.8104 121.98 59.8094H122.109C122.197 59.8094 122.274 59.8373 122.357 59.8513C123.685 60.1652 124.98 60.6038 126.225 61.1613C126.881 61.4471 127.515 61.781 128.121 62.1604C128.272 62.2582 128.422 62.3665 128.572 62.4713C128.727 62.5893 128.854 62.741 128.942 62.9149C129.113 63.258 129.201 63.6358 129.201 64.0188C129.21 64.4064 129.123 64.7903 128.949 65.1367C128.853 65.3154 128.717 65.4696 128.551 65.5873C128.509 65.6083 128.481 65.6991 128.446 65.783L128.355 66.045C128.125 66.7436 127.894 67.4912 127.615 68.2108C127.249 69.2428 126.713 70.2063 126.029 71.0614C125.781 71.3864 125.465 71.653 125.103 71.8426C124.741 72.0321 124.341 72.1399 123.933 72.1583C123.671 72.1967 123.409 72.2037 123.15 72.2247C122.102 72.2876 121.096 72.2736 120.101 72.2456C119.105 72.2177 118.13 72.1653 117.184 72.1059C113.387 71.8614 109.981 71.5155 107.123 71.2186C106.44 71.1588 105.762 71.0609 105.09 70.9252C104.494 70.7976 103.909 70.62 103.343 70.3942C102.426 70.0378 101.585 69.5089 100.866 68.8361C100.418 68.4069 100.032 67.9165 99.7206 67.3794C99.6091 67.1952 99.5121 67.0024 99.4307 66.803C99.4307 66.803 99.5285 67.0021 99.752 67.362C100.075 67.8855 100.466 68.3637 100.915 68.7837C101.633 69.4419 102.47 69.9565 103.382 70.2999C103.949 70.5186 104.533 70.6904 105.128 70.8134C105.798 70.9418 106.475 71.0339 107.154 71.0893C110.012 71.3723 113.418 71.7042 117.208 71.9417C118.158 71.9976 119.13 72.0465 120.122 72.071C121.114 72.0954 122.13 72.1094 123.157 72.05C123.412 72.0256 123.674 72.0186 123.929 71.9801C124.184 71.9667 124.435 71.9185 124.677 71.8369C125.16 71.6508 125.586 71.3427 125.914 70.9426C126.583 70.104 127.107 69.1595 127.465 68.148C127.744 67.4493 127.971 66.7122 128.202 65.9926L128.3 65.7201C128.3 65.6782 128.334 65.6328 128.355 65.5839C128.368 65.5569 128.383 65.5312 128.401 65.507C128.414 65.4902 128.429 65.4749 128.446 65.4616L128.471 65.4406C128.616 65.3403 128.735 65.2075 128.82 65.0529C128.983 64.7283 129.063 64.368 129.051 64.0049C129.052 63.6514 128.972 63.3025 128.817 62.9848C128.74 62.8348 128.632 62.7036 128.499 62.6005C128.348 62.4992 128.205 62.3909 128.055 62.2966C127.457 61.92 126.831 61.5895 126.183 61.308C124.952 60.753 123.671 60.3156 122.357 60.0015C122.277 60.0015 122.197 59.9666 122.12 59.9596H122.005H121.928C121.79 60.0331 121.659 60.1184 121.536 60.2146C121.293 60.3982 121.098 60.6379 120.967 60.9133C120.736 61.4658 120.688 62.0782 120.831 62.6599L120.862 62.7822L120.74 62.7542L109.97 60.3439C109.055 59.9589 108.111 59.6458 107.147 59.4076C106.798 59.3273 106.557 59.2714 106.382 59.2365C106.208 59.2015 106.068 59.205 106.068 59.205Z" fill="#263238"/>
<path d="M124.286 66.0834C124.037 66.0218 123.801 65.9191 123.587 65.7795C123.051 65.4806 122.558 65.1118 122.12 64.6826C121.679 64.2549 121.294 63.7738 120.974 63.2503C120.828 63.0358 120.716 62.8001 120.642 62.5516C121.121 63.2572 121.657 63.9221 122.246 64.5393C122.878 65.1139 123.561 65.6307 124.286 66.0834Z" fill="#263238"/>
<path d="M48.2847 94.8545C48.2847 94.8545 50.4506 94.9698 51.7781 95.8117C53.1055 96.6536 55.2714 97.9531 56.1622 99.574C56.5709 100.318 55.4077 100.475 54.8347 100.042C54.2618 99.6089 53.378 98.7985 52.9414 98.6972L52.5047 98.5993C52.9028 99.5007 53.3471 100.381 53.8357 101.237C54.2863 101.935 54.6775 103.095 53.3256 103.151C53.3256 103.151 52.4104 104.339 51.4881 103.459C51.4881 103.459 50.7685 104.535 49.6087 103.043C49.6087 103.043 48.9345 103.895 48.6515 103.57C48.3686 103.245 47.4463 102.725 47.1774 101.656C46.776 100.411 46.3096 99.1877 45.78 97.9915L48.2847 94.8545Z" fill="#FFBF9D"/>
<path d="M29.8539 66.3733C28.7437 66.7308 27.7855 67.4504 27.1326 68.4169C26.3012 69.6955 26.0462 71.9103 26.2838 73.5591C26.7868 77.035 28.3798 82.9003 29.2775 86.6661C29.585 87.9656 30.2172 90.2922 32.0722 91.5253L45.3084 99.4622L48.8472 94.2222L36.7812 84.3884L34.3953 70.9112L29.8539 66.3733Z" fill="#455A64"/>
<path d="M27.5659 79.62C27.5841 79.6641 27.5981 79.7097 27.6078 79.7563L27.7196 80.165C27.8139 80.5353 27.9467 81.0663 28.1214 81.7475C28.4707 83.1448 28.9667 85.129 29.5851 87.5988C29.944 88.9441 30.7044 90.148 31.7649 91.0502C32.3707 91.5352 33.0183 91.9654 33.7002 92.3358L35.8276 93.6213L45.361 99.3783L45.2387 99.4063L46.5138 97.5164L48.7774 94.1523L48.7949 94.2746L36.8372 84.4269H36.8163V84.4024C36.0268 81.0803 35.4539 78.359 35.0906 76.4656C34.9124 75.5189 34.7866 74.7818 34.7063 74.2787C34.6714 74.0342 34.6434 73.8421 34.6224 73.7058C34.6015 73.5696 34.598 73.5102 34.598 73.5102C34.617 73.5733 34.6321 73.6374 34.6434 73.7023C34.6679 73.8386 34.7028 74.0272 34.7447 74.2718C34.839 74.7713 34.9753 75.5084 35.1709 76.4516C35.5517 78.338 36.1455 81.0523 36.9525 84.371L36.928 84.3326L48.9067 94.1348L48.9696 94.1872L48.9242 94.2536L46.6605 97.6177L45.3854 99.5076L45.34 99.5775L45.2631 99.5355L35.7438 93.7611L33.6199 92.472C32.9335 92.0978 32.2812 91.6642 31.6706 91.176C30.5918 90.252 29.8224 89.0193 29.4663 87.6442C28.8689 85.1675 28.3903 83.1658 28.069 81.7789C27.9118 81.0803 27.786 80.5598 27.6987 80.1895L27.5974 79.7598C27.5836 79.714 27.5731 79.6673 27.5659 79.62Z" fill="#263238"/>
<path d="M27.7825 68.2353C27.8646 68.1813 27.9557 68.1423 28.0515 68.12C28.305 68.0417 28.5643 67.9833 28.827 67.9453C29.7032 67.8102 30.5998 67.9316 31.4086 68.2947C32.1902 68.7022 32.8542 69.3036 33.3369 70.0413C33.4832 70.2643 33.6006 70.5049 33.6862 70.7575C33.7237 70.8473 33.745 70.9431 33.7491 71.0404C33.5981 70.7197 33.4242 70.4103 33.2286 70.1147C32.7313 69.4263 32.0807 68.863 31.3282 68.4693C30.5477 68.1234 29.6894 67.9908 28.841 68.0851C28.1877 68.1375 27.793 68.2667 27.7825 68.2353Z" fill="#263238"/>
</svg>
