<svg width="294" height="169" viewBox="0 0 294 169" fill="none" xmlns="http://www.w3.org/2000/svg">
<g clip-path="url(#clip0_286_2209)">
<path d="M60.3307 99.9872C59.7962 99.4642 59.1415 99.0804 58.4241 98.8693L53.1742 93.1442L50.4053 95.7987L56.0329 101.322C56.2721 102.027 56.6829 102.661 57.2281 103.167C58.5752 104.454 60.3607 104.786 61.2172 103.907C62.0737 103.027 61.6803 101.275 60.3373 99.9894H60.3321L60.3307 99.9872Z" fill="#9F616A"/>
<path d="M58.1418 97.4101L55.3527 100.916L40.937 90.0043L40.9246 89.9793L32.5006 74.2599C32.1536 73.6105 31.9433 72.8969 31.8826 72.1632C31.8219 71.4294 31.9122 70.691 32.1478 69.9934C32.3834 69.2959 32.7593 68.654 33.2525 68.1073C33.7457 67.5606 34.3456 67.1207 35.0153 66.8147C35.6849 66.5087 36.4102 66.3431 37.1463 66.3281C37.8824 66.3131 38.6138 66.449 39.2954 66.7275C39.977 67.0059 40.5943 67.4211 41.1093 67.9472C41.6243 68.4734 42.0261 69.0994 42.2899 69.7868L47.7559 84.0929L58.1425 97.4053L58.1418 97.4101Z" fill="#D6D6E3"/>
<path d="M34.4036 61.0483H40.2805V70.3716L33.8008 68.2418L34.4036 61.0483Z" fill="#9F616A"/>
<path d="M45.9329 57.1721C45.9329 58.4484 45.5545 59.696 44.8454 60.7572C44.1364 61.8183 43.1286 62.6454 41.9494 63.1338C40.7703 63.6222 39.4729 63.75 38.2211 63.501C36.9694 63.2521 35.8196 62.6375 34.9171 61.735C34.0147 60.8326 33.4001 59.6828 33.1511 58.431C32.9021 57.1793 33.0299 55.8818 33.5183 54.7027C34.0067 53.5236 34.8338 52.5158 35.895 51.8067C36.9562 51.0976 38.2038 50.7192 39.48 50.7192C41.1914 50.7192 42.8328 51.399 44.0429 52.6092C45.2531 53.8194 45.9329 55.4607 45.9329 57.1721Z" fill="#9F616A"/>
<path d="M34.9114 61.2998L34.2816 62.495L31.5024 57.2135C29.829 52.0886 35.6733 49.1456 35.6733 49.1456C37.5799 46.8995 41.4131 49.5265 41.4131 49.5265C46.9414 48.299 44.2729 52.9579 44.2729 52.9579C44.2729 52.9579 42.3866 53.0001 42.3866 54.5239C42.3866 56.0476 40.3334 55.9431 40.3334 55.9431L38.7245 58.7597L37.8354 57.6788C34.5305 56.2793 34.9114 61.2998 34.9114 61.2998Z" fill="#2F2E43"/>
<path d="M37.2369 156.579H32.0225V163.977H37.2369V156.579Z" fill="#9F616A"/>
<path d="M42.3146 168.455C40.026 168.455 36.6844 168.215 36.6595 168.213C35.7656 168.292 31.3032 168.644 31.0813 167.623C30.9643 166.937 31.012 166.233 31.2207 165.569C31.6515 161.304 31.811 161.254 31.9056 161.227C32.0574 161.182 32.5006 161.393 33.2204 161.856L33.2651 161.886L33.275 161.939C33.2874 162.003 33.605 163.57 35.1177 163.332C36.1535 163.168 36.4897 162.938 36.5968 162.826C36.4855 162.777 36.3905 162.698 36.3229 162.597C36.2658 162.497 36.2311 162.385 36.2212 162.27C36.2113 162.154 36.2265 162.039 36.2657 161.93C36.4763 161.306 36.7447 160.703 37.0675 160.13L37.1346 160.01L43.061 164.009L46.7216 165.055C46.8575 165.094 46.9829 165.162 47.0885 165.256C47.1941 165.349 47.2773 165.466 47.3317 165.596C47.4072 165.776 47.4248 165.976 47.382 166.167C47.3391 166.358 47.238 166.531 47.0926 166.662C46.4279 167.259 45.1055 168.283 43.7195 168.41C43.3511 168.446 42.8631 168.457 42.3149 168.457L42.3146 168.455Z" fill="#2F2E43"/>
<path d="M16.2653 151.192L20.2856 154.513L24.9982 148.809L20.9779 145.488L16.2653 151.192Z" fill="#9F616A"/>
<path d="M21.3375 161.191C19.5743 159.731 17.1515 157.418 17.1339 157.401C16.3944 156.895 12.7313 154.321 13.2108 153.391C13.5567 152.787 14.0427 152.275 14.6279 151.897C17.6784 148.882 17.8302 148.947 17.9226 148.986C18.0692 149.048 18.276 149.492 18.5352 150.308L18.5503 150.358L18.5253 150.405C18.4887 150.465 17.7385 151.877 19.0559 152.654C19.9596 153.187 20.3633 153.224 20.5177 153.207C20.4625 153.098 20.44 152.975 20.4528 152.853C20.473 152.74 20.5175 152.632 20.5832 152.537C20.649 152.442 20.7344 152.362 20.8337 152.304C21.3937 151.957 21.9847 151.664 22.5991 151.427L22.726 151.377L24.7425 158.233L26.8965 161.373C26.9763 161.49 27.0289 161.623 27.0505 161.762C27.072 161.902 27.062 162.045 27.0212 162.18C26.9641 162.367 26.8503 162.532 26.6955 162.652C26.5408 162.772 26.3526 162.841 26.157 162.85C25.2657 162.886 23.5945 162.832 22.4466 162.048C22.1426 161.838 21.7591 161.537 21.336 161.189L21.3375 161.191Z" fill="#2F2E43"/>
<path d="M45.8581 99.5264L37.9096 158.65H31.948L27.9736 99.5264H45.8607H45.8581Z" fill="#2F2E43"/>
<path d="M30.4592 131.821L18.5884 147.223L23.6682 151.419L44.0404 132.043L45.8607 99.526L42.2178 102.783L30.4592 131.821Z" fill="#2F2E43"/>
<path d="M42.2174 64.7462L45.8604 99.5264H27.9737L26.5867 88.2385C25.7322 81.2668 27.1543 74.2056 30.6406 68.108L33.3842 63.3119L42.2174 64.7462Z" fill="#D6D6E3"/>
<path d="M43.8211 109.41C43.5525 108.712 43.1163 108.091 42.551 107.602L40.1495 100.211L36.5264 101.479L39.3528 108.837C39.2765 109.578 39.3869 110.326 39.674 111.014C40.3637 112.742 41.853 113.785 42.9958 113.342C44.1386 112.899 44.5074 111.138 43.8174 109.41H43.8211Z" fill="#9F616A"/>
<path d="M42.8925 106.141L38.9009 108.173L30.3123 92.2628V92.2357L29.1694 74.4384C29.1224 73.7028 29.2267 72.9654 29.4758 72.2717C29.7249 71.5779 30.1137 70.9426 30.618 70.405C31.1223 69.8674 31.7314 69.439 32.4079 69.146C33.0843 68.8531 33.8136 68.702 34.5507 68.702C35.2878 68.702 36.0171 68.8531 36.6935 69.146C37.3699 69.439 37.9791 69.8674 38.4834 70.405C38.9877 70.9426 39.3764 71.5779 39.6255 72.2717C39.8747 72.9654 39.9789 73.7028 39.9319 74.4384L38.9684 89.7205L42.8914 106.143L42.8925 106.141Z" fill="#D6D6E3"/>
<path d="M290.247 132.129H102.448C100.697 132.129 99.2784 130.866 99.2766 129.311V2.81876C99.2788 1.26309 100.697 0.00257327 102.448 0.000740051H290.247C291.997 0.000740051 293.416 1.26309 293.418 2.81876V129.311C293.416 130.866 291.997 132.126 290.247 132.129ZM102.448 0.626231C101.086 0.626231 99.9828 1.6081 99.9813 2.81802V129.31C99.9813 130.52 101.086 131.5 102.448 131.502H290.247C291.608 131.502 292.712 130.52 292.713 129.31V2.81802C292.713 1.6081 291.608 0.627697 290.247 0.626231H102.448Z" fill="#E6E6E6"/>
<path d="M271.985 29.3428H120.83C119.989 29.3418 119.183 29.0074 118.589 28.4129C117.994 27.8185 117.66 27.0124 117.659 26.1717V15.2491C117.66 14.4083 117.994 13.6023 118.589 13.0078C119.183 12.4133 119.989 12.0789 120.83 12.078H271.985C272.826 12.0789 273.632 12.4133 274.226 13.0078C274.821 13.6023 275.155 14.4083 275.156 15.2491V26.1717C275.155 27.0124 274.821 27.8185 274.226 28.4129C273.632 29.0074 272.826 29.3418 271.985 29.3428ZM120.83 12.7826C120.176 12.7834 119.549 13.0435 119.087 13.5059C118.624 13.9683 118.364 14.5952 118.364 15.2491V26.1717C118.364 26.8256 118.624 27.4525 119.087 27.9149C119.549 28.3772 120.176 28.6374 120.83 28.6381H271.985C272.639 28.6374 273.266 28.3772 273.728 27.9149C274.191 27.4525 274.451 26.8256 274.452 26.1717V15.2491C274.451 14.5952 274.191 13.9683 273.728 13.5059C273.266 13.0435 272.639 12.7834 271.985 12.7826H120.83Z" fill="#3F3D56"/>
<path d="M180.729 63.0696H120.83C119.989 63.0686 119.183 62.7342 118.589 62.1397C117.994 61.5452 117.66 60.7392 117.659 59.8985V48.9758C117.66 48.1351 117.994 47.3291 118.589 46.7346C119.183 46.1401 119.989 45.8057 120.83 45.8047H180.729C181.569 45.8057 182.375 46.1401 182.97 46.7346C183.564 47.3291 183.899 48.1351 183.9 48.9758V59.8985C183.899 60.7392 183.564 61.5452 182.97 62.1397C182.375 62.7342 181.569 63.0686 180.729 63.0696ZM120.83 46.5094C120.176 46.5102 119.549 46.7703 119.087 47.2327C118.624 47.695 118.364 48.3219 118.364 48.9758V59.8985C118.364 60.5524 118.624 61.1793 119.087 61.6416C119.549 62.104 120.176 62.3641 120.83 62.3649H180.729C181.382 62.3641 182.009 62.104 182.472 61.6416C182.934 61.1793 183.194 60.5524 183.195 59.8985V48.9758C183.194 48.3219 182.934 47.695 182.472 47.2327C182.009 46.7703 181.382 46.5102 180.729 46.5094H120.83Z" fill="#3F3D56"/>
<path d="M271.986 63.0696H212.087C211.246 63.0686 210.44 62.7342 209.846 62.1397C209.251 61.5452 208.917 60.7392 208.916 59.8985V48.9758C208.917 48.1351 209.251 47.3291 209.846 46.7346C210.44 46.1401 211.246 45.8057 212.087 45.8047H271.986C272.826 45.8057 273.632 46.1401 274.227 46.7346C274.821 47.3291 275.156 48.1351 275.157 48.9758V59.8985C275.156 60.7392 274.821 61.5452 274.227 62.1397C273.632 62.7342 272.826 63.0686 271.986 63.0696ZM212.087 46.5094C211.433 46.5102 210.806 46.7703 210.344 47.2327C209.882 47.695 209.621 48.3219 209.621 48.9758V59.8985C209.621 60.5524 209.881 61.1793 210.344 61.6417C210.806 62.1041 211.433 62.3642 212.087 62.3649H271.986C272.639 62.3641 273.266 62.104 273.729 61.6416C274.191 61.1793 274.451 60.5524 274.452 59.8985V48.9758C274.451 48.3219 274.191 47.695 273.729 47.2327C273.266 46.7703 272.639 46.5102 271.986 46.5094H212.087Z" fill="#3F3D56"/>
<path d="M216.098 120.095H175.93C175.136 120.094 174.375 119.778 173.814 119.217C173.252 118.655 172.936 117.894 172.936 117.1V113.224C172.937 112.43 173.252 111.669 173.814 111.108C174.375 110.546 175.136 110.23 175.93 110.229H216.098C216.891 110.23 217.653 110.546 218.214 111.108C218.775 111.669 219.091 112.43 219.092 113.224V117.1C219.091 117.894 218.776 118.655 218.214 119.217C217.653 119.778 216.892 120.094 216.098 120.095Z" fill="#E6E6E6"/>
<path d="M127.524 81.3911C126.967 81.3909 126.422 81.2254 125.958 80.9155C125.495 80.6057 125.134 80.1654 124.921 79.6503C124.708 79.1352 124.652 78.5685 124.761 78.0218C124.87 77.4751 125.138 76.9729 125.533 76.5788C125.927 76.1847 126.429 75.9164 126.976 75.8077C127.523 75.699 128.089 75.7549 128.604 75.9683C129.119 76.1816 129.559 76.5429 129.869 77.0065C130.179 77.47 130.344 78.0149 130.344 78.5724C130.344 79.3199 130.047 80.0369 129.518 80.5655C128.99 81.0941 128.273 81.3911 127.525 81.3911H127.524ZM127.524 76.4583C127.106 76.4583 126.697 76.5823 126.35 76.8146C126.002 77.0469 125.731 77.377 125.571 77.7633C125.411 78.1496 125.369 78.5747 125.451 78.9848C125.532 79.3949 125.734 79.7716 126.029 80.0672C126.325 80.3629 126.702 80.5642 127.112 80.6458C127.522 80.7274 127.947 80.6855 128.333 80.5255C128.72 80.3655 129.05 80.0945 129.282 79.7469C129.514 79.3992 129.638 78.9905 129.638 78.5724C129.638 78.0117 129.416 77.4739 129.019 77.0775C128.623 76.681 128.085 76.4583 127.524 76.4583Z" fill="#E6E6E6"/>
<path d="M127.524 90.5524C126.967 90.5522 126.422 90.3867 125.958 90.0768C125.495 89.767 125.134 89.3267 124.921 88.8116C124.708 88.2965 124.652 87.7298 124.761 87.1831C124.87 86.6364 125.138 86.1342 125.533 85.7401C125.927 85.346 126.429 85.0777 126.976 84.969C127.523 84.8603 128.089 84.9162 128.604 85.1296C129.119 85.3429 129.559 85.7042 129.869 86.1678C130.179 86.6313 130.344 87.1762 130.344 87.7337C130.344 88.4812 130.047 89.1982 129.518 89.7268C128.99 90.2554 128.273 90.5524 127.525 90.5524H127.524ZM127.524 85.6196C127.106 85.6196 126.697 85.7436 126.35 85.9759C126.002 86.2082 125.731 86.5383 125.571 86.9246C125.411 87.3109 125.369 87.736 125.451 88.1461C125.532 88.5562 125.734 88.9329 126.029 89.2285C126.325 89.5242 126.702 89.7255 127.112 89.8071C127.522 89.8887 127.947 89.8468 128.333 89.6868C128.72 89.5268 129.05 89.2558 129.282 88.9082C129.514 88.5605 129.638 88.1518 129.638 87.7337C129.638 87.173 129.416 86.6353 129.019 86.2388C128.623 85.8423 128.085 85.6196 127.524 85.6196Z" fill="#E6E6E6"/>
<path d="M127.524 99.713C126.967 99.7128 126.422 99.5473 125.958 99.2374C125.495 98.9275 125.134 98.4872 124.921 97.9721C124.708 97.4571 124.652 96.8903 124.761 96.3436C124.87 95.7969 125.138 95.2948 125.533 94.9007C125.927 94.5066 126.429 94.2382 126.976 94.1296C127.523 94.0209 128.089 94.0768 128.604 94.2901C129.119 94.5035 129.559 94.8648 129.869 95.3283C130.179 95.7918 130.344 96.3368 130.344 96.8942C130.344 97.6418 130.047 98.3588 129.518 98.8874C128.99 99.416 128.273 99.713 127.525 99.713H127.524ZM127.524 94.7802C127.106 94.7802 126.697 94.9041 126.35 95.1364C126.002 95.3687 125.731 95.6989 125.571 96.0852C125.411 96.4715 125.369 96.8966 125.451 97.3067C125.532 97.7167 125.734 98.0934 126.029 98.3891C126.325 98.6848 126.702 98.8861 127.112 98.9677C127.522 99.0492 127.947 99.0074 128.333 98.8474C128.72 98.6874 129.05 98.4164 129.282 98.0687C129.514 97.7211 129.638 97.3123 129.638 96.8942C129.638 96.3335 129.416 95.7958 129.019 95.3994C128.623 95.0029 128.085 94.7802 127.524 94.7802Z" fill="#407BFF"/>
<path d="M141.017 76.2823C140.409 76.2823 139.827 76.5236 139.397 76.9531C138.968 77.3826 138.727 77.9651 138.727 78.5725C138.727 79.1799 138.968 79.7625 139.397 80.192C139.827 80.6215 140.409 80.8627 141.017 80.8627H173.785C174.392 80.8627 174.975 80.6215 175.404 80.192C175.834 79.7625 176.075 79.1799 176.075 78.5725C176.075 77.9651 175.834 77.3826 175.404 76.9531C174.975 76.5236 174.392 76.2823 173.785 76.2823H141.017Z" fill="#E6E6E6"/>
<path d="M141.017 85.4432C140.414 85.4508 139.839 85.6955 139.416 86.1242C138.993 86.5528 138.755 87.131 138.755 87.7335C138.755 88.3359 138.993 88.9141 139.416 89.3428C139.839 89.7714 140.414 90.0161 141.017 90.0237H173.785C174.392 90.0237 174.975 89.7824 175.404 89.3529C175.834 88.9234 176.075 88.3409 176.075 87.7335C176.075 87.1261 175.834 86.5435 175.404 86.114C174.975 85.6845 174.392 85.4432 173.785 85.4432H141.017Z" fill="#E6E6E6"/>
<path d="M141.017 94.6522C140.414 94.6598 139.839 94.9045 139.416 95.3331C138.993 95.7618 138.755 96.34 138.755 96.9424C138.755 97.5449 138.993 98.123 139.416 98.5517C139.839 98.9804 140.414 99.225 141.017 99.2327H173.785C174.392 99.2327 174.975 98.9914 175.404 98.5619C175.834 98.1324 176.075 97.5498 176.075 96.9424C176.075 96.335 175.834 95.7525 175.404 95.323C174.975 94.8935 174.392 94.6522 173.785 94.6522H141.017Z" fill="#E6E6E6"/>
<path d="M218.957 81.3911C218.4 81.3911 217.855 81.2258 217.391 80.9161C216.928 80.6063 216.567 80.1661 216.353 79.651C216.14 79.136 216.084 78.5692 216.193 78.0224C216.302 77.4757 216.57 76.9734 216.964 76.5792C217.358 76.185 217.861 75.9165 218.408 75.8078C218.954 75.699 219.521 75.7548 220.036 75.9682C220.551 76.1815 220.991 76.5428 221.301 77.0063C221.611 77.4699 221.776 78.0149 221.776 78.5724C221.776 79.3199 221.479 80.0369 220.951 80.5655C220.422 81.0941 219.705 81.3911 218.957 81.3911ZM218.957 76.4583C218.539 76.4583 218.131 76.5823 217.783 76.8146C217.435 77.0469 217.164 77.377 217.004 77.7633C216.844 78.1496 216.802 78.5747 216.884 78.9848C216.966 79.3949 217.167 79.7716 217.463 80.0672C217.758 80.3629 218.135 80.5642 218.545 80.6458C218.955 80.7274 219.38 80.6855 219.766 80.5255C220.153 80.3655 220.483 80.0945 220.715 79.7469C220.947 79.3992 221.071 78.9905 221.071 78.5724C221.071 78.2947 221.017 78.0198 220.911 77.7633C220.804 77.5068 220.649 77.2738 220.452 77.0775C220.256 76.8812 220.023 76.7255 219.766 76.6192C219.51 76.513 219.235 76.4583 218.957 76.4583Z" fill="#E6E6E6"/>
<path d="M218.957 90.5524C218.4 90.5524 217.855 90.3871 217.391 90.0774C216.928 89.7676 216.567 89.3274 216.353 88.8123C216.14 88.2973 216.084 87.7305 216.193 87.1837C216.302 86.637 216.57 86.1347 216.964 85.7405C217.358 85.3463 217.861 85.0778 218.408 84.9691C218.954 84.8603 219.521 84.9161 220.036 85.1295C220.551 85.3428 220.991 85.7041 221.301 86.1676C221.611 86.6312 221.776 87.1762 221.776 87.7337C221.776 88.4812 221.479 89.1982 220.951 89.7268C220.422 90.2554 219.705 90.5524 218.957 90.5524ZM218.957 85.6196C218.539 85.6196 218.131 85.7436 217.783 85.9759C217.435 86.2082 217.164 86.5383 217.004 86.9246C216.844 87.3109 216.802 87.736 216.884 88.1461C216.966 88.5562 217.167 88.9329 217.463 89.2285C217.758 89.5242 218.135 89.7255 218.545 89.8071C218.955 89.8887 219.38 89.8468 219.766 89.6868C220.153 89.5268 220.483 89.2558 220.715 88.9082C220.947 88.5605 221.071 88.1518 221.071 87.7337C221.071 87.456 221.017 87.1811 220.911 86.9246C220.804 86.6681 220.649 86.4351 220.452 86.2388C220.256 86.0425 220.023 85.8868 219.766 85.7805C219.51 85.6743 219.235 85.6196 218.957 85.6196Z" fill="#407BFF"/>
<path d="M218.957 99.7918C218.4 99.7918 217.855 99.6265 217.391 99.3168C216.928 99.007 216.567 98.5668 216.353 98.0517C216.14 97.5367 216.084 96.9699 216.193 96.4231C216.302 95.8764 216.57 95.3741 216.964 94.9799C217.358 94.5857 217.861 94.3172 218.408 94.2085C218.954 94.0997 219.521 94.1555 220.036 94.3689C220.551 94.5822 220.991 94.9435 221.301 95.407C221.611 95.8706 221.776 96.4156 221.776 96.9731C221.776 97.7206 221.479 98.4376 220.951 98.9662C220.422 99.4948 219.705 99.7918 218.957 99.7918ZM218.957 94.859C218.539 94.859 218.131 94.983 217.783 95.2153C217.435 95.4476 217.164 95.7777 217.004 96.164C216.844 96.5503 216.802 96.9754 216.884 97.3855C216.966 97.7956 217.167 98.1723 217.463 98.4679C217.758 98.7636 218.135 98.9649 218.545 99.0465C218.955 99.1281 219.38 99.0862 219.766 98.9262C220.153 98.7662 220.483 98.4952 220.715 98.1476C220.947 97.7999 221.071 97.3912 221.071 96.9731C221.071 96.6954 221.017 96.4205 220.911 96.164C220.804 95.9075 220.649 95.6745 220.452 95.4782C220.256 95.2819 220.023 95.1262 219.766 95.0199C219.51 94.9137 219.235 94.859 218.957 94.859Z" fill="#E6E6E6"/>
<path d="M232.347 76.2823C231.739 76.2823 231.157 76.5236 230.727 76.9531C230.298 77.3826 230.057 77.9651 230.057 78.5725C230.057 79.1799 230.298 79.7625 230.727 80.192C231.157 80.6215 231.739 80.8627 232.347 80.8627H265.115C265.722 80.8627 266.305 80.6215 266.734 80.192C267.164 79.7625 267.405 79.1799 267.405 78.5725C267.405 77.9651 267.164 77.3826 266.734 76.9531C266.305 76.5236 265.722 76.2823 265.115 76.2823H232.347Z" fill="#E6E6E6"/>
<path d="M232.347 85.4432C232.044 85.4394 231.743 85.4958 231.461 85.6092C231.18 85.7226 230.924 85.8906 230.708 86.1037C230.493 86.3167 230.321 86.5705 230.204 86.8503C230.088 87.1301 230.027 87.4303 230.027 87.7335C230.027 88.0367 230.088 88.3369 230.204 88.6167C230.321 88.8964 230.493 89.1502 230.708 89.3633C230.924 89.5763 231.18 89.7444 231.461 89.8578C231.743 89.9711 232.044 90.0275 232.347 90.0237H265.115C265.722 90.0237 266.305 89.7824 266.734 89.3529C267.164 88.9234 267.405 88.3409 267.405 87.7335C267.405 87.1261 267.164 86.5435 266.734 86.114C266.305 85.6845 265.722 85.4432 265.115 85.4432H232.347Z" fill="#E6E6E6"/>
<path d="M232.347 94.6522C232.044 94.6484 231.743 94.7048 231.461 94.8182C231.18 94.9315 230.924 95.0996 230.708 95.3127C230.493 95.5257 230.321 95.7795 230.204 96.0593C230.088 96.339 230.027 96.6392 230.027 96.9425C230.027 97.2457 230.088 97.5459 230.204 97.8256C230.321 98.1054 230.493 98.3592 230.708 98.5722C230.924 98.7853 231.18 98.9534 231.461 99.0667C231.743 99.1801 232.044 99.2365 232.347 99.2327H265.115C265.722 99.2327 266.305 98.9914 266.734 98.5619C267.164 98.1324 267.405 97.5499 267.405 96.9425C267.405 96.335 267.164 95.7525 266.734 95.323C266.305 94.8935 265.722 94.6522 265.115 94.6522H232.347Z" fill="#E6E6E6"/>
<path d="M127.569 52.1469C126.962 52.1469 126.379 52.3882 125.95 52.8177C125.52 53.2472 125.279 53.8297 125.279 54.4372C125.279 55.0446 125.52 55.6271 125.95 56.0566C126.379 56.4861 126.962 56.7274 127.569 56.7274H166.679C167.287 56.7274 167.869 56.4861 168.299 56.0566C168.728 55.6271 168.969 55.0446 168.969 54.4372C168.969 53.8297 168.728 53.2472 168.299 52.8177C167.869 52.3882 167.287 52.1469 166.679 52.1469H127.569Z" fill="#E6E6E6"/>
<path d="M127.569 18.4198C126.962 18.4198 126.379 18.6611 125.95 19.0906C125.52 19.5201 125.279 20.1026 125.279 20.71C125.279 21.3174 125.52 21.9 125.95 22.3295C126.379 22.759 126.962 23.0003 127.569 23.0003H166.679C167.287 23.0003 167.869 22.759 168.299 22.3295C168.728 21.9 168.969 21.3174 168.969 20.71C168.969 20.1026 168.728 19.5201 168.299 19.0906C167.869 18.6611 167.287 18.4198 166.679 18.4198H127.569Z" fill="#407BFF"/>
<path d="M173.112 52.966C173.081 52.9659 173.05 52.974 173.023 52.9895C172.997 53.005 172.974 53.0272 172.959 53.054C172.943 53.0808 172.935 53.1113 172.935 53.1422C172.935 53.1732 172.944 53.2036 172.959 53.2303L174.455 55.8203C174.47 55.847 174.492 55.8692 174.519 55.8846C174.546 55.9 174.576 55.9081 174.607 55.9081C174.638 55.9081 174.668 55.9 174.695 55.8846C174.722 55.8692 174.744 55.847 174.76 55.8203L176.255 53.2303C176.271 53.2036 176.279 53.1732 176.279 53.1422C176.279 53.1113 176.271 53.0808 176.255 53.054C176.24 53.0272 176.218 53.005 176.191 52.9895C176.164 52.974 176.134 52.9659 176.103 52.966H173.112Z" fill="#407BFF"/>
<path d="M218.826 52.1469C218.219 52.1469 217.636 52.3882 217.207 52.8177C216.777 53.2472 216.536 53.8297 216.536 54.4372C216.536 55.0446 216.777 55.6271 217.207 56.0566C217.636 56.4861 218.219 56.7274 218.826 56.7274H257.936C258.544 56.7274 259.126 56.4861 259.556 56.0566C259.985 55.6271 260.227 55.0446 260.227 54.4372C260.227 53.8297 259.985 53.2472 259.556 52.8177C259.126 52.3882 258.544 52.1469 257.936 52.1469H218.826Z" fill="#E6E6E6"/>
<path d="M264.368 52.966C264.337 52.9659 264.307 52.974 264.28 52.9895C264.253 53.005 264.231 53.0272 264.215 53.054C264.2 53.0808 264.192 53.1113 264.192 53.1422C264.192 53.1732 264.2 53.2036 264.216 53.2303L265.711 55.8203C265.727 55.8471 265.749 55.8694 265.776 55.8848C265.803 55.9003 265.833 55.9084 265.864 55.9084C265.895 55.9084 265.925 55.9003 265.952 55.8848C265.979 55.8694 266.001 55.8471 266.017 55.8203L267.512 53.2303C267.527 53.2036 267.536 53.1732 267.536 53.1422C267.536 53.1113 267.528 53.0808 267.512 53.054C267.497 53.0272 267.474 53.005 267.447 52.9895C267.421 52.974 267.39 52.9659 267.359 52.966H264.368Z" fill="#407BFF"/>
<path d="M218.958 89.143C219.737 89.143 220.368 88.512 220.368 87.7337C220.368 86.9553 219.737 86.3243 218.958 86.3243C218.18 86.3243 217.549 86.9553 217.549 87.7337C217.549 88.512 218.18 89.143 218.958 89.143Z" fill="#407BFF"/>
<path d="M127.525 98.352C128.303 98.352 128.934 97.721 128.934 96.9426C128.934 96.1642 128.303 95.5332 127.525 95.5332C126.747 95.5332 126.116 96.1642 126.116 96.9426C126.116 97.721 126.747 98.352 127.525 98.352Z" fill="#407BFF"/>
<path d="M80.055 168.453H0.296203C0.219389 168.45 0.14662 168.418 0.093234 168.363C0.0398484 168.307 0.0100098 168.233 0.0100098 168.157C0.0100098 168.08 0.0398484 168.006 0.093234 167.951C0.14662 167.895 0.219389 167.863 0.296203 167.86H80.055C80.1318 167.863 80.2046 167.895 80.258 167.951C80.3113 168.006 80.3412 168.08 80.3412 168.157C80.3412 168.233 80.3113 168.307 80.258 168.363C80.2046 168.418 80.1318 168.45 80.055 168.453Z" fill="#F2F2F2"/>
<path d="M91.9393 90.2788L59.0423 113.335C58.3915 113.79 57.5867 113.968 56.8046 113.83C56.0225 113.693 55.3269 113.251 54.8704 112.601L52.6457 109.427C52.1908 108.776 52.0126 107.971 52.1501 107.189C52.2876 106.407 52.7298 105.711 53.3795 105.255L86.2764 82.1989C86.9272 81.744 87.7319 81.5657 88.5139 81.7033C89.296 81.8408 89.9915 82.2829 90.4481 82.9326L92.6728 86.1069C93.1278 86.7577 93.3061 87.5624 93.1686 88.3445C93.0311 89.1266 92.589 89.8223 91.9393 90.2788Z" fill="#407BFF"/>
</g>
<defs>
<clipPath id="clip0_286_2209">
<rect width="293.418" height="168.455" fill="white"/>
</clipPath>
</defs>
</svg>
