<svg width="210" height="211" viewBox="0 0 210 211" fill="none" xmlns="http://www.w3.org/2000/svg">
<g clip-path="url(#clip0_201_2269)">
<path d="M38.4253 187.616L37.1502 182.585C34.8889 181.627 32.5755 180.796 30.2207 180.099L30.0598 182.436L29.407 179.861C26.4868 179.026 24.5 178.659 24.5 178.659C24.5 178.659 27.1833 188.864 32.8125 196.665L39.3709 197.817L34.2758 198.552C34.9838 199.404 35.7447 200.21 36.554 200.967C44.7417 208.567 53.8615 212.054 56.9234 208.754C59.9853 205.455 55.83 196.621 47.642 189.021C45.1045 186.665 41.9151 184.775 38.7231 183.286L38.4253 187.616Z" fill="#E6E6E6"/>
<path d="M50.554 182.152L52.0622 177.187C50.6219 175.198 49.0706 173.292 47.4157 171.477L46.0696 173.395L46.842 170.853C44.7732 168.629 43.2623 167.288 43.2623 167.288C43.2623 167.288 40.285 177.411 41.0702 186.999L46.0889 191.374L41.3467 189.369C41.5126 190.465 41.7473 191.549 42.0493 192.615C45.1299 203.353 51.1344 211.052 55.4607 209.811C59.787 208.569 60.7967 198.858 57.7159 188.12C56.761 184.791 55.0083 181.524 53.0454 178.601L50.554 182.152Z" fill="#E6E6E6"/>
<path d="M157.212 49.9033H156.059V18.2948C156.059 13.4429 154.131 8.78964 150.7 5.35873C147.27 1.92782 142.617 0.000232057 137.765 0H70.7942C65.9421 0 61.2888 1.92748 57.8578 5.35842C54.4269 8.78936 52.4994 13.4427 52.4994 18.2948V191.705C52.4994 194.107 52.9726 196.486 53.892 198.706C54.8114 200.926 56.159 202.942 57.8578 204.641C59.5566 206.34 61.5734 207.688 63.7931 208.607C66.0127 209.527 68.3917 210 70.7942 210H137.765C142.617 210 147.27 208.072 150.701 204.641C154.132 201.21 156.059 196.557 156.059 191.705V72.4027H157.213L157.212 49.9033Z" fill="#E6E6E6"/>
<path d="M138.502 4.75797H129.761C130.163 5.74361 130.316 6.81297 130.208 7.87186C130.099 8.93075 129.732 9.94666 129.138 10.8301C128.544 11.7135 127.742 12.4374 126.803 12.9379C125.863 13.4384 124.815 13.7002 123.751 13.7002H85.3846C84.3201 13.7002 83.2719 13.4384 82.3325 12.9379C81.393 12.4374 80.591 11.7135 79.9972 10.83C79.4035 9.94653 79.0361 8.93056 78.9275 7.87163C78.8189 6.8127 78.9724 5.74331 79.3745 4.75768H71.2102C67.5866 4.75768 64.1115 6.19713 61.5493 8.75935C58.9871 11.3216 57.5476 14.7967 57.5476 18.4202V191.579C57.5476 195.202 58.9871 198.677 61.5493 201.24C64.1115 203.802 67.5866 205.241 71.2102 205.241H138.502C142.126 205.241 145.601 203.802 148.163 201.24C150.725 198.677 152.165 195.202 152.165 191.579V18.4199C152.164 14.7965 150.725 11.3215 148.163 8.75935C145.601 6.1972 142.126 4.75776 138.502 4.75768L138.502 4.75797Z" fill="white"/>
<path d="M96.2812 73.7351C96.281 72.5245 96.5998 71.3353 97.2053 70.2871C97.8109 69.2389 98.6819 68.3687 99.7307 67.7641C98.6827 67.1589 97.4938 66.8403 96.2836 66.8402C95.0734 66.8402 93.8845 67.1587 92.8364 67.7638C91.7883 68.3688 90.918 69.2391 90.3128 70.2872C89.7077 71.3353 89.3892 72.5242 89.3892 73.7344C89.3892 74.9446 89.7077 76.1335 90.3128 77.1815C90.918 78.2296 91.7883 79.0999 92.8364 79.705C93.8845 80.31 95.0734 80.6285 96.2836 80.6285C97.4938 80.6284 98.6827 80.3098 99.7307 79.7046C98.6823 79.1002 97.8115 78.2302 97.2062 77.1822C96.6008 76.1343 96.2822 74.9453 96.2823 73.7351H96.2812Z" fill="#CCCCCC"/>
<path d="M104.948 73.7351C104.948 72.5245 105.266 71.3353 105.872 70.287C106.478 69.2388 107.349 68.3686 108.397 67.7641C107.349 67.1589 106.16 66.8403 104.95 66.8402C103.74 66.8402 102.551 67.1587 101.503 67.7638C100.455 68.3688 99.5846 69.2391 98.9795 70.2872C98.3744 71.3353 98.0558 72.5242 98.0558 73.7344C98.0558 74.9446 98.3744 76.1335 98.9795 77.1815C99.5846 78.2296 100.455 79.0999 101.503 79.705C102.551 80.31 103.74 80.6285 104.95 80.6285C106.16 80.6284 107.349 80.3098 108.397 79.7046C107.349 79.1002 106.478 78.2302 105.873 77.1822C105.267 76.1343 104.949 74.9453 104.949 73.7351H104.948Z" fill="#CCCCCC"/>
<path d="M113.418 80.6292C117.226 80.6292 120.312 77.5426 120.312 73.7351C120.312 69.9276 117.226 66.841 113.418 66.841C109.611 66.841 106.524 69.9276 106.524 73.7351C106.524 77.5426 109.611 80.6292 113.418 80.6292Z" fill="#407BFF"/>
<path d="M124.94 95.2683H84.7589C84.3764 95.2678 84.0097 95.1156 83.7392 94.8451C83.4687 94.5747 83.3165 94.2079 83.316 93.8254V53.6448C83.3168 53.2625 83.4691 52.896 83.7396 52.6258C84.01 52.3556 84.3766 52.2036 84.7589 52.2031H124.94C125.322 52.2036 125.689 52.3557 125.96 52.6262C126.23 52.8967 126.382 53.2634 126.383 53.646V93.8239C126.382 94.2065 126.23 94.5732 125.96 94.8437C125.689 95.1142 125.322 95.2663 124.94 95.2668V95.2683ZM84.7589 52.7794C84.5294 52.7797 84.3093 52.8709 84.1471 53.0332C83.9848 53.1955 83.8935 53.4156 83.8932 53.6451V93.8257C83.8935 94.0552 83.9848 94.2752 84.1471 94.4375C84.3093 94.5998 84.5294 94.6911 84.7589 94.6913H124.94C125.169 94.6911 125.389 94.5998 125.552 94.4375C125.714 94.2752 125.805 94.0552 125.805 93.8257V53.6451C125.805 53.4156 125.714 53.1955 125.552 53.0332C125.389 52.8709 125.169 52.7797 124.94 52.7794H84.7589Z" fill="#CCCCCC"/>
<path d="M133.911 126.068H72.287V126.646H133.911V126.068Z" fill="#CCCCCC"/>
<path d="M74.233 122.464C75.3077 122.464 76.179 121.593 76.179 120.518C76.179 119.444 75.3077 118.572 74.233 118.572C73.1582 118.572 72.287 119.444 72.287 120.518C72.287 121.593 73.1582 122.464 74.233 122.464Z" fill="#407BFF"/>
<path d="M133.911 145.529H72.287V146.106H133.911V145.529Z" fill="#CCCCCC"/>
<path d="M74.233 141.925C75.3077 141.925 76.179 141.054 76.179 139.979C76.179 138.904 75.3077 138.033 74.233 138.033C73.1582 138.033 72.287 138.904 72.287 139.979C72.287 141.054 73.1582 141.925 74.233 141.925Z" fill="#407BFF"/>
<path d="M132.784 167.689H113.308C112.972 167.689 112.65 167.555 112.412 167.317C112.174 167.079 112.04 166.757 112.04 166.42V159.595C112.04 159.259 112.174 158.937 112.412 158.699C112.65 158.461 112.972 158.327 113.308 158.327H132.784C133.12 158.327 133.442 158.461 133.68 158.699C133.918 158.937 134.052 159.259 134.052 159.595V166.42C134.052 166.757 133.918 167.079 133.68 167.317C133.442 167.555 133.12 167.689 132.784 167.689Z" fill="#407BFF"/>
<path d="M80.5811 122.464C81.6559 122.464 82.5271 121.593 82.5271 120.518C82.5271 119.444 81.6559 118.572 80.5811 118.572C79.5064 118.572 78.6351 119.444 78.6351 120.518C78.6351 121.593 79.5064 122.464 80.5811 122.464Z" fill="#407BFF"/>
<path d="M86.9293 122.464C88.004 122.464 88.8753 121.593 88.8753 120.518C88.8753 119.444 88.004 118.572 86.9293 118.572C85.8545 118.572 84.9833 119.444 84.9833 120.518C84.9833 121.593 85.8545 122.464 86.9293 122.464Z" fill="#407BFF"/>
<path d="M80.5811 141.925C81.6559 141.925 82.5271 141.054 82.5271 139.979C82.5271 138.904 81.6559 138.033 80.5811 138.033C79.5064 138.033 78.6351 138.904 78.6351 139.979C78.6351 141.054 79.5064 141.925 80.5811 141.925Z" fill="#407BFF"/>
<path d="M86.9293 141.925C88.004 141.925 88.8753 141.054 88.8753 139.979C88.8753 138.904 88.004 138.033 86.9293 138.033C85.8545 138.033 84.9833 138.904 84.9833 139.979C84.9833 141.054 85.8545 141.925 86.9293 141.925Z" fill="#407BFF"/>
<path d="M209.193 210.741H0.807335C0.361377 210.741 0 210.581 0 210.385C0 210.189 0.361377 210.03 0.807335 210.03H209.193C209.638 210.03 210 210.189 210 210.385C210 210.582 209.638 210.741 209.193 210.741Z" fill="#E6E6E6"/>
<path d="M182.511 132.096L177.611 141.796L162.963 148.456C161.399 151.1 156.427 151.302 156.066 149.594C155.66 147.676 162.103 144.588 162.103 144.588L174.357 136.3L175.429 129.165L182.511 132.096Z" fill="#FFB9B9"/>
<path d="M181.933 197.189L182.837 204.418L177.596 204.78L177.054 197.19L181.933 197.189Z" fill="#FFB9B9"/>
<path d="M181.211 203.334C181.679 202.839 182.111 202.31 182.504 201.753C183.255 200.713 183.921 206.045 183.921 206.045C183.921 206.045 184.644 208.213 184.464 209.298C184.283 210.382 180.126 210.382 179.403 210.202C178.68 210.022 175.066 210.202 175.066 210.202H169.645C164.946 208.033 169.645 206.587 169.645 206.587C171.091 206.407 175.97 201.889 175.97 201.889L177.054 199.901C177.777 199.72 178.5 202.431 178.5 202.431L181.211 203.334Z" fill="#090814"/>
<path d="M195.487 197.28L196.392 204.509L191.151 204.87L190.608 197.28H195.487Z" fill="#FFB9B9"/>
<path d="M194.764 203.424C195.233 202.929 195.665 202.4 196.057 201.843C196.808 200.803 197.475 206.135 197.475 206.135C197.475 206.135 198.198 208.123 198.017 209.207C197.836 210.291 193.68 210.291 192.957 210.111C192.234 209.931 188.62 210.292 188.62 210.292H183.198C178.5 208.124 183.198 206.678 183.198 206.678C184.644 206.497 189.523 201.979 189.523 201.979L190.608 199.991C191.331 199.811 192.054 202.521 192.054 202.521L194.764 203.424Z" fill="#090814"/>
<path d="M189.523 150.655C190.246 151.559 189.884 154.631 189.884 154.631C189.884 154.631 191.149 164.57 190.607 165.474C190.065 166.377 190.968 167.1 191.511 168.365C192.054 169.631 192.596 172.703 192.596 172.703C195.668 175.232 195.487 186.799 195.487 186.799L196.571 197.099C196.21 198.184 191.15 198.364 190.427 198.184C189.704 198.003 187.535 181.738 187.535 181.738L182.656 172.522C182.656 172.522 183.017 197.099 183.017 198.183C183.017 199.268 178.138 198.726 177.054 198.726C175.969 198.726 175.969 180.654 175.969 180.654L174.885 175.955L169.102 154.45V151.92L170.006 150.655C170.006 150.655 188.8 149.752 189.523 150.655Z" fill="#090814"/>
<path d="M181.572 109.633C184.666 109.633 187.175 107.125 187.175 104.031C187.175 100.936 184.666 98.4282 181.572 98.4282C178.478 98.4282 175.97 100.936 175.97 104.031C175.97 107.125 178.478 109.633 181.572 109.633Z" fill="#FFB9B9"/>
<path d="M178.771 106.651C179.907 109.179 179.234 112.711 176.963 116.59L186.179 112.253L184.734 110.988L185.095 107.374L178.771 106.651Z" fill="#FFB9B9"/>
<path d="M178.77 112.434C177.563 113.151 176.842 114.47 176.427 115.811C175.66 118.295 175.198 120.863 175.052 123.458L174.614 131.228L169.193 151.83C173.891 155.806 176.601 154.902 182.927 151.649C189.253 148.396 189.975 152.734 189.975 152.734C189.975 152.734 190.517 152.553 189.975 152.011C189.433 151.47 189.975 152.011 190.517 151.469C191.059 150.927 190.517 151.469 190.336 150.927C190.156 150.385 190.336 150.746 190.517 150.566C190.698 150.385 189.795 148.757 189.795 148.757L191.24 135.204L193.049 116.048C190.88 113.337 184.736 110.988 184.736 110.988L179.132 114.963C177.324 115.686 178.771 112.795 178.771 112.795L178.77 112.434Z" fill="#407BFF"/>
<path d="M196.029 127.523L196.752 138.366L187.535 151.559C187.535 154.631 185.909 155.354 185.909 155.354C185.293 154.371 184.749 153.344 184.282 152.282C183.378 150.294 184.825 148.667 184.825 148.667L191.15 135.295L188.439 128.608L196.029 127.523Z" fill="#FFB9B9"/>
<path d="M192.958 116.138C196.03 117.223 196.573 128.969 196.573 128.969C192.958 126.981 188.621 130.234 188.621 130.234C188.621 130.234 187.717 127.162 186.633 123.187C186.306 122.068 186.267 120.885 186.519 119.748C186.772 118.61 187.309 117.555 188.079 116.681C188.079 116.681 189.885 115.054 192.958 116.138Z" fill="#407BFF"/>
<path d="M186.722 105.747C186.009 105.176 185.036 106.214 185.036 106.214L184.466 101.079C184.466 101.079 180.9 101.506 178.617 100.936C176.335 100.365 175.979 103.004 175.979 103.004C175.861 101.939 175.837 100.865 175.907 99.7958C176.05 98.5125 177.904 97.2292 181.185 96.3725C184.466 95.5159 186.177 99.2253 186.177 99.2253C188.458 100.365 187.435 106.318 186.722 105.747Z" fill="#090814"/>
</g>
<defs>
<clipPath id="clip0_201_2269">
<rect width="210" height="210.741" fill="white"/>
</clipPath>
</defs>
</svg>
