<svg width="379" height="302" viewBox="0 0 379 302" fill="none" xmlns="http://www.w3.org/2000/svg">
<g clip-path="url(#clip0_201_1554)">
<path d="M51.6206 301.039C80.1299 301.039 103.241 299.276 103.241 297.102C103.241 294.927 80.1299 293.165 51.6206 293.165C23.1113 293.165 0 294.927 0 297.102C0 299.276 23.1113 301.039 51.6206 301.039Z" fill="#F2F2F2"/>
<path d="M93.5263 109.261C96.4439 106.292 100.342 105.391 102.23 107.248C104.117 109.105 103.285 113.016 100.366 115.986C99.2164 117.187 97.7954 118.096 96.2224 118.636L83.7045 131.062L77.9977 125.064L90.9463 113.453C91.4595 111.87 92.3443 110.433 93.5268 109.263L93.5263 109.261Z" fill="#ED9DA0"/>
<path d="M53.485 99.0064L66.612 128.128L87.5739 116.781L95.076 120.763C95.076 120.763 77.9419 149.411 66.2069 146.15C54.4719 142.889 33.6392 113.318 37.3931 104.192C41.147 95.0651 53.486 99.0059 53.486 99.0059L53.485 99.0064Z" fill="#407BFF"/>
<path d="M47.729 293.091H57.3009L61.8542 256.172H47.7271L47.729 293.091Z" fill="#ED9DA0"/>
<path d="M80.5233 292.873C80.8215 293.375 80.9787 294.995 80.9787 295.579C80.9787 296.44 80.6365 297.267 80.0275 297.876C79.4184 298.485 78.5923 298.828 77.7308 298.828H48.0873C47.7963 298.828 47.5081 298.77 47.2392 298.659C46.9704 298.548 46.7261 298.385 46.5203 298.179C46.3145 297.973 46.1513 297.729 46.0399 297.46C45.9285 297.191 45.8712 296.903 45.8712 296.612V295.378C45.8712 295.378 44.4039 291.668 47.4237 287.095C47.4237 287.095 51.1762 290.674 56.7826 285.067L58.4359 282.072L70.4043 290.825L77.0383 291.642C78.4895 291.82 79.7765 291.614 80.5229 292.873L80.5233 292.873Z" fill="#2F2E41"/>
<path d="M54.9722 100.875L55.1658 87.9649L47.2045 83.0021L38.5475 93.5917L54.9722 100.875Z" fill="#ED9DA0"/>
<path d="M54.9973 91.9824C62.817 91.9824 69.1561 85.6432 69.1561 77.8235C69.1561 70.0038 62.817 63.6647 54.9973 63.6647C47.1775 63.6647 40.8384 70.0038 40.8384 77.8235C40.8384 85.6432 47.1775 91.9824 54.9973 91.9824Z" fill="#ED9DA0"/>
<path d="M74.3068 186.243L61.1173 275.996H44.5691L46.7696 224.763L47.9278 197.824L44.5673 185.001C43.5008 182.958 42.5586 180.853 41.7458 178.696C40.2918 174.798 39.1426 170.123 40.8465 167.905C41.4736 167.088 43.1047 166.485 45.3213 166.032C46.8533 165.734 48.3994 165.514 49.9536 165.373C59.7395 164.404 73.6593 165.009 73.6593 165.009L74.0134 176.687L74.2098 183.208L74.3068 186.243Z" fill="#2F2E41"/>
<path d="M30.8708 288.701L40.341 290.093L50.2163 254.228L36.2392 252.174L30.8708 288.701Z" fill="#ED9DA0"/>
<path d="M63.3452 293.256C63.5672 293.796 63.4872 295.422 63.402 296.002C63.2766 296.854 62.8177 297.622 62.1264 298.136C61.435 298.65 60.5677 298.868 59.7153 298.743L30.3885 294.429C30.1005 294.387 29.8237 294.288 29.5738 294.139C29.3239 293.99 29.1059 293.793 28.9322 293.559C28.7585 293.326 28.6325 293.06 28.5614 292.778C28.4903 292.496 28.4756 292.202 28.5179 291.914L28.6973 290.693C28.6973 290.693 27.7862 286.812 31.4378 282.726C31.4378 282.726 34.6294 286.814 40.9922 282.082L43.064 279.359L53.6318 289.76L60.0765 291.533C61.4865 291.92 62.7895 291.904 63.3452 293.256Z" fill="#2F2E41"/>
<path d="M74.5145 171.275L72.7055 186.854L62.8397 219.685L46.5987 273.735L30.2285 271.329L44.9208 194.478L43.4663 181.3C43.4663 181.3 42.9929 179.99 42.4496 178.072C41.3718 174.278 40.0196 168.1 41.5072 164.948C41.6927 164.538 41.9519 164.164 42.2721 163.847C42.8571 163.279 44.0461 162.935 45.6393 162.753C52.2979 162 66.0109 164.153 72.1125 165.209L74.515 171.274L74.5145 171.275Z" fill="#2F2E41"/>
<path d="M40.3679 90.8611L56.4527 98.5819C56.4527 98.5819 73.5026 149.088 73.5026 151.662C73.5026 154.235 78.3281 155.844 75.4328 158.739C72.5375 161.635 80.8215 164.088 76.3582 166.399C71.8948 168.71 44.0485 181.362 40.9539 180.22C32.4143 177.074 41.316 165.513 41.316 165.513C41.316 165.513 34.8992 160.344 35.8643 157.773C36.8294 155.201 30.0737 105.98 30.0737 105.98L40.3679 90.8611Z" fill="#407BFF"/>
<path d="M54.1321 81.2149L55.9534 84.8594C55.9534 84.8594 57.7747 78.3035 60.6866 76.8466C63.5984 75.3897 63.9648 73.202 63.9648 73.202C63.9648 73.202 67.6093 77.9352 70.1567 76.8466C72.7041 75.758 73.8013 75.0253 70.8852 70.6546C67.9691 66.284 68.6999 68.4693 68.6999 68.4693C68.6999 68.4693 66.1501 64.8248 66.5145 65.9196C66.879 67.0143 64.3292 63.0058 64.3292 64.0982C64.3292 65.1907 62.5079 61.9129 62.5079 63.0053C62.5079 64.0978 54.8591 60.4556 55.952 61.9124C57.0449 63.3693 49.3951 58.9973 45.7553 64.8234C42.1154 70.6494 37.0628 69.5731 38.8595 73.2082C40.6562 76.8433 39.9287 86.6784 39.9287 86.6784H44.9506C44.9506 86.6784 50.1259 76.8442 54.133 81.2149H54.1321Z" fill="#090814"/>
<path d="M375.719 148.479H167.487C166.617 148.478 165.783 148.132 165.168 147.517C164.552 146.902 164.206 146.068 164.206 145.198V54.6423C164.206 53.7724 164.552 52.9383 165.168 52.3232C165.783 51.7081 166.617 51.3621 167.487 51.3612H375.719C376.589 51.3621 377.423 51.7081 378.038 52.3232C378.653 52.9383 378.999 53.7724 379 54.6423V145.197C378.999 146.067 378.653 146.901 378.038 147.516C377.423 148.131 376.589 148.478 375.719 148.479ZM167.487 52.6738C166.965 52.6744 166.464 52.882 166.095 53.251C165.726 53.6201 165.519 54.1204 165.518 54.6423V145.197C165.519 145.719 165.726 146.219 166.095 146.588C166.464 146.957 166.965 147.165 167.487 147.166H375.719C376.241 147.165 376.741 146.957 377.11 146.588C377.479 146.219 377.687 145.719 377.687 145.197V54.6423C377.687 54.1204 377.479 53.6201 377.11 53.251C376.741 52.882 376.241 52.6744 375.719 52.6738H167.487Z" fill="#E6E6E6"/>
<path d="M176.017 62.5164C175.495 62.5164 174.994 62.7238 174.625 63.093C174.256 63.4621 174.049 63.9628 174.049 64.4849C174.049 65.007 174.256 65.5077 174.625 65.8769C174.994 66.2461 175.495 66.4535 176.017 66.4535H203.577C204.099 66.4535 204.6 66.2461 204.969 65.8769C205.338 65.5077 205.546 65.007 205.546 64.4849C205.546 63.9628 205.338 63.4621 204.969 63.093C204.6 62.7238 204.099 62.5164 203.577 62.5164H176.017Z" fill="#E6E6E6"/>
<path d="M364.691 76.2071V112.712H178.843V93.4923C180.13 92.6658 181.424 91.8432 182.731 91.048C188.31 87.6335 194.28 84.4405 200.791 83.2572C203.869 82.6832 207.023 82.6438 210.115 83.1408C213.381 83.6799 216.505 84.8054 219.602 85.9334C222.654 87.0509 225.714 88.2053 228.906 88.8509C232.016 89.4614 235.21 89.5244 238.342 89.0369C244.318 88.1404 249.932 85.7388 255.523 83.5663C261.149 81.3819 266.947 79.3178 273.036 79.0461C279.047 78.7744 284.984 80.1944 290.688 81.9561C302.317 85.5448 314.191 90.8682 326.504 87.217C339.008 83.5156 350.509 72.8281 364.366 75.9993C364.497 76.0235 364.614 76.097 364.693 76.2048L364.691 76.2071Z" fill="#F2F2F2"/>
<path d="M364.691 76.8437C364.632 76.955 364.537 77.043 364.421 77.0937C364.306 77.1444 364.177 77.1547 364.055 77.123C362.404 76.7442 360.713 76.5694 359.019 76.6023C345.387 76.8428 334.909 87.8153 321.579 89.4567C309.563 90.9349 298.253 85.0918 286.955 82.0384C281.086 80.4514 275.032 79.6098 268.991 80.688C262.997 81.7549 257.371 84.2071 251.722 86.3839C246.282 88.4789 240.629 90.427 234.74 90.5236C228.264 90.632 222.433 87.9629 216.426 85.9296C213.303 84.8703 210.098 84.0325 206.789 83.9506C203.563 83.912 200.353 84.409 197.291 85.4212C190.908 87.4503 185.158 91.0665 179.56 94.6595C179.463 94.7276 179.346 94.7593 179.228 94.7489C179.107 94.7327 178.994 94.6802 178.904 94.5982C178.814 94.5163 178.751 94.4088 178.723 94.2901C178.695 94.1714 178.704 94.047 178.749 93.9335C178.793 93.82 178.871 93.7227 178.972 93.6546L179.228 93.4918C180.512 92.6654 181.805 91.8427 183.11 91.0475C188.677 87.633 194.637 84.44 201.132 83.2567C204.203 82.6828 207.351 82.6434 210.436 83.1403C213.695 83.6794 216.814 84.8049 219.902 85.9329C222.948 87.0504 226.001 88.2048 229.187 88.8504C232.291 89.461 235.478 89.5239 238.603 89.0364C244.567 88.14 250.169 85.7383 255.749 83.5658C261.363 81.3814 267.148 79.3173 273.224 79.0456C279.222 78.7739 285.147 80.1939 290.838 81.9556C302.443 85.5443 314.292 90.8677 326.58 87.2165C339.058 83.5152 350.535 72.8276 364.363 75.9989C364.494 76.0231 364.61 76.0966 364.689 76.2043C364.75 76.2997 364.782 76.4105 364.783 76.5237C364.783 76.6369 364.751 76.7479 364.691 76.8437Z" fill="#407BFF"/>
<path d="M204.45 86.3295C205.95 86.3295 207.166 85.1136 207.166 83.6136C207.166 82.1137 205.95 80.8977 204.45 80.8977C202.951 80.8977 201.735 82.1137 201.735 83.6136C201.735 85.1136 202.951 86.3295 204.45 86.3295Z" fill="#407BFF"/>
<path d="M273.125 82.8379C274.625 82.8379 275.841 81.6219 275.841 80.122C275.841 78.622 274.625 77.4061 273.125 77.4061C271.625 77.4061 270.409 78.622 270.409 80.122C270.409 81.6219 271.625 82.8379 273.125 82.8379Z" fill="#407BFF"/>
<path d="M348.696 85.6338C350.196 85.6338 351.412 84.4178 351.412 82.9179C351.412 81.4179 350.196 80.202 348.696 80.202C347.196 80.202 345.98 81.4179 345.98 82.9179C345.98 84.4178 347.196 85.6338 348.696 85.6338Z" fill="#407BFF"/>
<path d="M202.921 128.136C202.399 128.136 201.898 128.343 201.529 128.712C201.16 129.082 200.953 129.582 200.953 130.104C200.953 130.627 201.16 131.127 201.529 131.496C201.898 131.866 202.399 132.073 202.921 132.073H230.481C231.003 132.073 231.504 131.866 231.873 131.496C232.242 131.127 232.45 130.627 232.45 130.104C232.45 129.582 232.242 129.082 231.873 128.712C231.504 128.343 231.003 128.136 230.481 128.136H202.921Z" fill="#E6E6E6"/>
<path d="M185.204 137.323C189.311 137.323 192.641 133.993 192.641 129.886C192.641 125.779 189.311 122.449 185.204 122.449C181.097 122.449 177.767 125.779 177.767 129.886C177.767 133.993 181.097 137.323 185.204 137.323Z" fill="#407BFF"/>
<path d="M269.415 128.136C268.893 128.136 268.393 128.343 268.023 128.712C267.654 129.082 267.447 129.582 267.447 130.104C267.447 130.627 267.654 131.127 268.023 131.496C268.393 131.866 268.893 132.073 269.415 132.073H296.975C297.497 132.073 297.998 131.866 298.367 131.496C298.736 131.127 298.944 130.627 298.944 130.104C298.944 129.582 298.736 129.082 298.367 128.712C297.998 128.343 297.497 128.136 296.975 128.136H269.415Z" fill="#E6E6E6"/>
<path d="M251.698 137.323C255.805 137.323 259.135 133.993 259.135 129.886C259.135 125.779 255.805 122.449 251.698 122.449C247.591 122.449 244.261 125.779 244.261 129.886C244.261 133.993 247.591 137.323 251.698 137.323Z" fill="#407BFF"/>
<path d="M335.91 128.136C335.388 128.136 334.887 128.343 334.518 128.712C334.149 129.082 333.941 129.582 333.941 130.104C333.941 130.627 334.149 131.127 334.518 131.496C334.887 131.866 335.388 132.073 335.91 132.073H363.47C363.992 132.073 364.493 131.866 364.862 131.496C365.231 131.127 365.438 130.627 365.438 130.104C365.438 129.582 365.231 129.082 364.862 128.712C364.493 128.343 363.992 128.136 363.47 128.136H335.91Z" fill="#E6E6E6"/>
<path d="M318.193 137.323C322.3 137.323 325.63 133.993 325.63 129.886C325.63 125.779 322.3 122.449 318.193 122.449C314.086 122.449 310.756 125.779 310.756 129.886C310.756 133.993 314.086 137.323 318.193 137.323Z" fill="#407BFF"/>
<path d="M196.98 27.4913H94.2458C92.2432 27.4913 90.6202 26.335 90.6178 24.9103V2.58147C90.6178 1.15678 92.2432 0.000457764 94.2458 0.000457764H196.98C198.983 0.000457764 200.606 1.15678 200.608 2.58147V24.9098C200.606 26.3345 198.983 27.4894 196.98 27.4913ZM94.2458 1.03181C93.044 1.03181 92.0685 1.7257 92.0685 2.58051V24.9089C92.0685 25.7637 93.0436 26.4566 94.2458 26.4576H196.98C198.182 26.4576 199.157 25.7637 199.157 24.9089V2.58147C199.157 1.72665 198.182 1.03371 196.98 1.03277L94.2458 1.03181Z" fill="#E6E6E6"/>
<path d="M117.475 12.6897C116.896 12.6904 116.34 12.9211 115.93 13.3311C115.52 13.7411 115.289 14.297 115.288 14.8769V30.1882C115.289 30.7681 115.52 31.324 115.93 31.734C116.34 32.144 116.896 32.3747 117.475 32.3754H195.781C196.361 32.3747 196.917 32.144 197.327 31.734C197.737 31.324 197.968 30.7681 197.968 30.1882V14.8769C197.968 14.297 197.737 13.7411 197.327 13.3311C196.917 12.9211 196.361 12.6904 195.781 12.6897H117.475Z" fill="#407BFF"/>
<path d="M128.412 27.5637C131.07 27.5637 133.224 25.4092 133.224 22.7515C133.224 20.0938 131.07 17.9393 128.412 17.9393C125.755 17.9393 123.6 20.0938 123.6 22.7515C123.6 25.4092 125.755 27.5637 128.412 27.5637Z" fill="white"/>
<path d="M150.343 20.6623C149.821 20.6623 149.32 20.8697 148.951 21.2388C148.582 21.608 148.375 22.1087 148.375 22.6308C148.375 23.1529 148.582 23.6536 148.951 24.0228C149.32 24.3919 149.821 24.5993 150.343 24.5993H177.903C178.425 24.5993 178.926 24.3919 179.295 24.0228C179.664 23.6536 179.872 23.1529 179.872 22.6308C179.872 22.1087 179.664 21.608 179.295 21.2388C178.926 20.8697 178.425 20.6623 177.903 20.6623H150.343Z" fill="white"/>
<path d="M247.585 198.308H144.851C142.849 198.308 141.225 197.152 141.223 195.727V173.398C141.223 171.974 142.849 170.817 144.851 170.817H247.585C249.588 170.817 251.211 171.974 251.213 173.398V195.727C251.212 197.151 249.588 198.306 247.585 198.308ZM144.851 171.849C143.649 171.849 142.674 172.543 142.674 173.397V195.726C142.674 196.581 143.649 197.274 144.851 197.274H247.585C248.787 197.274 249.763 196.581 249.763 195.726V173.398C249.763 172.544 248.788 171.851 247.585 171.85L144.851 171.849Z" fill="#E6E6E6"/>
<path d="M168.081 183.507C167.501 183.508 166.945 183.739 166.535 184.149C166.125 184.559 165.895 185.114 165.894 185.694V201.006C165.895 201.586 166.125 202.141 166.535 202.551C166.945 202.961 167.501 203.192 168.081 203.193H246.387C246.967 203.192 247.523 202.961 247.933 202.551C248.343 202.141 248.573 201.586 248.574 201.006V185.694C248.573 185.114 248.343 184.559 247.933 184.149C247.523 183.739 246.967 183.508 246.387 183.507H168.081Z" fill="#407BFF"/>
<path d="M179.018 198.381C181.675 198.381 183.83 196.226 183.83 193.568C183.83 190.911 181.675 188.756 179.018 188.756C176.36 188.756 174.205 190.911 174.205 193.568C174.205 196.226 176.36 198.381 179.018 198.381Z" fill="white"/>
<path d="M200.948 191.48C200.426 191.48 199.926 191.687 199.556 192.056C199.187 192.425 198.98 192.926 198.98 193.448C198.98 193.97 199.187 194.471 199.556 194.84C199.926 195.209 200.426 195.417 200.948 195.417H228.508C229.03 195.417 229.531 195.209 229.9 194.84C230.269 194.471 230.477 193.97 230.477 193.448C230.477 192.926 230.269 192.425 229.9 192.056C229.531 191.687 229.03 191.48 228.508 191.48H200.948Z" fill="white"/>
<path d="M108.823 149.767L85.783 133.012C85.3841 132.721 85.1169 132.284 85.0399 131.796C84.9628 131.308 85.0823 130.81 85.3721 130.41C86.5606 119.787 96.2471 109.385 108.186 99.0409C108.477 98.6418 108.914 98.3744 109.402 98.2974C109.89 98.2204 110.388 98.34 110.788 98.6301L133.826 115.386C134.225 115.676 134.493 116.114 134.57 116.602C134.647 117.089 134.527 117.588 134.237 117.988C124.552 127.827 116.787 138.235 111.425 149.356C111.134 149.755 110.696 150.023 110.209 150.1C109.721 150.177 109.223 150.057 108.823 149.767Z" fill="#E6E6E6"/>
<path d="M132.785 116.216L125.772 111.116C121.495 108.025 116.169 106.752 110.956 107.575C105.744 108.398 101.07 111.25 97.9533 115.508L86.7931 130.851C86.6278 131.078 86.5595 131.362 86.6032 131.64C86.6468 131.917 86.7987 132.166 87.0257 132.332L109.291 148.522C109.518 148.687 109.802 148.754 110.08 148.71C110.357 148.666 110.606 148.514 110.771 148.286C115.35 136.813 122.988 126.715 133.018 117.695C133.183 117.468 133.251 117.185 133.207 116.907C133.163 116.63 133.012 116.381 132.785 116.216Z" fill="white"/>
<path d="M105.107 138.08L100.54 134.758C100.48 134.715 100.412 134.683 100.34 134.666C100.268 134.649 100.193 134.646 100.12 134.657C100.047 134.669 99.9767 134.695 99.9134 134.733C99.8502 134.772 99.7952 134.823 99.7516 134.883C99.7079 134.943 99.6766 135.011 99.6592 135.083C99.6419 135.155 99.6389 135.23 99.6505 135.303C99.662 135.376 99.6879 135.446 99.7266 135.51C99.7653 135.573 99.8161 135.628 99.8761 135.672L104.443 138.993C104.564 139.081 104.715 139.117 104.863 139.094C105.011 139.071 105.144 138.99 105.232 138.868C105.32 138.747 105.356 138.596 105.333 138.448C105.31 138.3 105.229 138.168 105.107 138.08Z" fill="#CCCCCC"/>
<path d="M112.283 139.458L102.253 132.163C102.132 132.075 101.981 132.039 101.833 132.062C101.685 132.085 101.552 132.167 101.464 132.288C101.376 132.409 101.34 132.56 101.363 132.708C101.386 132.856 101.467 132.988 101.589 133.077L111.618 140.371C111.74 140.459 111.891 140.495 112.039 140.472C112.187 140.449 112.319 140.367 112.407 140.246C112.495 140.125 112.532 139.974 112.508 139.826C112.485 139.678 112.404 139.546 112.283 139.458Z" fill="#CCCCCC"/>
<path d="M95.2772 127.369C93.3024 127.936 92.1606 129.996 92.7268 131.97C93.2931 133.945 95.353 135.087 97.3279 134.521C99.3027 133.955 100.445 131.895 99.8783 129.92C99.312 127.945 97.252 126.803 95.2772 127.369Z" fill="#407BFF"/>
<path d="M110.542 131.918L98.2232 122.958C98.1017 122.888 97.9588 122.866 97.8218 122.895C97.6849 122.924 97.5635 123.003 97.4812 123.116C97.3988 123.23 97.3612 123.369 97.3755 123.509C97.3899 123.648 97.4552 123.777 97.5589 123.871L109.878 132.832C110 132.902 110.143 132.925 110.28 132.896C110.417 132.866 110.539 132.787 110.621 132.674C110.704 132.561 110.741 132.421 110.727 132.281C110.712 132.141 110.647 132.012 110.542 131.918Z" fill="#CCCCCC"/>
<path d="M117.143 132.878L99.9485 120.373C99.8268 120.301 99.6825 120.276 99.5438 120.305C99.4051 120.333 99.282 120.412 99.1987 120.527C99.1153 120.641 99.0777 120.783 99.0932 120.924C99.1087 121.064 99.1762 121.194 99.2825 121.288L116.479 133.791C116.6 133.861 116.743 133.884 116.881 133.855C117.018 133.826 117.139 133.747 117.222 133.633C117.304 133.52 117.342 133.38 117.327 133.24C117.313 133.101 117.247 132.972 117.143 132.878Z" fill="#CCCCCC"/>
<path d="M115.045 125.727L102.726 116.766C102.604 116.697 102.461 116.674 102.324 116.704C102.187 116.733 102.066 116.812 101.984 116.925C101.901 117.038 101.864 117.178 101.878 117.317C101.892 117.456 101.958 117.586 102.062 117.68L114.381 126.641C114.502 126.711 114.646 126.733 114.783 126.704C114.92 126.675 115.042 126.596 115.124 126.483C115.207 126.369 115.244 126.229 115.23 126.09C115.215 125.95 115.149 125.821 115.045 125.727Z" fill="#CCCCCC"/>
<path d="M126.558 120.885L114.239 111.924C114.117 111.855 113.974 111.832 113.837 111.862C113.7 111.891 113.579 111.97 113.497 112.083C113.414 112.196 113.377 112.336 113.391 112.475C113.405 112.615 113.471 112.744 113.574 112.838L125.894 121.799C126.015 121.869 126.158 121.891 126.296 121.862C126.433 121.833 126.554 121.754 126.637 121.641C126.719 121.527 126.757 121.387 126.742 121.248C126.728 121.108 126.662 120.979 126.558 120.885Z" fill="#407BFF"/>
<path d="M121.645 126.686L104.451 114.182C104.33 114.109 104.185 114.085 104.046 114.113C103.908 114.142 103.785 114.221 103.701 114.335C103.618 114.45 103.58 114.591 103.596 114.732C103.611 114.873 103.679 115.003 103.785 115.096L120.981 127.6C121.103 127.67 121.246 127.693 121.383 127.663C121.52 127.634 121.642 127.555 121.724 127.442C121.807 127.328 121.844 127.188 121.83 127.049C121.815 126.909 121.75 126.78 121.645 126.686Z" fill="#CCCCCC"/>
<path d="M89.3796 135.364C93.3716 134.185 97.2159 135.289 97.9661 137.829C98.7163 140.37 96.0884 143.385 92.0969 144.564C90.5082 145.057 88.8245 145.163 87.1867 144.871L70.2097 149.655L68.1347 141.64L85.0914 137.775C86.3085 136.641 87.7798 135.814 89.382 135.365L89.3796 135.364Z" fill="#ED9DA0"/>
<path d="M59.3518 106.961L56.6908 138.793L80.5252 139.049L85.151 146.172C85.151 146.172 56.262 162.899 47.5875 154.353C38.9129 145.806 35.054 109.838 42.7662 103.681C50.4785 97.5235 59.3518 106.96 59.3518 106.96V106.961Z" fill="#407BFF"/>
</g>
<defs>
<clipPath id="clip0_201_1554">
<rect width="379" height="301.039" fill="white"/>
</clipPath>
</defs>
</svg>
