<svg width="381" height="381" viewBox="0 0 381 381" fill="none" xmlns="http://www.w3.org/2000/svg">
<g clip-path="url(#clip0_201_2088)">
<path d="M381 291.389H0V291.579H381V291.389Z" fill="#EBEBEB"/>
<path d="M342.824 303.649H317.586V303.84H342.824V303.649Z" fill="#EBEBEB"/>
<path d="M252.39 305.722H245.768V305.912H252.39V305.722Z" fill="#EBEBEB"/>
<path d="M316.824 296.578H302.202V296.769H316.824V296.578Z" fill="#EBEBEB"/>
<path d="M72.8853 297.858H39.9745V298.049H72.8853V297.858Z" fill="#EBEBEB"/>
<path d="M84.4982 297.858H79.6747V298.049H84.4982V297.858Z" fill="#EBEBEB"/>
<path d="M171.564 301.074H100.18V301.264H171.564V301.074Z" fill="#EBEBEB"/>
<path d="M180.594 257.404H33.4594C32.3068 257.402 31.202 256.942 30.3877 256.127C29.5734 255.311 29.116 254.205 29.116 253.053V46.2229C29.1261 45.0769 29.5879 43.9811 30.4011 43.1736C31.2143 42.366 32.3134 41.912 33.4594 41.91H180.594C181.748 41.91 182.855 42.3684 183.671 43.1844C184.487 44.0004 184.945 45.1071 184.945 46.261V253.053C184.945 254.207 184.487 255.313 183.671 256.129C182.855 256.945 181.748 257.404 180.594 257.404ZM33.4594 42.0624C32.3573 42.0644 31.301 42.5037 30.5224 43.2837C29.7438 44.0637 29.3065 45.1208 29.3065 46.2229V253.053C29.3065 254.155 29.7438 255.212 30.5224 255.992C31.301 256.772 32.3573 257.211 33.4594 257.213H180.594C181.697 257.211 182.754 256.772 183.534 255.992C184.314 255.212 184.753 254.155 184.755 253.053V46.2229C184.753 45.1201 184.314 44.063 183.534 43.2832C182.754 42.5034 181.697 42.0644 180.594 42.0624H33.4594Z" fill="#ADADAD"/>
<path d="M345.422 257.404H198.28C197.127 257.402 196.021 256.943 195.206 256.127C194.39 255.311 193.931 254.206 193.929 253.053V46.2229C193.941 45.0762 194.404 43.9804 195.219 43.1731C196.033 42.3658 197.133 41.9119 198.28 41.91H345.422C346.567 41.914 347.664 42.3689 348.476 43.1762C349.287 43.9836 349.748 45.0782 349.758 46.2229V253.053C349.758 254.204 349.302 255.308 348.489 256.124C347.676 256.939 346.573 257.4 345.422 257.404ZM198.28 42.0624C197.177 42.0644 196.12 42.5034 195.34 43.2832C194.56 44.063 194.121 45.1201 194.119 46.2229V253.053C194.121 254.155 194.56 255.212 195.34 255.992C196.12 256.772 197.177 257.211 198.28 257.213H345.422C346.525 257.211 347.582 256.772 348.362 255.992C349.142 255.212 349.581 254.155 349.583 253.053V46.2229C349.581 45.1201 349.142 44.063 348.362 43.2832C347.582 42.5034 346.525 42.0644 345.422 42.0624H198.28Z" fill="#ADADAD"/>
<path d="M171.519 86.8756L179.39 85.725L171.519 84.5744L173.462 81.4959L170.383 83.439L169.233 75.5751L168.082 83.439L165.003 81.4959L166.954 84.5744L159.083 85.725L166.954 86.8756L165.003 89.9541L168.082 88.0034L169.233 95.8748L170.383 88.0034L173.462 89.9541L171.519 86.8756Z" fill="#E6E6E6"/>
<path d="M250.645 107.884L258.508 106.733L250.645 105.583L252.588 102.504L249.509 104.447L248.359 96.5759L247.208 104.447L244.13 102.504L246.08 105.583L238.209 106.733L246.08 107.884L244.13 110.962L247.208 109.012L248.359 116.883L249.509 109.012L252.588 110.962L250.645 107.884Z" fill="#E6E6E6"/>
<path d="M139.979 142.022L147.851 140.871L139.979 139.713L141.93 136.642L138.852 138.585L137.701 130.713L136.55 138.585L133.472 136.642L135.423 139.713L127.551 140.871L135.423 142.022L133.472 145.1L136.55 143.149L137.701 151.021L138.852 143.149L141.93 145.1L139.979 142.022Z" fill="#E6E6E6"/>
<path d="M73.4492 142.022L81.313 140.871L73.4492 139.713L75.3923 136.642L72.3138 138.585L71.1632 130.713L70.0126 138.585L66.9341 136.642L68.8848 139.713L61.0133 140.871L68.8848 142.022L66.9341 145.1L70.0126 143.149L71.1632 151.021L72.3138 143.149L75.3923 145.1L73.4492 142.022Z" fill="#E6E6E6"/>
<path d="M111.138 188.877L119.009 187.726L111.138 186.568L113.088 183.497L110.01 185.44L108.859 177.569L107.701 185.44L104.63 183.497L106.573 186.568L98.7019 187.726L106.573 188.877L104.63 191.955L107.701 190.005L108.859 197.876L110.01 190.005L113.088 191.955L111.138 188.877Z" fill="#E6E6E6"/>
<path d="M265.755 163.647L273.627 162.496L265.755 161.346L267.706 158.267L264.627 160.218L263.477 152.347L262.326 160.218L259.248 158.267L261.191 161.346L253.327 162.496L261.191 163.647L259.248 166.726L262.326 164.782L263.477 172.654L264.627 164.782L267.706 166.726L265.755 163.647Z" fill="#E0E0E0"/>
<path d="M321.274 233.393L329.138 232.235L321.274 231.084L323.218 228.013L320.139 229.956L318.988 222.085L317.838 229.956L314.759 228.013L316.71 231.084L308.839 232.235L316.71 233.393L314.759 236.464L317.838 234.521L318.988 242.392L320.139 234.521L323.218 236.464L321.274 233.393Z" fill="#F5F5F5"/>
<path d="M255.605 230.97L263.477 229.819L255.605 228.661L257.556 225.59L254.478 227.533L253.327 219.662L252.169 227.533L249.098 225.59L251.041 228.661L243.169 229.819L251.041 230.97L249.098 234.048L252.169 232.098L253.327 239.969L254.478 232.098L257.556 234.048L255.605 230.97Z" fill="#F5F5F5"/>
<path d="M111.138 247.368L119.009 246.21L111.138 245.059L113.088 241.981L110.01 243.931L108.859 236.06L107.701 243.931L104.63 241.981L106.573 245.059L98.7019 246.21L106.573 247.368L104.63 250.439L107.701 248.496L108.859 256.367L110.01 248.496L113.088 250.439L111.138 247.368Z" fill="#F5F5F5"/>
<path d="M196.665 211.592L204.536 210.442L196.665 209.291L198.615 206.212L195.537 208.156L194.386 200.292L193.236 208.156L190.157 206.212L192.1 209.291L184.229 210.442L192.1 211.592L190.157 214.671L193.236 212.72L194.386 220.591L195.537 212.72L198.615 214.671L196.665 211.592Z" fill="#F5F5F5"/>
<path d="M152.011 296.349L159.883 295.199L152.011 294.048L153.954 290.97L150.876 292.913L149.725 285.049L148.575 292.913L145.496 290.97L147.447 294.048L139.576 295.199L147.447 296.349L145.496 299.428L148.575 297.477L149.725 305.349L150.876 297.477L153.954 299.428L152.011 296.349Z" fill="#F5F5F5"/>
<path d="M239.573 291.214L247.444 290.063L239.573 288.912L241.516 285.834L238.445 287.785L237.287 279.913L236.136 287.785L233.058 285.834L235.008 288.912L227.137 290.063L235.008 291.214L233.058 294.292L236.136 292.341L237.287 300.213L238.445 292.341L241.516 294.292L239.573 291.214Z" fill="#F5F5F5"/>
<path d="M240.563 149.131C235.885 142.204 233.881 131.338 229.591 127.033C232.912 124.483 236.437 122.21 240.129 120.236C242.758 127.803 244.32 139.545 251.102 142.334C247.78 144.884 244.256 147.157 240.563 149.131Z" fill="#EBEBEB"/>
<path d="M248.488 143.629C247.833 143.195 248 142.342 248.801 141.808C244.107 138.036 242.423 129.258 240.297 122.69C240.123 122.768 239.935 122.809 239.745 122.808C239.555 122.808 239.367 122.766 239.195 122.687C239.022 122.607 238.868 122.491 238.744 122.347C238.62 122.203 238.528 122.034 238.475 121.851C236.247 123.086 234.085 124.437 231.998 125.898C232.161 126.282 232.172 126.713 232.031 127.106C231.89 127.498 231.606 127.823 231.236 128.016C234.414 132.504 236.349 140.787 239.824 146.975C240.214 146.829 240.641 146.816 241.04 146.935C241.439 147.055 241.788 147.302 242.034 147.637C244.254 146.415 246.408 145.077 248.488 143.629ZM237.058 135.941C236.365 134.089 237.005 132.077 238.422 131.422C239.839 130.767 241.47 131.856 242.118 133.754C242.766 135.651 242.263 137.617 240.853 138.242C239.443 138.867 237.744 137.808 237.081 135.941H237.058Z" fill="#E0E0E0"/>
<path d="M134.15 126.401C127.452 130.012 117.295 130.462 113.058 134.059C110.932 130.455 109.078 126.698 107.511 122.819C114.666 121.295 125.6 121.402 128.603 115.161C130.734 118.761 132.589 122.519 134.15 126.401Z" fill="#EBEBEB"/>
<path d="M129.624 117.889C129.182 118.476 128.397 118.194 127.963 117.333C124.153 121.394 115.961 121.829 109.751 122.994C109.818 123.161 109.848 123.341 109.838 123.52C109.828 123.7 109.779 123.875 109.694 124.034C109.609 124.192 109.49 124.33 109.346 124.438C109.202 124.545 109.036 124.619 108.859 124.656C109.766 126.82 110.841 129.098 112.151 131.514C112.738 131.216 113.599 131.681 114.056 132.55C118.407 130.073 126.172 129.327 132.123 126.789C132.006 126.409 132.017 126.001 132.155 125.628C132.293 125.255 132.549 124.937 132.885 124.724C131.986 122.568 130.927 120.297 129.631 117.866L129.624 117.889ZM121.76 128.016C120.958 128.233 120.104 128.153 119.356 127.792C118.607 127.431 118.013 126.813 117.683 126.05C117.173 124.526 118.293 123.147 120.084 122.766C121.874 122.385 123.657 123.154 124.137 124.617C124.617 126.08 123.52 127.574 121.76 128.016Z" fill="#E0E0E0"/>
<path d="M200.627 116.266C194.935 111.199 191.033 101.788 186.202 99.0676C188.859 95.8343 191.755 92.8057 194.866 90.0074C198.745 96.2101 202.395 106.52 209.283 107.198C206.629 110.433 203.736 113.465 200.627 116.266Z" fill="#EBEBEB"/>
<path d="M207.066 109.088C206.372 108.875 206.365 108.044 207.028 107.343C201.93 105.156 198.692 97.6046 195.468 92.202C195.335 92.3236 195.176 92.414 195.003 92.4668C194.831 92.5196 194.648 92.5333 194.47 92.5071C194.291 92.4808 194.121 92.4152 193.97 92.315C193.82 92.2148 193.694 92.0825 193.601 91.9277C191.879 93.5279 190.104 95.311 188.267 97.3836C188.747 97.8332 188.603 98.8009 187.94 99.5248C191.75 102.771 195.118 109.812 199.545 114.529C199.862 114.289 200.249 114.16 200.646 114.16C201.043 114.16 201.43 114.289 201.747 114.529C203.462 112.944 205.229 111.168 207.081 109.118L207.066 109.088ZM194.874 105.156C194.395 104.476 194.177 103.646 194.261 102.819C194.345 101.991 194.725 101.222 195.331 100.653C196.55 99.6696 198.257 100.233 199.24 101.788C200.223 103.342 200.094 105.278 198.882 106.23C197.67 107.183 195.887 106.68 194.897 105.156H194.874Z" fill="#E0E0E0"/>
<path d="M218.488 195.735C215.89 188.58 216.926 178.468 213.992 173.751C217.867 172.181 221.853 170.903 225.918 169.926C226.383 177.226 224.676 188.031 230.414 191.917C226.54 193.487 222.554 194.764 218.488 195.735Z" fill="#EBEBEB"/>
<path d="M227.564 192.496C227.053 191.971 227.449 191.247 228.326 190.972C224.866 186.614 225.636 178.438 225.392 172.128C225.216 172.172 225.033 172.177 224.855 172.142C224.677 172.107 224.509 172.032 224.363 171.924C224.218 171.817 224.098 171.678 224.012 171.518C223.926 171.358 223.877 171.181 223.868 171C221.582 171.587 219.182 172.311 216.576 173.248C216.781 173.873 216.195 174.658 215.265 174.978C217.079 179.649 216.682 187.444 218.313 193.693C218.706 193.638 219.106 193.71 219.454 193.899C219.803 194.089 220.081 194.385 220.249 194.744C222.535 194.165 224.92 193.449 227.518 192.519L227.564 192.496ZM218.74 183.246C218.639 182.421 218.84 181.587 219.307 180.899C219.773 180.211 220.473 179.716 221.277 179.504C222.801 179.215 224.051 180.525 224.173 182.354C224.295 184.183 223.266 185.829 221.75 186.096C220.233 186.362 218.877 185.052 218.74 183.246Z" fill="#E0E0E0"/>
<path d="M319.705 166.581C314.013 161.514 310.111 152.103 305.28 149.382C307.939 146.151 310.835 143.123 313.944 140.322C317.83 146.525 321.48 156.835 328.369 157.513C325.712 160.749 322.816 163.78 319.705 166.581Z" fill="#EBEBEB"/>
<path d="M326.136 159.41C325.435 159.189 325.435 158.359 326.098 157.658C320.985 155.448 317.754 147.919 314.546 142.494C314.413 142.616 314.254 142.706 314.081 142.759C313.908 142.812 313.726 142.825 313.548 142.799C313.369 142.773 313.198 142.707 313.048 142.607C312.898 142.507 312.772 142.375 312.679 142.22C310.957 143.82 309.182 145.603 307.345 147.676C307.825 148.125 307.68 149.093 307.017 149.817C310.827 153.063 314.196 160.104 318.623 164.821C318.94 164.583 319.327 164.454 319.724 164.454C320.121 164.454 320.507 164.583 320.825 164.821C322.539 163.236 324.307 161.46 326.159 159.41H326.136ZM313.944 155.448C313.464 154.77 313.246 153.941 313.33 153.114C313.414 152.288 313.794 151.52 314.401 150.952C315.613 149.962 317.327 150.525 318.303 152.08C319.278 153.634 319.164 155.57 317.952 156.522C316.741 157.475 314.965 156.972 313.944 155.448Z" fill="#E0E0E0"/>
<path d="M315.194 154.968L314.866 155.219L314.676 154.922L314.996 154.671C314.796 154.341 314.68 153.966 314.66 153.581L315.057 153.513C315.067 153.833 315.154 154.146 315.308 154.427L315.879 153.985C315.704 153.513 315.529 152.987 315.933 152.674C316.222 152.446 316.657 152.53 317.061 153.078L317.388 152.827L317.579 153.132L317.259 153.375C317.416 153.65 317.52 153.953 317.563 154.267L317.175 154.335C317.137 154.086 317.06 153.844 316.946 153.619L316.367 154.069C316.55 154.541 316.741 155.067 316.367 155.372C315.994 155.677 315.605 155.517 315.194 154.968ZM316.23 153.711L316.748 153.322C316.55 153.078 316.375 153.048 316.245 153.147C316.116 153.246 316.146 153.459 316.23 153.711ZM316.001 154.915C316.146 154.808 316.108 154.595 316.001 154.335L315.491 154.732C315.712 154.976 315.879 155.014 316.001 154.915Z" fill="#E0E0E0"/>
<path d="M184.724 151.554C179.611 158.145 174.94 165.202 172.875 172.738C169.431 171.313 165.895 169.88 162.443 168.211C165.148 160.371 169.819 153.49 174.292 147.028C177.736 148.453 181.272 149.885 184.724 151.554Z" fill="#EBEBEB"/>
<path d="M175.892 148.339C175.636 148.683 175.275 148.936 174.862 149.058C174.45 149.18 174.01 149.166 173.606 149.017C169.918 154.404 166.23 160.089 163.746 166.39C164.121 166.592 164.413 166.92 164.568 167.317C164.723 167.713 164.731 168.152 164.592 168.554C166.748 169.545 168.928 170.467 171.084 171.366C171.138 171.179 171.232 171.005 171.359 170.856C171.486 170.708 171.643 170.589 171.82 170.506C171.997 170.424 172.189 170.381 172.385 170.379C172.58 170.378 172.773 170.418 172.951 170.498C175.047 164.363 178.727 158.572 182.811 153.093C182.634 153.015 182.477 152.895 182.354 152.745C182.23 152.595 182.144 152.417 182.102 152.228C182.06 152.038 182.063 151.841 182.11 151.652C182.158 151.464 182.25 151.289 182.377 151.143C180.213 150.152 178.041 149.23 175.885 148.331L175.892 148.339ZM175.26 160.782C174.854 161.532 174.186 162.107 173.384 162.396C172.581 162.686 171.7 162.67 170.909 162.352C170.54 162.175 170.213 161.922 169.949 161.61C169.685 161.298 169.489 160.934 169.376 160.541C169.262 160.148 169.233 159.736 169.289 159.331C169.346 158.926 169.488 158.538 169.705 158.191C170.141 157.442 170.832 156.875 171.653 156.595C172.473 156.315 173.367 156.34 174.17 156.667C174.538 156.839 174.864 157.09 175.124 157.401C175.384 157.713 175.573 158.077 175.677 158.47C175.781 158.862 175.798 159.273 175.725 159.672C175.653 160.072 175.495 160.451 175.26 160.782Z" fill="#E0E0E0"/>
<path d="M174.094 159.898L174.506 160.089L174.33 160.393L173.919 160.203C173.72 160.528 173.435 160.791 173.096 160.965L172.814 160.622C173.099 160.48 173.343 160.268 173.523 160.005L172.761 159.662C172.425 160.028 172.037 160.424 171.526 160.18C171.153 160.005 170.978 159.57 171.259 158.961L170.848 158.77L171.023 158.466L171.435 158.656C171.604 158.391 171.834 158.169 172.105 158.008L172.387 158.328C172.171 158.462 171.983 158.635 171.831 158.839L172.593 159.182C172.936 158.816 173.355 158.42 173.85 158.664C174.224 158.854 174.384 159.258 174.094 159.898ZM172.342 159.471L171.686 159.167C171.572 159.448 171.641 159.624 171.801 159.7C171.961 159.776 172.151 159.662 172.342 159.471ZM173.599 159.174C173.416 159.09 173.233 159.212 173.043 159.41L173.698 159.708C173.812 159.418 173.736 159.258 173.599 159.174Z" fill="#E0E0E0"/>
<path d="M314.653 190.63C309.532 197.221 304.869 204.277 302.804 211.813C299.359 210.388 295.824 208.956 292.372 207.287C295.077 199.446 299.748 192.565 304.213 186.103C307.665 187.528 311.201 188.976 314.653 190.63Z" fill="#EBEBEB"/>
<path d="M305.821 187.406C305.566 187.754 305.205 188.008 304.793 188.132C304.38 188.256 303.939 188.242 303.535 188.092C299.847 193.472 296.159 199.164 293.675 205.466C294.052 205.663 294.346 205.989 294.502 206.385C294.659 206.781 294.668 207.22 294.528 207.622C296.685 208.62 298.864 209.535 301.02 210.442C301.073 210.253 301.166 210.079 301.293 209.929C301.42 209.78 301.577 209.661 301.754 209.578C301.932 209.496 302.125 209.452 302.32 209.451C302.516 209.451 302.709 209.492 302.887 209.573C304.983 203.477 308.663 197.648 312.748 192.169C312.57 192.09 312.413 191.971 312.29 191.82C312.167 191.67 312.08 191.493 312.038 191.303C311.996 191.113 311.999 190.916 312.047 190.728C312.094 190.539 312.186 190.365 312.313 190.218C310.157 189.235 307.985 188.313 305.829 187.414L305.821 187.406ZM305.151 199.873C304.744 200.623 304.077 201.197 303.274 201.487C302.472 201.776 301.591 201.76 300.8 201.442C300.43 201.266 300.102 201.014 299.837 200.702C299.572 200.39 299.376 200.026 299.262 199.633C299.149 199.24 299.12 198.827 299.177 198.422C299.234 198.016 299.377 197.628 299.596 197.282C300.041 196.55 300.734 196.002 301.549 195.736C302.364 195.47 303.247 195.505 304.038 195.834C304.396 196.005 304.714 196.252 304.968 196.556C305.223 196.861 305.41 197.217 305.515 197.6C305.621 197.982 305.643 198.384 305.58 198.776C305.517 199.168 305.371 199.542 305.151 199.873Z" fill="#E0E0E0"/>
<path d="M304.038 198.973L304.449 199.164C304.389 199.263 304.328 199.362 304.274 199.469L303.863 199.278C303.657 199.6 303.371 199.863 303.032 200.04L302.758 199.697C303.041 199.553 303.285 199.341 303.466 199.08L302.704 198.737C302.369 199.103 301.981 199.499 301.47 199.255C301.097 199.08 300.921 198.646 301.203 198.036L300.792 197.846C300.845 197.739 300.906 197.64 300.967 197.541L301.379 197.731C301.548 197.464 301.778 197.239 302.049 197.076L302.323 197.404C302.111 197.539 301.925 197.712 301.775 197.914L302.537 198.257C302.88 197.891 303.299 197.495 303.794 197.739C304.152 197.929 304.305 198.356 304.038 198.973ZM302.285 198.547L301.63 198.242C301.516 198.524 301.584 198.699 301.744 198.775C301.904 198.851 302.08 198.737 302.27 198.547H302.285ZM303.543 198.25C303.36 198.166 303.177 198.288 302.986 198.478L303.634 198.783C303.741 198.493 303.687 198.318 303.527 198.25H303.543Z" fill="#E0E0E0"/>
<path d="M281.803 101.849C281.399 93.5355 273.962 87.8129 273.558 79.4995L284.226 75.5751C284.637 83.8886 292.067 89.6112 292.478 97.917L281.803 101.849Z" fill="#EBEBEB"/>
<path d="M290.391 98.0313C290.346 97.597 290.441 97.16 290.662 96.7833C290.882 96.4066 291.217 96.1098 291.617 95.9358C290.33 89.4664 285.178 84.4296 283.906 77.9602C283.729 78.0381 283.536 78.0719 283.343 78.0588C283.15 78.0457 282.963 77.986 282.798 77.8849C282.634 77.7838 282.496 77.6442 282.397 77.4782C282.298 77.3121 282.24 77.1246 282.23 76.9315L275.6 79.3775C275.645 79.8109 275.551 80.2474 275.332 80.6239C275.113 81.0005 274.78 81.2978 274.381 81.473C275.653 87.9424 280.805 92.9869 282.092 99.4562C282.268 99.3782 282.46 99.3441 282.652 99.3568C282.844 99.3694 283.031 99.4285 283.195 99.5289C283.359 99.6294 283.496 99.7681 283.595 99.9333C283.693 100.099 283.751 100.285 283.761 100.477L290.383 98.0313H290.391ZM280.142 89.6493C279.935 89.308 279.808 88.9245 279.77 88.5272C279.732 88.1299 279.784 87.7292 279.922 87.3549C280.061 86.9806 280.282 86.6424 280.569 86.3655C280.857 86.0885 281.203 85.88 281.582 85.7555C282.411 85.4838 283.309 85.5051 284.124 85.8158C284.94 86.1264 285.624 86.7077 286.062 87.4624C286.271 87.8028 286.4 88.186 286.439 88.5833C286.478 88.9805 286.427 89.3815 286.289 89.7561C286.151 90.1308 285.93 90.4694 285.643 90.7465C285.356 91.0236 285.009 91.232 284.63 91.3562C283.796 91.6272 282.894 91.6024 282.077 91.2859C281.259 90.9694 280.576 90.3806 280.142 89.6188V89.6493Z" fill="#E0E0E0"/>
<path d="M281.696 89.4055L281.254 89.5655L281.087 89.2683L281.521 89.1007C281.348 88.7902 281.283 88.4308 281.338 88.0796H281.826C281.776 88.369 281.816 88.6668 281.94 88.933L282.702 88.6435C282.58 88.1939 282.481 87.6986 283.022 87.5005C283.266 87.4311 283.526 87.4478 283.759 87.5477C283.993 87.6476 284.184 87.8246 284.302 88.0491L284.744 87.8891L284.919 88.1939L284.477 88.3539C284.611 88.6122 284.675 88.9014 284.66 89.1921H284.226C284.238 88.9597 284.196 88.7277 284.104 88.5139L283.342 88.8111C283.464 89.2607 283.578 89.756 283.03 89.9541C282.779 90.0391 282.505 90.0304 282.26 89.9296C282.015 89.8287 281.815 89.6425 281.696 89.4055ZM283.22 88.4834L283.914 88.2243C283.723 87.9805 283.525 87.9195 283.35 87.9805C283.174 88.0415 283.152 88.2472 283.205 88.4834H283.22ZM282.694 89.5045C282.885 89.4359 282.885 89.2378 282.832 88.994L282.138 89.2454C282.313 89.5045 282.511 89.5655 282.702 89.5045H282.694Z" fill="#E0E0E0"/>
<path d="M65.8597 200.315C65.4482 192.024 58.0187 186.278 57.6072 177.965L68.2752 174.041C68.6867 182.354 76.1162 188.069 76.5277 196.383L65.8597 200.315Z" fill="#EBEBEB"/>
<path d="M74.4474 196.497C74.4025 196.064 74.4964 195.627 74.7155 195.251C74.9347 194.874 75.2677 194.577 75.6666 194.401C74.3864 187.932 69.2353 182.895 67.9551 176.418C67.7789 176.498 67.5859 176.533 67.3929 176.521C67.1998 176.51 67.0126 176.451 66.8475 176.35C66.6823 176.25 66.5442 176.11 66.4451 175.944C66.346 175.778 66.2889 175.59 66.2787 175.397L59.6493 177.843C59.6942 178.277 59.6003 178.713 59.3812 179.09C59.1621 179.466 58.8291 179.763 58.4301 179.939C59.7103 186.408 64.8614 191.452 66.1416 197.922C66.3178 197.842 66.5108 197.807 66.7039 197.819C66.8969 197.831 67.0841 197.889 67.2493 197.99C67.4144 198.091 67.5526 198.23 67.6517 198.396C67.7508 198.562 67.8079 198.75 67.818 198.943L74.4474 196.497ZM64.1909 188.115C63.984 187.774 63.8569 187.39 63.8189 186.993C63.7809 186.596 63.8331 186.195 63.9715 185.821C64.1099 185.446 64.3311 185.108 64.6184 184.831C64.9058 184.554 65.2519 184.346 65.631 184.221C66.4594 183.951 67.3552 183.974 68.1691 184.284C68.983 184.595 69.6659 185.175 70.104 185.928C70.3125 186.268 70.4411 186.652 70.4804 187.049C70.5196 187.446 70.4684 187.847 70.3306 188.222C70.1927 188.596 69.9719 188.935 69.6845 189.212C69.3972 189.489 69.0508 189.698 68.6714 189.822C67.8387 190.091 66.9386 190.065 66.1227 189.749C65.3067 189.432 64.6246 188.845 64.1909 188.084V188.115Z" fill="#E0E0E0"/>
<path d="M65.7454 187.871L65.3034 188.031L65.1358 187.726L65.5701 187.566C65.4028 187.254 65.3413 186.896 65.3948 186.545H65.8825C65.8286 186.835 65.8686 187.134 65.9968 187.399L66.7588 187.109C66.6293 186.66 66.5302 186.164 67.0789 185.966C67.3228 185.895 67.5837 185.911 67.8172 186.011C68.0506 186.111 68.2421 186.289 68.359 186.515L68.801 186.355L68.9686 186.66L68.5343 186.82C68.6716 187.076 68.7324 187.367 68.7095 187.658H68.2295C68.2412 187.425 68.1994 187.193 68.1076 186.98L67.3456 187.277C67.4751 187.719 67.5818 188.222 67.0408 188.42C66.7947 188.493 66.5309 188.478 66.2945 188.378C66.0581 188.278 65.8639 188.099 65.7454 187.871ZM67.2694 186.949L67.9704 186.69C67.9152 186.592 67.8293 186.515 67.726 186.471C67.6227 186.427 67.5077 186.418 67.3989 186.446C67.2008 186.515 67.2008 186.69 67.2541 186.949H67.2694ZM66.7436 187.97C66.9417 187.902 66.9417 187.703 66.8807 187.452L66.1873 187.711C66.3702 187.97 66.5607 188.031 66.7283 187.97H66.7436Z" fill="#E0E0E0"/>
<path d="M93.0783 101.681C90.1751 109.698 80.1243 109.538 76.8172 116.335C73.7235 113.614 70.7212 111.001 67.7266 108.669C70.6222 100.653 80.6806 100.813 83.9876 94.0156C87.0737 96.774 90.1217 99.3267 93.0783 101.681Z" fill="#EBEBEB"/>
<path d="M85.4659 96.0501C85.0773 96.7664 84.1172 96.7588 83.4161 96.1339C79.8042 100.843 72.4738 101.62 69.1515 107.122C69.4757 107.409 69.6989 107.793 69.7881 108.217C69.8773 108.641 69.8278 109.083 69.6468 109.477C71.5112 111.001 73.406 112.611 75.3313 114.308C75.7199 113.599 76.68 113.599 77.3735 114.224C80.9853 109.515 88.3158 108.737 91.6457 103.236C91.3211 102.95 91.0974 102.568 91.0082 102.145C90.9189 101.722 90.9688 101.281 91.1504 100.889C89.2759 99.3648 87.3785 97.7544 85.4583 96.0577L85.4659 96.0501ZM82.7608 107.48C81.2978 108.242 78.9508 107.815 77.5411 106.512C76.1314 105.209 76.0171 103.464 77.5411 102.702C79.0651 101.94 81.3511 102.367 82.7684 103.678C84.1858 104.988 84.2162 106.726 82.7608 107.495V107.48Z" fill="#E0E0E0"/>
<path d="M81.8083 106.223C81.9455 106.345 82.075 106.459 82.197 106.581L81.915 106.733L81.5264 106.383C81.1697 106.54 80.7789 106.602 80.391 106.566L80.1929 106.162C80.5187 106.199 80.8488 106.155 81.153 106.032L80.4596 105.4C80.2095 105.503 79.9365 105.537 79.6687 105.5C79.4009 105.462 79.1478 105.354 78.9356 105.186C78.8422 105.126 78.7669 105.042 78.7176 104.942C78.6683 104.842 78.6468 104.731 78.6554 104.62C78.6639 104.51 78.7023 104.403 78.7664 104.312C78.8305 104.222 78.9179 104.15 79.0194 104.104L78.6232 103.746L78.9051 103.594L79.2937 103.944C79.5839 103.817 79.8991 103.757 80.2157 103.769L80.4215 104.165C80.1623 104.161 79.9043 104.202 79.6595 104.287L80.3681 104.935C80.6164 104.825 80.8902 104.786 81.1592 104.823C81.4282 104.859 81.6818 104.969 81.8921 105.141C81.9833 105.203 82.0566 105.287 82.1044 105.387C82.1522 105.486 82.1729 105.596 82.1644 105.706C82.1558 105.816 82.1184 105.922 82.0559 106.012C81.9934 106.103 81.908 106.176 81.8083 106.223ZM80.01 105.019L79.3852 104.447C79.3442 104.473 79.3104 104.508 79.2869 104.55C79.2635 104.592 79.2511 104.639 79.2511 104.687C79.2511 104.735 79.2635 104.783 79.2869 104.825C79.3104 104.867 79.3442 104.902 79.3852 104.927C79.4767 104.986 79.5799 105.025 79.6877 105.041C79.7955 105.057 79.9054 105.049 80.01 105.019ZM81.4578 105.407C81.3606 105.342 81.2496 105.299 81.1332 105.283C81.0169 105.267 80.8985 105.279 80.7872 105.316L81.4045 105.88C81.6483 105.712 81.6407 105.545 81.4883 105.407H81.4578Z" fill="#E0E0E0"/>
<path d="M100.889 215.052C97.9932 223.068 87.9348 222.908 84.6277 229.705C81.5797 226.985 78.5317 224.371 75.537 222.039C78.4403 214.023 88.4911 214.183 91.7981 207.386C94.8918 210.106 97.9322 212.697 100.889 215.052Z" fill="#EBEBEB"/>
<path d="M93.2764 209.42C92.8878 210.129 91.9353 210.129 91.2343 209.504C87.6224 214.213 80.2919 214.991 76.962 220.492C77.2886 220.778 77.514 221.162 77.6046 221.586C77.6952 222.01 77.6463 222.453 77.4649 222.847C79.3318 224.371 81.2292 226.002 83.1494 227.678C83.5304 226.969 84.4906 226.969 85.1916 227.594C88.7959 222.885 96.1339 222.1 99.4562 216.606C99.1316 216.321 98.908 215.938 98.8187 215.515C98.7294 215.092 98.7793 214.651 98.9609 214.259C97.0966 212.735 95.2017 211.125 93.2764 209.428V209.42ZM90.5713 220.85C89.1159 221.612 86.7613 221.186 85.3592 219.883C83.9572 218.58 83.8352 216.835 85.3592 216.073C86.8832 215.311 89.1692 215.737 90.5789 217.048C91.9886 218.359 92.0267 220.096 90.5713 220.866V220.85Z" fill="#E0E0E0"/>
<path d="M89.6264 219.593L90.0151 219.951C89.916 219.997 89.8246 220.05 89.7331 220.104L89.3445 219.746C88.9862 219.906 88.5925 219.972 88.2015 219.936C88.1405 219.799 88.072 219.669 88.011 219.532C88.3368 219.569 88.6667 219.525 88.9711 219.403L88.2701 218.77C88.0193 218.872 87.746 218.905 87.4781 218.866C87.2103 218.828 86.9576 218.718 86.7461 218.549C86.6547 218.488 86.5811 218.404 86.5331 218.305C86.485 218.207 86.4642 218.097 86.4727 217.987C86.4813 217.878 86.5189 217.773 86.5817 217.683C86.6445 217.592 86.7301 217.521 86.8299 217.475L86.4413 217.117L86.7232 216.964L87.1118 217.315C87.3999 217.189 87.7118 217.126 88.0262 217.132C88.0948 217.269 88.171 217.399 88.2396 217.528C87.9799 217.525 87.7218 217.569 87.4776 217.658L88.1786 218.298C88.4288 218.195 88.7017 218.16 88.9695 218.198C89.2374 218.235 89.4904 218.344 89.7026 218.511C89.7941 218.572 89.8678 218.657 89.9162 218.756C89.9646 218.854 89.9861 218.964 89.9783 219.074C89.9706 219.184 89.934 219.29 89.8722 219.381C89.8104 219.472 89.7256 219.545 89.6264 219.593ZM87.851 218.382L87.2338 217.818C87.0204 217.985 87.0433 218.153 87.2338 218.298C87.3249 218.354 87.427 218.391 87.5334 218.406C87.6398 218.42 87.748 218.412 87.851 218.382ZM89.2988 218.778C89.2032 218.708 89.092 218.664 88.975 218.648C88.858 218.632 88.7389 218.645 88.6282 218.686L89.2454 219.25C89.4588 219.083 89.4512 218.915 89.2988 218.778Z" fill="#E0E0E0"/>
<path d="M238.399 135.788L238.018 135.948C237.98 135.827 237.935 135.705 237.889 135.575L238.262 135.415C238.129 135.021 238.089 134.6 238.148 134.188L238.559 134.242C238.508 134.58 238.532 134.926 238.628 135.255L239.291 134.965C239.207 134.424 239.138 133.83 239.611 133.632C239.954 133.48 240.373 133.693 240.662 134.394L241.036 134.226L241.173 134.6L240.8 134.76C240.905 135.087 240.946 135.431 240.922 135.773L240.518 135.727C240.533 135.455 240.505 135.183 240.434 134.92L239.763 135.209C239.847 135.75 239.931 136.352 239.466 136.55C239.123 136.688 238.704 136.474 238.399 135.788ZM239.702 134.798L240.297 134.539C240.144 134.234 239.977 134.142 239.832 134.211C239.687 134.28 239.664 134.508 239.702 134.798ZM239.222 135.971C239.39 135.903 239.398 135.666 239.352 135.369L238.765 135.628C238.917 135.941 239.085 136.032 239.222 135.971Z" fill="#E0E0E0"/>
<path d="M121.699 126.667C121.745 126.789 121.783 126.926 121.829 127.056L121.478 127.132C121.432 127.003 121.394 126.873 121.356 126.743C120.976 126.82 120.583 126.799 120.213 126.682C120.213 126.553 120.267 126.423 120.289 126.286C120.593 126.389 120.917 126.418 121.234 126.37C121.158 126.141 121.082 125.905 121.013 125.677C120.503 125.677 119.954 125.677 119.794 125.181C119.687 124.823 119.908 124.419 120.556 124.259C120.518 124.13 120.472 124 120.434 123.863L120.785 123.787C120.785 123.916 120.868 124.046 120.907 124.176C121.216 124.114 121.534 124.114 121.844 124.176C121.844 124.305 121.844 124.435 121.783 124.564C121.531 124.522 121.273 124.522 121.021 124.564C121.089 124.8 121.166 125.029 121.242 125.265C121.745 125.265 122.309 125.265 122.453 125.738C122.583 126.081 122.354 126.492 121.699 126.667ZM120.876 125.258C120.815 125.052 120.747 124.838 120.686 124.64C120.388 124.739 120.297 124.892 120.35 125.044C120.404 125.197 120.609 125.25 120.876 125.258ZM121.935 125.882C121.882 125.707 121.661 125.677 121.387 125.669C121.455 125.875 121.516 126.081 121.585 126.286C121.92 126.18 121.981 126.027 121.92 125.882H121.935Z" fill="#E0E0E0"/>
<path d="M196.116 104.653L195.788 104.905L195.598 104.607L195.918 104.356C195.718 104.026 195.603 103.652 195.583 103.266L195.979 103.198C195.99 103.518 196.076 103.831 196.23 104.112L196.809 103.67C196.627 103.198 196.451 102.672 196.855 102.359C197.259 102.047 197.617 102.215 197.983 102.763L198.311 102.512L198.501 102.817L198.181 103.06C198.339 103.336 198.442 103.638 198.486 103.952L198.097 104.021C198.059 103.771 197.982 103.53 197.869 103.304L197.289 103.754C197.472 104.226 197.663 104.752 197.289 105.057C196.916 105.362 196.527 105.202 196.116 104.653ZM197.152 103.396L197.67 103.007C197.472 102.763 197.297 102.733 197.168 102.824C197.038 102.916 197.068 103.144 197.152 103.396ZM196.931 104.6C197.068 104.493 197.03 104.28 196.931 104.021L196.421 104.409C196.634 104.661 196.802 104.699 196.931 104.6Z" fill="#E0E0E0"/>
<path d="M220.043 183.383L219.639 183.451C219.639 183.33 219.639 183.208 219.639 183.093L220.043 183.025C220.026 182.638 220.104 182.254 220.271 181.905L220.652 182.042C220.507 182.325 220.431 182.638 220.431 182.956L221.155 182.842C221.216 182.339 221.315 181.798 221.818 181.714C222.184 181.653 222.519 181.927 222.618 182.606L223.022 182.545V182.903L222.626 182.964C222.637 183.281 222.585 183.597 222.473 183.893L222.092 183.772C222.185 183.528 222.234 183.27 222.237 183.01L221.513 183.131C221.445 183.634 221.369 184.183 220.866 184.267C220.492 184.335 220.149 184.061 220.043 183.383ZM221.567 182.773L222.207 182.667C222.146 182.362 222.009 182.255 221.849 182.278C221.689 182.301 221.605 182.507 221.559 182.773H221.567ZM220.805 183.726C220.98 183.726 221.049 183.49 221.094 183.215L220.454 183.314C220.5 183.642 220.629 183.749 220.782 183.726H220.805Z" fill="#E0E0E0"/>
<path d="M190.5 325.801C272.097 325.801 338.244 321.939 338.244 317.175C338.244 312.411 272.097 308.549 190.5 308.549C108.903 308.549 42.7558 312.411 42.7558 317.175C42.7558 321.939 108.903 325.801 190.5 325.801Z" fill="#E6E6E6"/>
<path d="M131.003 94.8004C123.711 90.7161 117.036 81.9074 111.29 80.01C113.106 76.2398 115.235 72.628 117.653 69.2125C123.398 74.7827 130.073 84.5744 137.366 83.9953C135.545 87.7654 133.417 91.3793 131.003 94.8004Z" fill="#407BFF"/>
<path opacity="0.5" d="M131.003 94.8004C123.711 90.7161 117.036 81.9074 111.29 80.01C113.106 76.2398 115.235 72.628 117.653 69.2125C123.398 74.7827 130.073 84.5744 137.366 83.9953C135.545 87.7654 133.417 91.3793 131.003 94.8004Z" fill="white"/>
<path opacity="0.2" d="M135.636 86.327C134.874 86.2355 134.623 85.3973 135.095 84.5591C129.212 83.2942 123.756 76.1771 118.91 71.2927C118.791 71.4418 118.642 71.5634 118.471 71.6491C118.301 71.7348 118.114 71.7826 117.924 71.7891C117.733 71.7956 117.544 71.7607 117.368 71.6869C117.192 71.613 117.035 71.5019 116.906 71.3613C115.472 73.4687 114.147 75.6483 112.936 77.8916C113.253 78.1616 113.458 78.5409 113.509 78.9545C113.559 79.368 113.453 79.7856 113.21 80.1243C118.064 82.7151 123.513 89.2683 129.403 93.2078C129.686 92.898 130.064 92.6905 130.477 92.6175C130.891 92.5444 131.317 92.61 131.689 92.804C133.119 90.7113 134.442 88.5469 135.651 86.3193L135.636 86.327ZM121.966 84.582C120.518 83.2333 120.183 81.153 121.158 79.9338C122.133 78.7146 124.061 78.9584 125.509 80.3529C126.957 81.7473 127.368 83.7362 126.393 84.9249C125.418 86.1136 123.444 85.946 121.966 84.582Z" fill="black"/>
<g opacity="0.2">
<path d="M123.071 83.82L122.812 84.1324L122.522 83.8657C122.613 83.759 122.697 83.6524 122.789 83.5533C122.49 83.2593 122.266 82.899 122.133 82.5017L122.53 82.3646C122.631 82.6939 122.806 82.9961 123.04 83.2485L123.505 82.6846C123.185 82.2427 122.857 81.7397 123.185 81.3511C123.513 80.9625 123.894 81.0692 124.465 81.5492C124.557 81.4502 124.64 81.3435 124.732 81.2368L125.014 81.5111L124.755 81.8235C124.994 82.0644 125.186 82.3489 125.319 82.6618L124.938 82.8142C124.831 82.5612 124.684 82.327 124.503 82.1207L124.031 82.6846C124.351 83.1266 124.694 83.6295 124.366 84.0181C124.038 84.4067 123.657 84.3229 123.071 83.82ZM123.833 82.3493L124.244 81.854C123.977 81.6483 123.787 81.6483 123.688 81.7702C123.589 81.8921 123.635 82.136 123.795 82.3798L123.833 82.3493ZM123.939 83.6143C124.054 83.4771 123.939 83.2713 123.779 83.0199L123.368 83.5152C123.612 83.759 123.795 83.7666 123.901 83.6447L123.939 83.6143Z" fill="black"/>
</g>
<path d="M193.548 127.048C186.842 130.66 176.693 131.117 172.456 134.706C170.33 131.097 168.48 127.333 166.924 123.444C174.079 121.92 185.014 122.019 188.016 115.778C190.141 119.39 191.99 123.158 193.548 127.048Z" fill="#407BFF"/>
<path opacity="0.5" d="M193.548 127.048C186.842 130.66 176.693 131.117 172.456 134.706C170.33 131.097 168.48 127.333 166.924 123.444C174.079 121.92 185.014 122.019 188.016 115.778C190.141 119.39 191.99 123.158 193.548 127.048Z" fill="white"/>
<path opacity="0.2" d="M189.029 118.544C188.587 119.123 187.81 118.842 187.376 117.988C183.566 122.042 175.367 122.484 169.164 123.642C169.231 123.81 169.261 123.991 169.251 124.171C169.24 124.352 169.191 124.528 169.105 124.687C169.019 124.846 168.899 124.984 168.754 125.092C168.609 125.2 168.442 125.275 168.265 125.311C169.179 127.475 170.246 129.746 171.557 132.169C172.151 131.872 173.012 132.337 173.462 133.213C177.82 130.736 185.585 129.99 191.529 127.452C191.416 127.071 191.43 126.663 191.567 126.29C191.704 125.916 191.958 125.597 192.291 125.379C191.384 123.223 190.325 120.96 189.029 118.521V118.544ZM181.165 128.626C180.364 128.847 179.51 128.769 178.761 128.408C178.013 128.046 177.421 127.425 177.096 126.66C176.586 125.181 177.698 123.764 179.497 123.375C181.295 122.987 183.063 123.772 183.543 125.235C184.023 126.698 182.933 128.222 181.165 128.626Z" fill="black"/>
<g opacity="0.2">
<path d="M181.112 127.315C181.158 127.444 181.196 127.574 181.234 127.704L180.884 127.787C180.884 127.658 180.8 127.528 180.762 127.399C180.381 127.471 179.989 127.45 179.619 127.338C179.619 127.201 179.672 127.071 179.702 126.942C180.003 127.046 180.326 127.072 180.64 127.018C180.571 126.789 180.495 126.561 180.419 126.324C179.916 126.324 179.36 126.324 179.207 125.829C179.093 125.479 179.314 125.105 179.969 124.907C179.923 124.777 179.885 124.648 179.84 124.518L180.198 124.442C180.198 124.572 180.274 124.701 180.32 124.831C180.629 124.766 180.948 124.766 181.257 124.831L181.188 125.219C180.936 125.177 180.679 125.177 180.426 125.219C180.503 125.448 180.579 125.684 180.647 125.92C181.158 125.92 181.714 125.92 181.867 126.393C181.996 126.728 181.767 127.109 181.112 127.315ZM180.289 125.905C180.221 125.7 180.16 125.494 180.091 125.288C179.802 125.395 179.71 125.547 179.756 125.7C179.802 125.852 180.023 125.898 180.289 125.905ZM181.341 126.53C181.287 126.362 181.074 126.324 180.8 126.324C180.861 126.53 180.929 126.736 180.99 126.934C181.295 126.827 181.356 126.682 181.356 126.53H181.341Z" fill="black"/>
</g>
<path d="M248.359 79.0346C240.449 81.7016 232.669 85.0011 226.779 90.1446C224.691 87.0509 222.542 83.9038 220.584 80.6044C227.175 75.5675 234.864 72.39 242.164 69.4944C244.252 72.5881 246.4 75.7352 248.359 79.0346Z" fill="#407BFF"/>
<path opacity="0.5" d="M248.359 79.0346C240.449 81.7016 232.669 85.0011 226.779 90.1446C224.691 87.0509 222.542 83.9038 220.584 80.6044C227.175 75.5675 234.864 72.39 242.164 69.4944C244.252 72.5881 246.4 75.7352 248.359 79.0346Z" fill="white"/>
<path opacity="0.2" d="M242.773 71.468C242.369 71.6169 241.926 71.6297 241.514 71.5046C241.101 71.3794 240.741 71.1231 240.487 70.7746C234.437 73.2206 228.219 75.9257 222.672 79.8043C222.878 80.1797 222.944 80.6168 222.856 81.0363C222.768 81.4558 222.532 81.8298 222.192 82.0903C223.441 84.1096 224.744 86.0755 226.047 88.0186C226.196 87.8913 226.37 87.7976 226.558 87.7439C226.746 87.6902 226.943 87.6777 227.136 87.7074C227.33 87.7371 227.514 87.8082 227.677 87.9158C227.841 88.0235 227.979 88.1651 228.082 88.331C233.218 84.3686 239.512 81.5797 245.913 79.2709C245.808 79.1065 245.743 78.9197 245.724 78.7257C245.705 78.5317 245.731 78.3359 245.802 78.1541C245.872 77.9724 245.985 77.8097 246.13 77.6794C246.275 77.5491 246.448 77.4547 246.637 77.404C245.387 75.3923 244.076 73.4263 242.781 71.4832L242.773 71.468ZM235.336 81.4883C234.583 81.8895 233.708 81.9994 232.879 81.797C232.05 81.5946 231.324 81.0941 230.84 80.391C230.63 80.0403 230.496 79.6491 230.448 79.243C230.4 78.837 230.438 78.4253 230.561 78.0351C230.683 77.645 230.887 77.2851 231.158 76.9793C231.43 76.6735 231.763 76.4287 232.136 76.261C232.917 75.8759 233.811 75.788 234.653 76.0138C235.494 76.2395 236.224 76.7634 236.708 77.4878C236.912 77.8339 237.039 78.2202 237.08 78.6201C237.121 79.0199 237.074 79.4239 236.944 79.8041C236.813 80.1843 236.602 80.5318 236.325 80.8225C236.047 81.1133 235.71 81.3404 235.336 81.4883Z" fill="black"/>
<g opacity="0.2">
<path d="M234.894 80.1167L235.13 80.5053L234.81 80.6577L234.574 80.2767C234.225 80.4395 233.838 80.5053 233.454 80.4672C233.454 80.3224 233.454 80.17 233.416 80.0252C233.731 80.0657 234.051 80.0237 234.345 79.9033C234.208 79.6671 234.064 79.4385 233.919 79.2099C233.431 79.3318 232.898 79.4385 232.608 78.9584C232.387 78.6079 232.486 78.1507 233.058 77.8002L232.814 77.404L233.134 77.2516L233.37 77.6326C233.658 77.5087 233.971 77.4514 234.284 77.4649C234.284 77.6021 234.323 77.7469 234.345 77.8916C234.087 77.882 233.828 77.9207 233.583 78.0059L234.01 78.707C234.498 78.5927 235.046 78.486 235.344 78.9661C235.572 79.3166 235.458 79.7585 234.894 80.1167ZM233.667 78.7908L233.286 78.1736C233.035 78.3488 232.997 78.5317 233.088 78.6841C233.18 78.8365 233.401 78.8441 233.667 78.7908ZM234.879 79.2328C234.772 79.0651 234.551 79.0727 234.284 79.1261L234.658 79.7357C234.917 79.5604 234.97 79.3852 234.879 79.248V79.2328Z" fill="black"/>
</g>
<path d="M109.103 160.271C103.342 154.267 93.9775 154.831 88.2167 148.841C90.0303 145.529 91.8464 142.215 93.665 138.897C99.4258 144.902 108.791 144.346 114.551 150.327C112.738 153.645 110.922 156.959 109.103 160.271Z" fill="#407BFF"/>
<path opacity="0.5" d="M109.103 160.271C103.342 154.267 93.9775 154.831 88.2167 148.841C90.0303 145.529 91.8464 142.215 93.665 138.897C99.4258 144.902 108.791 144.346 114.551 150.327C112.738 153.645 110.922 156.959 109.103 160.271Z" fill="white"/>
<path opacity="0.2" d="M113.081 151.76C112.76 151.463 112.543 151.071 112.461 150.642C112.379 150.213 112.436 149.769 112.624 149.375C107.412 145.336 100.218 144.917 95.0062 140.871C94.9245 141.046 94.8013 141.199 94.6474 141.315C94.4935 141.432 94.3134 141.51 94.1228 141.541C93.9322 141.573 93.7367 141.557 93.5534 141.496C93.3701 141.435 93.2044 141.33 93.0707 141.191L89.6798 147.394C89.9973 147.691 90.2119 148.082 90.2928 148.509C90.3736 148.936 90.3164 149.378 90.1294 149.771C95.3414 153.817 102.535 154.236 107.747 158.283C107.828 158.107 107.95 157.954 108.104 157.836C108.257 157.719 108.437 157.64 108.628 157.608C108.819 157.576 109.014 157.59 109.198 157.651C109.382 157.711 109.548 157.816 109.682 157.955L113.073 151.76H113.081ZM99.822 152.141C99.4422 152.018 99.0949 151.812 98.8058 151.537C98.5168 151.261 98.2933 150.925 98.1521 150.552C98.0108 150.178 97.9554 149.778 97.9899 149.38C98.0244 148.983 98.1479 148.598 98.3513 148.255C98.8006 147.503 99.4951 146.929 100.318 146.629C101.141 146.329 102.042 146.322 102.87 146.609C103.25 146.729 103.598 146.933 103.888 147.206C104.178 147.48 104.402 147.815 104.545 148.187C104.687 148.559 104.743 148.959 104.709 149.356C104.675 149.753 104.552 150.137 104.348 150.48C103.901 151.236 103.206 151.815 102.381 152.117C101.556 152.42 100.652 152.428 99.822 152.141Z" fill="black"/>
<g opacity="0.2">
<path d="M100.851 150.96C100.782 151.097 100.706 151.234 100.63 151.371L100.302 151.249L100.523 150.846C100.19 150.72 99.9067 150.49 99.7154 150.19L100.096 149.885C100.25 150.135 100.476 150.331 100.744 150.449C100.874 150.205 101.011 149.962 101.148 149.687C100.759 149.428 100.386 149.123 100.637 148.613C100.775 148.399 100.983 148.241 101.225 148.164C101.467 148.088 101.728 148.098 101.963 148.194L102.192 147.775L102.52 147.897L102.291 148.3C102.563 148.406 102.801 148.585 102.977 148.819L102.611 149.123C102.466 148.944 102.284 148.799 102.078 148.697L101.674 149.459C102.062 149.718 102.436 150.023 102.192 150.533C102.052 150.748 101.842 150.908 101.597 150.985C101.353 151.063 101.089 151.054 100.851 150.96ZM101.384 149.276L101.742 148.62C101.437 148.56 101.247 148.62 101.163 148.811C101.079 149.001 101.194 149.123 101.384 149.276ZM101.666 150.388C101.765 150.205 101.666 150.061 101.43 149.908L101.072 150.556C101.384 150.625 101.575 150.541 101.666 150.388Z" fill="black"/>
</g>
<path d="M297.584 129.723C292.143 136.291 282.771 132.771 277.33 138.021C275.341 134.417 273.352 130.95 271.363 127.734C276.804 121.166 286.177 124.686 291.617 119.436C293.606 123.04 295.595 126.492 297.584 129.723Z" fill="#407BFF"/>
<path opacity="0.5" d="M297.584 129.723C292.143 136.291 282.771 132.771 277.33 138.021C275.341 134.417 273.352 130.95 271.363 127.734C276.804 121.166 286.177 124.686 291.617 119.436C293.606 123.04 295.595 126.492 297.584 129.723Z" fill="white"/>
<path opacity="0.2" d="M292.318 121.851C291.716 122.392 290.794 122.065 290.368 121.234C285.377 124.45 278.214 122.705 273.23 126.759C273.438 127.139 273.518 127.576 273.459 128.005C273.4 128.434 273.205 128.833 272.903 129.144C274.137 131.224 275.379 133.388 276.621 135.613C277.223 135.072 278.145 135.4 278.572 136.223C283.555 133.007 290.718 134.752 295.709 130.706C295.5 130.327 295.419 129.891 295.478 129.463C295.537 129.034 295.733 128.636 296.037 128.328C294.795 126.256 293.553 124.084 292.318 121.859V121.851ZM285.91 131.712C284.279 131.933 282.245 130.752 281.338 129.037C280.431 127.323 280.972 125.654 282.595 125.425C284.218 125.197 286.268 126.393 287.167 128.107C288.066 129.822 287.541 131.483 285.91 131.712Z" fill="black"/>
<g opacity="0.2">
<path d="M285.445 130.195L285.689 130.66L285.377 130.706L285.125 130.241C284.735 130.273 284.344 130.203 283.99 130.035L283.944 129.586C284.237 129.732 284.562 129.803 284.889 129.791L284.455 128.961C284.188 128.969 283.924 128.908 283.688 128.782C283.453 128.656 283.255 128.471 283.113 128.245C283.048 128.156 283.007 128.052 282.995 127.943C282.983 127.834 283.001 127.724 283.046 127.623C283.091 127.523 283.162 127.437 283.252 127.373C283.341 127.31 283.446 127.271 283.555 127.262L283.304 126.789L283.624 126.743L283.868 127.208C284.184 127.186 284.501 127.233 284.797 127.345C284.797 127.498 284.836 127.643 284.858 127.787C284.615 127.696 284.356 127.652 284.096 127.658L284.546 128.496C284.812 128.487 285.076 128.547 285.311 128.672C285.546 128.796 285.745 128.98 285.887 129.205C285.952 129.294 285.993 129.398 286.004 129.508C286.016 129.617 285.998 129.728 285.953 129.828C285.909 129.929 285.838 130.016 285.749 130.08C285.659 130.145 285.555 130.184 285.445 130.195ZM284.226 128.458L283.83 127.696C283.578 127.787 283.54 127.955 283.639 128.138C283.703 128.235 283.79 128.316 283.893 128.371C283.995 128.427 284.109 128.457 284.226 128.458ZM285.46 129.311C285.391 129.216 285.301 129.139 285.196 129.085C285.092 129.03 284.976 129.001 284.858 128.999L285.247 129.761C285.468 129.654 285.514 129.494 285.422 129.311H285.46Z" fill="black"/>
</g>
<path d="M264.414 180.99C242.661 222.942 213.807 260.809 179.131 292.913L125.859 252.313C160.56 220.216 189.435 182.349 211.204 140.391L264.414 180.99Z" fill="#407BFF"/>
<path opacity="0.2" d="M264.414 180.99C262.626 184.45 260.782 187.879 258.882 191.277C237.851 229.167 210.932 263.474 179.131 292.913L125.859 252.313C160.56 220.216 189.435 182.349 211.204 140.391L264.414 180.99Z" fill="white"/>
<path opacity="0.2" d="M219.532 151.234C219.025 152.26 218.293 153.159 217.39 153.863C216.488 154.568 215.438 155.06 214.32 155.303C213.201 155.546 212.042 155.534 210.929 155.267C209.815 155.001 208.776 154.487 207.889 153.764C189.001 187.559 165.413 218.502 137.831 245.669C138.769 246.328 139.545 247.191 140.101 248.193C140.657 249.195 140.978 250.311 141.041 251.455C141.103 252.6 140.905 253.743 140.461 254.8C140.017 255.857 139.339 256.799 138.478 257.556L171.679 282.862C173.545 281.162 175.937 280.151 178.457 279.999C180.977 279.846 183.474 280.561 185.532 282.024C213.117 254.859 236.705 223.916 255.59 190.119C251.59 187.071 250.363 181.021 252.733 176.54L252.771 176.472L219.563 151.166L219.532 151.234ZM213.436 231.648C207.165 239.855 195.087 241.173 186.911 234.94C178.735 228.707 177.516 217.261 183.794 209.032C190.073 200.802 201.45 198.973 209.641 205.222C217.833 211.47 219.753 223.441 213.467 231.648H213.436Z" fill="black"/>
<g opacity="0.2">
<path d="M207.736 224.79L209.939 226.466L208.704 228.082L206.502 226.398C204.909 228.242 202.829 229.613 201.168 229.949L199.873 227.564C201.62 227.091 203.194 226.125 204.406 224.782L200.475 221.788C198.28 223.571 195.743 225.354 193.015 223.266C191.011 221.742 190.409 218.976 192.466 215.684L190.249 213.992C190.66 213.459 191.071 212.918 191.475 212.377L193.655 214.038C194.785 212.672 196.231 211.602 197.869 210.922L199.248 213.253C197.938 213.804 196.757 214.622 195.781 215.654L199.743 218.702C201.938 216.911 204.406 215.021 207.134 217.101C209.131 218.603 209.771 221.422 207.736 224.79ZM198.12 219.982L194.622 217.315C193.769 218.877 194.013 220.005 194.881 220.66C195.75 221.315 196.893 220.866 198.12 219.982ZM205.435 219.761C204.475 218.999 203.37 219.555 202.136 220.523L205.61 223.175C206.502 221.529 206.266 220.408 205.42 219.761H205.435Z" fill="black"/>
</g>
<path opacity="0.2" d="M258.905 191.262C237.869 229.159 210.941 263.471 179.131 292.913C179.131 292.913 156.56 258.478 147.195 252.077C147.195 252.077 219.906 225.095 258.905 191.262Z" fill="black"/>
<path d="M315.285 237.035C279.848 268.305 239.264 293.201 195.331 310.622L160.279 253.533C204.211 236.114 244.793 211.217 280.225 179.946C291.92 198.981 303.606 218.011 315.285 237.035Z" fill="#407BFF"/>
<path opacity="0.3" d="M315.285 237.035C279.848 268.305 239.264 293.201 195.331 310.622L180.19 285.948C173.586 275.153 166.959 264.35 160.31 253.54C204.241 236.122 244.823 211.225 280.256 179.954C291.93 198.984 303.606 218.011 315.285 237.035Z" fill="white"/>
<path opacity="0.2" d="M284.142 193.076C283.304 193.858 282.3 194.44 281.205 194.777C280.11 195.115 278.952 195.2 277.819 195.025C276.686 194.85 275.608 194.421 274.665 193.769C273.723 193.117 272.94 192.26 272.377 191.262C242.562 215.961 209.395 236.306 173.866 251.689C174.503 252.641 174.916 253.726 175.073 254.861C175.23 255.997 175.127 257.153 174.772 258.243C174.417 259.333 173.819 260.328 173.023 261.152C172.227 261.977 171.254 262.61 170.177 263.004L192.024 298.559C194.378 297.648 196.974 297.569 199.379 298.337C201.784 299.105 203.854 300.673 205.245 302.781C240.777 287.404 273.945 267.059 303.756 242.354C301.12 238.072 302.163 231.983 305.989 228.638L306.05 228.585L284.226 193.022L284.142 193.076ZM249.471 265.877C240.655 271.272 228.897 268.163 223.563 259.377C218.229 250.591 221.186 239.497 230.002 234.109C238.818 228.722 250.096 231.061 255.483 239.878C260.871 248.694 258.318 260.497 249.471 265.877Z" fill="black"/>
<g opacity="0.2">
<path d="M246.606 257.396L248.054 259.758L246.316 260.817C245.844 260.055 245.364 259.293 244.884 258.486C242.735 259.621 240.312 260.154 238.613 259.865C238.498 258.966 238.384 258.067 238.262 257.167C240.061 257.356 241.875 257.022 243.489 256.207C242.631 254.805 241.772 253.403 240.914 252.001C238.216 252.87 235.214 253.609 233.416 250.683C232.098 248.534 232.532 245.737 235.641 243.413L234.185 241.036L235.915 239.969L237.348 242.308C238.894 241.443 240.628 240.967 242.4 240.922C242.552 241.813 242.697 242.705 242.849 243.589C241.427 243.637 240.03 243.974 238.742 244.579L241.348 248.831C244.046 247.955 247.025 247.086 248.816 250.005C250.134 252.153 249.707 255.011 246.606 257.396ZM239.352 249.456C238.585 248.206 237.823 246.957 237.066 245.707C235.702 246.858 235.542 247.993 236.098 248.923C236.654 249.852 237.904 249.845 239.352 249.456ZM246.248 251.894C245.615 250.858 244.396 250.957 242.91 251.376L245.196 255.102C246.598 253.921 246.804 252.793 246.248 251.894Z" fill="black"/>
</g>
<path opacity="0.2" d="M315.285 237.035C279.848 268.305 239.264 293.201 195.331 310.622L180.19 285.948L177.546 247.719C177.546 247.719 261.595 253.784 315.285 237.035Z" fill="black"/>
<path d="M325.45 311.026C279.45 321.863 231.921 324.655 184.968 319.278C183.667 296.992 182.362 274.704 181.051 252.412C228.014 257.801 275.555 255.009 321.564 244.16C322.849 266.451 324.145 288.74 325.45 311.026Z" fill="#407BFF"/>
<path opacity="0.4" d="M325.45 311.026C279.45 321.863 231.921 324.655 184.968 319.278C183.667 296.992 182.362 274.704 181.051 252.412C228.014 257.801 275.555 255.009 321.564 244.16C322.849 266.451 324.145 288.74 325.45 311.026Z" fill="white"/>
<path opacity="0.2" d="M318.76 257.556C317.651 257.839 316.492 257.869 315.37 257.643C314.248 257.417 313.192 256.941 312.279 256.251C311.366 255.56 310.62 254.673 310.097 253.655C309.574 252.637 309.287 251.514 309.258 250.37C271.315 258.067 232.472 260.337 193.891 257.114C194.002 258.255 193.854 259.406 193.456 260.481C193.058 261.556 192.421 262.527 191.593 263.32C190.766 264.113 189.769 264.708 188.678 265.06C187.587 265.411 186.431 265.511 185.296 265.351C186.113 279.245 186.926 293.139 187.734 307.033C190.24 307.338 192.567 308.493 194.325 310.305C196.083 312.117 197.167 314.477 197.396 316.992C235.977 320.215 274.82 317.945 312.763 310.248C312.466 305.227 316.26 300.342 321.206 299.23H321.282L318.836 257.556H318.76ZM253.822 305.371C243.505 305.958 234.635 297.66 234.01 287.396C233.385 277.132 241.303 268.75 251.62 268.163C261.937 267.576 270.754 275.021 271.356 285.285C271.958 295.549 264.132 304.8 253.822 305.371Z" fill="black"/>
<g opacity="0.2">
<path d="M255.27 296.54L255.43 299.298L253.403 299.42L253.243 296.685C251.051 296.746 248.892 296.137 247.056 294.94C247.383 294.094 247.703 293.248 248.023 292.402C249.521 293.413 251.276 293.976 253.083 294.025C252.992 292.379 252.895 290.736 252.793 289.095C250.012 288.585 247.01 287.823 246.812 284.394C246.667 281.879 248.374 279.623 252.207 279.06L252.047 276.278L254.074 276.156L254.234 278.892C256.006 278.85 257.761 279.251 259.339 280.058L258.47 282.618C257.196 281.987 255.806 281.624 254.386 281.551L254.683 286.535C257.465 287.03 260.505 287.67 260.711 291.107C260.886 293.583 259.164 295.907 255.27 296.54ZM252.626 286.108C252.534 284.65 252.448 283.19 252.367 281.727C250.622 282.092 249.936 283.014 249.997 284.104C250.058 285.194 251.193 285.75 252.656 286.108H252.626ZM257.556 291.518C257.487 290.314 256.367 289.819 254.858 289.491L255.11 293.858C256.931 293.469 257.647 292.608 257.556 291.518Z" fill="black"/>
</g>
<path d="M215.981 311.094C216.179 313.375 216.416 315.694 216.69 318.051H56.4413C61.4553 275.692 56.4413 257.327 56.4413 257.327C109.995 253.296 216.69 257.327 216.69 257.327C216.69 257.327 213.467 277.734 215.638 306.956C215.74 308.313 215.854 309.692 215.981 311.094Z" fill="#407BFF"/>
<path opacity="0.2" d="M216.69 257.327C209.672 260.604 175.344 261.069 155.593 259.842C135.842 258.615 109.995 262.357 109.995 262.357C95.029 257.19 56.4413 257.327 56.4413 257.327C109.995 253.296 216.69 257.327 216.69 257.327Z" fill="white"/>
<path opacity="0.2" d="M56.4413 318.051C61.4553 275.692 56.4413 257.327 56.4413 257.327C56.4413 257.327 88.2091 256.634 109.995 262.357C109.995 262.357 110.757 268.818 109.995 272.141C109.995 272.141 136.2 267.889 159.525 268.453C159.525 268.453 123.421 272.605 109.995 275.692C109.995 275.692 88.3996 272.324 74.737 272.141C74.737 272.141 103.144 275.836 109.995 278.046C109.995 278.046 118.118 276.568 122.37 276.568C122.37 276.568 112.197 278.42 109.995 280.073V291.777C109.995 291.777 87.3176 292.227 75.9409 290.604C81.3435 291.45 103.373 294.841 109.995 294.841C109.995 294.841 135.019 293.919 149.55 294.841C149.55 294.841 116.441 296.746 109.995 298.285H81.5721L109.995 300.67V303.04H122.187L109.995 305.143C109.995 305.143 74.737 302.903 64.5947 305.143C64.5947 305.143 106.208 307.033 109.949 308.503L109.995 312.009C109.995 312.009 156.66 305.844 197.929 311.147C197.929 311.147 137.663 308.755 109.995 315.46C109.995 315.46 196.566 313.578 216.675 318.051H56.4413Z" fill="black"/>
<path d="M57.3786 262.357L53.1495 263.835C53.1495 263.835 78.6232 264.711 95.0595 267.226C95.0443 267.226 69.723 262.722 57.3786 262.357Z" fill="#407BFF"/>
<path opacity="0.2" d="M113.706 267.226L120.152 268.453C120.152 268.453 150.167 265.191 185.646 264.795C185.646 264.795 134.402 262.311 113.706 267.226Z" fill="white"/>
<path opacity="0.2" d="M134.043 274.122C134.043 274.122 152.042 269.215 167.823 269.458C183.604 269.702 213.642 267.226 213.642 267.226L214.823 269.458C214.823 269.458 191.27 270.838 171.831 270.678C159.158 270.702 146.512 271.854 134.043 274.122Z" fill="white"/>
<path opacity="0.2" d="M116.182 281.46C116.182 281.46 137.64 276.888 158.679 277.307C179.718 277.726 206.212 279.372 206.212 279.372C206.212 279.372 148.712 279.372 134.043 282.42L116.182 281.46Z" fill="white"/>
<path d="M153.299 274.815C153.299 274.815 171.778 273.291 187.726 274.122C203.675 274.952 220.424 275.699 220.424 275.699L214.823 277.284C214.823 277.284 176.426 273.436 153.299 274.815Z" fill="#407BFF"/>
<path opacity="0.2" d="M153.299 274.815C153.299 274.815 171.778 273.291 187.726 274.122C203.675 274.952 220.424 275.699 220.424 275.699L214.823 277.284C214.823 277.284 176.426 273.436 153.299 274.815Z" fill="black"/>
<path opacity="0.2" d="M116.876 285.339C116.876 285.339 148.88 284.942 164.295 284.173C179.71 283.403 200.383 287.678 200.383 287.678C200.383 287.678 174.879 287.137 166.985 288.387L116.876 285.339Z" fill="black"/>
<path opacity="0.2" d="M113.706 290.185L134.043 288.387L177.371 290.185L133.487 291.983L113.706 290.185Z" fill="white"/>
<path opacity="0.2" d="M128.915 299.733C128.915 299.733 158.488 296.974 170.01 296.829C181.531 296.685 212.537 294.612 212.537 294.612L209.093 299.184C209.093 299.184 150.792 297.942 128.915 299.733Z" fill="white"/>
<path d="M203.904 284.173L214.823 285.201L217.795 284.173C213.174 283.741 208.524 283.741 203.904 284.173Z" fill="#407BFF"/>
<path d="M216.202 261.122L220.424 261.8L215.89 264.17L189.22 263.606C189.22 263.606 209.215 263.34 216.202 261.122Z" fill="#407BFF"/>
<path opacity="0.2" d="M203.904 284.173L214.823 285.201L217.795 284.173C213.174 283.741 208.524 283.741 203.904 284.173Z" fill="white"/>
<path opacity="0.2" d="M216.202 261.122L220.424 261.8L215.89 264.17L189.22 263.606C189.22 263.606 209.215 263.34 216.202 261.122Z" fill="black"/>
<path opacity="0.2" d="M215.981 311.094C208.818 310.629 158.625 304.32 158.625 304.32C161.971 303.931 205.786 306.522 215.638 306.956C215.74 308.313 215.854 309.692 215.981 311.094Z" fill="black"/>
<path d="M140.406 303.459C140.406 303.459 187.338 303.337 200.764 304.305C214.191 305.272 215.395 303.459 215.395 303.459L222.085 306.682C222.085 306.682 222.428 309.883 204.818 307.65C187.208 305.417 140.406 303.459 140.406 303.459Z" fill="#407BFF"/>
<path d="M102.062 279.86C102.062 279.86 74.5769 275.501 58.5521 276.614C60.9605 277.161 63.2042 278.274 65.0976 279.86H102.062Z" fill="#407BFF"/>
<path d="M58.5216 291.777C59.1465 291.709 79.0956 294.338 86.7156 294.612L55.7022 295.862L58.5216 291.777Z" fill="#407BFF"/>
<path d="M57.3938 309.014L87.5233 310.081L53.1495 312.626L57.3938 309.014Z" fill="#407BFF"/>
<path d="M112.288 255.27C112.288 255.27 155.082 262.585 179.901 233.302L226.657 245.303C226.657 245.303 218.054 263.149 153.436 260.779C88.8187 258.409 112.288 255.27 112.288 255.27Z" fill="#407BFF"/>
<path opacity="0.5" d="M112.288 255.27C112.288 255.27 155.082 262.585 179.901 233.302L226.657 245.303C226.657 245.303 218.054 263.149 153.436 260.779C88.8187 258.409 112.288 255.27 112.288 255.27Z" fill="white"/>
<path opacity="0.2" d="M136.726 256.847C136.726 256.847 162.885 255.468 177.676 238.735C179.033 239.155 180.485 239.157 181.844 238.741C183.203 238.325 184.406 237.511 185.296 236.403L219.425 245.448C219.425 245.448 215.753 246.736 217.04 250.988C217.01 250.988 172.212 269.138 136.726 256.847Z" fill="black"/>
<path d="M175.771 171.976L176.571 167.731C176.571 167.731 174.917 166.162 175.108 164.683C175.298 163.205 182.659 160.873 183.962 160.744C185.265 160.614 184.77 165.948 184.374 166.916C183.977 167.884 179.558 169.05 179.558 169.05L179.001 173.523L175.771 171.976Z" fill="#EBB376"/>
<path d="M90.9066 192.839L87.9881 189.654C87.9881 189.654 88.5596 187.452 87.63 186.324C86.7004 185.196 79.1947 187.048 78.0364 187.65C76.8782 188.252 80.0938 192.496 80.9473 193.106C81.8007 193.716 86.1593 192.344 86.1593 192.344L88.994 195.857L90.9066 192.839Z" fill="#EBB376"/>
<path d="M148.948 185.997C157.155 185.539 164.592 187.254 168.41 185.997C172.227 184.739 175.931 168.859 175.931 168.859L179.946 170.216C179.946 170.216 178.422 186.743 171.823 191.171C165.224 195.598 149.931 195.56 149.931 195.56L148.948 185.997Z" fill="#407BFF"/>
<path opacity="0.7" d="M179.946 170.216C179.946 170.216 178.422 186.743 171.823 191.171C168.013 193.685 161.483 194.76 156.522 195.224C152.766 195.567 149.931 195.56 149.931 195.56L149.474 191.094L148.948 185.997C157.155 185.539 164.592 187.254 168.41 185.997C172.227 184.739 175.931 168.859 175.931 168.859L179.946 170.216Z" fill="white"/>
<path opacity="0.2" d="M156.522 195.224C152.766 195.567 149.931 195.56 149.931 195.56L149.474 191.094C152.028 192.087 154.408 193.481 156.522 195.224Z" fill="black"/>
<path d="M201.412 314.363L206.723 312.908L205.77 299.938L200.467 301.401L201.412 314.363Z" fill="#B97964"/>
<path d="M207.051 312.199L200.878 312.626C200.775 312.63 200.677 312.674 200.605 312.75C200.534 312.825 200.495 312.926 200.497 313.03L200.536 317.929C200.553 318.185 200.671 318.424 200.864 318.594C201.056 318.764 201.308 318.851 201.564 318.836C203.713 318.653 204.734 318.455 207.447 318.249C209.867 318.167 212.279 317.912 214.663 317.487C216.949 316.961 216.339 314.752 215.334 314.775C212.735 314.634 210.217 313.823 208.026 312.42C207.734 312.242 207.391 312.164 207.051 312.199Z" fill="#263238"/>
<path d="M209.062 312.999C208.568 313.022 208.072 312.991 207.584 312.908C207.559 312.904 207.536 312.894 207.517 312.878C207.498 312.861 207.484 312.84 207.477 312.816C207.474 312.792 207.475 312.767 207.482 312.744C207.488 312.72 207.5 312.698 207.515 312.679C207.683 312.542 209.169 311.376 209.862 311.589C209.941 311.614 210.011 311.659 210.067 311.719C210.123 311.779 210.163 311.853 210.182 311.932C210.236 312.051 210.254 312.182 210.235 312.31C210.216 312.438 210.161 312.558 210.076 312.656C209.79 312.889 209.43 313.011 209.062 312.999ZM209.786 311.856C209.42 311.742 208.536 312.268 207.927 312.717C208.925 312.839 209.641 312.763 209.885 312.489C209.934 312.423 209.966 312.345 209.976 312.264C209.987 312.183 209.977 312.1 209.946 312.024C209.934 311.986 209.913 311.951 209.885 311.922C209.858 311.893 209.824 311.87 209.786 311.856Z" fill="#263238"/>
<path d="M207.607 312.908C207.599 312.912 207.589 312.914 207.58 312.914C207.571 312.914 207.562 312.912 207.554 312.908C207.535 312.898 207.519 312.885 207.506 312.87C207.493 312.854 207.483 312.836 207.477 312.816C207.477 312.763 207.241 311.178 207.752 310.599C207.82 310.526 207.903 310.47 207.995 310.433C208.087 310.396 208.186 310.38 208.285 310.385C208.395 310.382 208.502 310.414 208.592 310.478C208.681 310.541 208.747 310.632 208.78 310.736C208.94 311.33 208.201 312.534 207.683 312.892C207.672 312.9 207.66 312.906 207.647 312.909C207.634 312.911 207.62 312.911 207.607 312.908ZM208.216 310.667C208.165 310.67 208.114 310.683 208.068 310.707C208.022 310.73 207.982 310.764 207.95 310.805C207.682 311.35 207.599 311.968 207.714 312.565C208.189 312.108 208.48 311.492 208.529 310.835C208.529 310.759 208.46 310.675 208.277 310.667H208.216Z" fill="#263238"/>
<path opacity="0.2" d="M200.467 301.401L205.778 299.946L206.319 307.36L200.977 308.549L200.467 301.401Z" fill="black"/>
<path d="M194.462 314.173L189.441 316.466L188.168 311.071L186.454 303.817L191.453 301.523L193.175 308.77L194.462 314.173Z" fill="#B97964"/>
<path opacity="0.2" d="M193.175 308.77L188.168 311.071L186.454 303.817L191.453 301.523L193.175 308.77Z" fill="black"/>
<path d="M194.668 313.426L188.648 314.836C188.547 314.854 188.458 314.912 188.4 314.996C188.341 315.08 188.318 315.184 188.336 315.285L189.159 320.124C189.183 320.25 189.233 320.37 189.304 320.477C189.375 320.583 189.467 320.675 189.574 320.746C189.682 320.817 189.802 320.866 189.928 320.89C190.054 320.914 190.184 320.912 190.309 320.886C192.405 320.36 193.357 320.002 196.024 319.362C198.403 318.911 200.746 318.289 203.035 317.503C205.176 316.626 204.254 314.538 203.271 314.721C200.939 315.14 197.449 314.378 195.651 313.548C195.346 313.399 195 313.356 194.668 313.426Z" fill="#263238"/>
<path d="M196.786 313.898C196.3 313.997 195.804 314.043 195.308 314.035C195.283 314.039 195.258 314.034 195.236 314.022C195.213 314.01 195.196 313.99 195.186 313.967C195.175 313.946 195.169 313.922 195.169 313.898C195.169 313.874 195.175 313.851 195.186 313.83C195.331 313.67 196.604 312.306 197.328 312.374C197.408 312.388 197.483 312.422 197.547 312.472C197.611 312.523 197.661 312.589 197.693 312.664C197.769 312.777 197.809 312.909 197.809 313.045C197.809 313.18 197.769 313.313 197.693 313.426C197.454 313.683 197.134 313.85 196.786 313.898ZM197.32 312.656C196.931 312.595 196.146 313.258 195.613 313.799C196.619 313.761 197.32 313.571 197.51 313.266C197.553 313.195 197.576 313.113 197.576 313.03C197.576 312.946 197.553 312.865 197.51 312.793C197.497 312.757 197.473 312.724 197.442 312.7C197.411 312.676 197.374 312.661 197.335 312.656H197.32Z" fill="#263238"/>
<path d="M195.331 314.035C195.324 314.039 195.316 314.041 195.308 314.041C195.3 314.041 195.292 314.039 195.285 314.035C195.265 314.029 195.246 314.018 195.23 314.004C195.214 313.989 195.202 313.972 195.194 313.952C195.194 313.906 194.691 312.367 195.11 311.719C195.164 311.637 195.236 311.567 195.321 311.516C195.405 311.464 195.5 311.432 195.598 311.422C195.707 311.399 195.82 311.414 195.92 311.464C196.019 311.514 196.099 311.595 196.146 311.696C196.398 312.252 195.864 313.563 195.384 313.982C195.382 313.995 195.375 314.007 195.366 314.017C195.356 314.026 195.344 314.033 195.331 314.035ZM195.575 311.749C195.474 311.775 195.387 311.838 195.331 311.925C195.157 312.509 195.173 313.133 195.377 313.708C195.774 313.182 195.967 312.529 195.918 311.871C195.918 311.795 195.819 311.719 195.636 311.742L195.575 311.749Z" fill="#263238"/>
<path d="M157.254 240.525L155.631 222.603L125.707 223.304C125.707 223.304 122.164 248.275 124.739 252.862C129.311 261.054 159.502 256.405 166.558 257.099C169.438 258.623 184.846 309.73 184.846 309.73L193.479 306.248C193.479 306.248 184.198 263.126 182.049 255.003C179.146 243.71 167.168 243.909 157.254 240.525Z" fill="#263238"/>
<path d="M206.845 305.364L199.225 306.065C199.225 306.065 189.89 258.524 189.167 258.318C187.871 257.945 184.084 257.518 182.049 256.985C167.922 253.312 133.129 246.553 133.129 246.553L145.961 234.193C145.961 234.193 204.132 241.173 205.397 254.828C206.045 261.366 206.845 305.364 206.845 305.364Z" fill="#263238"/>
<path opacity="0.2" d="M187.117 258.356C185.814 257.983 184.069 257.526 182.049 256.992C182.613 257.289 180.983 249.89 179.352 247.978C176.113 244.168 163.114 242.095 158.458 241.348C154.556 240.723 141.481 239.573 141.481 239.573C141.481 239.573 164.569 237.576 181.966 242.354C190.569 244.716 189.037 253.114 187.117 258.356Z" fill="black"/>
<path d="M121.714 190.348C121.714 190.348 132.756 184.488 148.948 185.997C148.948 185.997 154.564 200.276 155.631 222.573L125.524 224.66C125.524 224.66 126.065 205.55 121.714 190.348Z" fill="#407BFF"/>
<path opacity="0.7" d="M125.524 224.691C125.601 219.488 125.408 214.284 124.945 209.1C124.678 206.052 124.297 202.844 123.749 199.575C123.245 196.464 122.565 193.383 121.714 190.348C121.714 190.348 132.756 184.488 148.948 185.997C148.948 185.997 154.564 200.276 155.631 222.573L125.524 224.691Z" fill="white"/>
<path opacity="0.2" d="M124.968 209.1C124.701 206.052 124.32 202.844 123.772 199.575C124.306 199.032 124.951 198.609 125.661 198.333L125.7 197.998C125.677 198.364 127.254 203.995 124.968 209.1Z" fill="black"/>
<path d="M130.058 188.275C132.817 190.782 139.568 189.852 139.568 189.852C139.568 189.852 143.782 188.702 142.898 187.383C140.414 186.972 139.217 185.814 138.714 184.335C138.448 183.413 138.362 182.448 138.463 181.493C138.463 180.975 138.585 180.442 138.676 179.916L130.302 173.736C131.422 177.813 132.763 185.318 130.058 188.275Z" fill="#EBB376"/>
<path opacity="0.2" d="M132.253 177.66C132.588 182.667 136.703 184.053 138.714 184.335C138.448 183.413 138.362 182.448 138.463 181.493L132.253 177.66Z" fill="black"/>
<path d="M137.549 156.561C140.65 157.399 143.233 164.554 140.909 169.286C138.585 174.018 131.582 160.782 131.582 160.782C131.582 160.782 135.545 156.027 137.549 156.561Z" fill="#263238"/>
<path d="M144.018 172.974C144.033 173.263 144.033 173.553 144.018 173.843C143.965 175.908 143.132 177.876 141.686 179.352C140.395 180.697 138.647 181.512 136.787 181.638C135.463 181.703 134.146 181.409 132.977 180.784C129.273 178.902 128.275 175.641 126.119 170.261C125.582 169.009 125.377 167.64 125.524 166.286C125.672 164.932 126.167 163.639 126.961 162.532C127.755 161.425 128.821 160.542 130.057 159.969C131.292 159.395 132.655 159.15 134.013 159.258C140.109 159.708 143.546 167.64 144.018 172.974Z" fill="#EBB376"/>
<path d="M134.965 169.004C135.08 169.454 135.461 169.766 135.727 169.636C135.994 169.507 136.139 169.095 135.994 168.653C135.849 168.212 135.484 167.891 135.232 168.021C134.981 168.151 134.821 168.547 134.965 169.004Z" fill="#263238"/>
<path d="M140.017 167.343C140.132 167.792 140.52 168.067 140.779 167.975C141.039 167.884 141.191 167.434 141.046 166.985C140.901 166.535 140.543 166.261 140.284 166.352C140.025 166.444 139.88 166.916 140.017 167.343Z" fill="#263238"/>
<path d="M138.486 168.09C139.468 169.281 140.609 170.332 141.877 171.214C141.642 171.535 141.339 171.8 140.99 171.991C140.641 172.182 140.254 172.294 139.857 172.319L138.486 168.09Z" fill="#D58745"/>
<path d="M141.183 164.592C141.146 164.628 141.102 164.654 141.053 164.668C141.004 164.683 140.952 164.685 140.901 164.676C140.568 164.585 140.218 164.573 139.879 164.642C139.54 164.711 139.222 164.858 138.951 165.072C138.898 165.123 138.828 165.15 138.755 165.149C138.682 165.147 138.613 165.117 138.562 165.064C138.512 165.012 138.484 164.941 138.485 164.869C138.487 164.796 138.517 164.726 138.57 164.676C138.908 164.398 139.308 164.205 139.736 164.112C140.164 164.019 140.608 164.03 141.031 164.142C141.067 164.15 141.1 164.164 141.131 164.184C141.161 164.205 141.186 164.231 141.206 164.262C141.226 164.292 141.24 164.326 141.246 164.362C141.253 164.398 141.252 164.435 141.244 164.47C141.229 164.513 141.208 164.554 141.183 164.592Z" fill="#263238"/>
<path d="M133.297 167.312C133.245 167.332 133.188 167.332 133.137 167.312C133.074 167.276 133.029 167.216 133.01 167.146C132.992 167.076 133.002 167.002 133.038 166.939C133.26 166.56 133.569 166.239 133.94 166.003C134.311 165.767 134.733 165.623 135.171 165.583C135.207 165.582 135.243 165.588 135.277 165.601C135.31 165.613 135.341 165.633 135.367 165.658C135.394 165.682 135.415 165.712 135.429 165.745C135.444 165.778 135.452 165.813 135.453 165.849C135.453 165.921 135.426 165.991 135.376 166.043C135.326 166.096 135.259 166.127 135.186 166.131C134.842 166.173 134.511 166.294 134.221 166.486C133.932 166.678 133.691 166.935 133.518 167.236C133.488 167.263 133.453 167.284 133.415 167.298C133.377 167.311 133.337 167.316 133.297 167.312Z" fill="#263238"/>
<path d="M127.902 162.032L129.098 164.318C128.774 164.668 128.594 165.128 128.594 165.605C128.594 166.083 128.774 166.543 129.098 166.893C130.622 168.6 130.683 172.136 129.616 173.965C129.616 173.965 129.243 173.119 128.588 173.599C127.932 174.079 129.868 178.521 132.116 180.129C132.116 180.129 129.212 179.009 126.18 174.734C123.375 170.787 121.836 167.183 122.088 165.141L127.902 162.032Z" fill="#263238"/>
<path d="M125.212 175.496C126.226 176.539 127.613 177.137 129.068 177.157C131.003 177.157 131.46 175.321 130.5 173.759C129.639 172.38 127.589 170.665 125.86 171.42C124.13 172.174 123.977 174.201 125.212 175.496Z" fill="#EBB376"/>
<path d="M140.452 174.231C140.101 174.999 139.805 175.791 139.568 176.601L139.126 176.548C137.129 176.281 136.284 175.496 135.964 174.704C135.815 174.316 135.76 173.898 135.804 173.485C135.819 173.247 135.87 173.013 135.956 172.791C137.115 173.507 138.414 173.965 139.766 174.132C140.208 174.208 140.452 174.231 140.452 174.231Z" fill="#263238"/>
<path d="M139.774 174.132L139.492 174.826C137.61 174.567 136.314 174.132 135.804 173.485C135.819 173.247 135.87 173.013 135.956 172.791C137.117 173.508 138.419 173.966 139.774 174.132Z" fill="white"/>
<path d="M139.126 176.548C137.129 176.281 136.284 175.496 135.964 174.704C136.724 174.83 137.456 175.088 138.128 175.466C138.564 175.715 138.913 176.093 139.126 176.548Z" fill="#DE5753"/>
<path d="M132.999 162.428C132.999 162.428 132.466 158.786 134.767 159.494C137.069 160.203 137.229 158.816 136.543 156.004C135.857 153.192 129.258 152.194 125.524 156.804C121.79 161.414 120.487 165.278 122.293 167.32C124.099 169.362 130.98 163.335 130.98 163.335C131.168 162.305 131.605 161.337 132.253 160.515C132.295 161.215 132.556 161.884 132.999 162.428Z" fill="#263238"/>
<path d="M136.558 189.563L140.208 192.786C140.208 192.786 142.212 206.35 147.135 212.278H150.183L150.785 210.175C146.206 205.063 142.918 198.927 141.199 192.283V187.963L136.558 189.563Z" fill="#263238"/>
<path d="M130.988 185.341L138.486 188.153L139.126 184.335L143.02 185.745L144.018 190.569L138.714 189.258L136.086 192.778L128.443 187.833L130.988 185.341Z" fill="#407BFF"/>
<path opacity="0.5" d="M130.988 185.341L138.486 188.153L139.126 184.335L143.02 185.745L144.018 190.569L138.714 189.258L136.086 192.778L128.443 187.833L130.988 185.341Z" fill="white"/>
<path d="M125.098 224.188L155.981 221.254L156.05 225.003L125.113 227.533L125.098 224.188Z" fill="black"/>
<path d="M149.443 222.024C149.304 221.898 149.14 221.803 148.961 221.746C148.782 221.688 148.594 221.668 148.407 221.689L145.672 221.971C145.333 222.005 145.021 222.165 144.795 222.419C144.569 222.673 144.447 223.002 144.452 223.342V225.095C144.46 225.455 144.611 225.798 144.871 226.048C145.13 226.298 145.479 226.434 145.839 226.428H145.953L148.689 226.139C149.026 226.104 149.339 225.944 149.563 225.69C149.788 225.436 149.908 225.106 149.901 224.767V223.022C149.9 222.833 149.858 222.646 149.78 222.474C149.701 222.302 149.586 222.148 149.443 222.024ZM148.643 225.438L145.915 225.727C145.822 225.74 145.727 225.733 145.636 225.707C145.545 225.68 145.461 225.635 145.389 225.574C145.318 225.513 145.259 225.437 145.219 225.352C145.178 225.267 145.156 225.174 145.153 225.08V223.335C145.151 223.169 145.21 223.008 145.32 222.884C145.43 222.76 145.583 222.681 145.748 222.664L148.476 222.382H148.537C148.71 222.382 148.876 222.45 149 222.571C149.124 222.692 149.196 222.857 149.2 223.03V223.266H149.093L148.331 223.335C148.27 223.34 148.211 223.358 148.156 223.386C148.102 223.414 148.054 223.453 148.015 223.5C147.975 223.547 147.946 223.602 147.927 223.66C147.909 223.719 147.902 223.78 147.908 223.841C147.913 223.902 147.931 223.962 147.959 224.016C147.988 224.07 148.027 224.118 148.074 224.158C148.121 224.197 148.175 224.227 148.234 224.245C148.292 224.263 148.354 224.27 148.415 224.264L149.177 224.188H149.215V224.79C149.214 224.949 149.156 225.102 149.051 225.221C148.946 225.34 148.801 225.417 148.643 225.438Z" fill="white"/>
<path d="M121.714 190.348C116.563 193.396 109.126 203.431 106.512 203.225C103.899 203.02 89.8017 190.5 89.8017 190.5L86.5861 193.982C86.5861 193.982 99.6086 209.535 105.674 210.708C111.74 211.882 125.098 200.635 125.098 200.635C125.853 198.696 125.853 196.545 125.098 194.607C124.412 192.886 123.236 191.404 121.714 190.348Z" fill="#407BFF"/>
<path opacity="0.7" d="M121.714 190.348C116.563 193.396 109.126 203.431 106.512 203.225C103.899 203.02 89.8017 190.5 89.8017 190.5L86.5861 193.982C86.5861 193.982 99.6086 209.535 105.674 210.708C111.74 211.882 125.098 200.635 125.098 200.635C125.853 198.696 125.853 196.545 125.098 194.607C124.412 192.886 123.236 191.404 121.714 190.348Z" fill="white"/>
<path d="M168.867 261.183C168.867 261.183 66.5988 261.892 60.2513 247.528L105.796 244.221C114.835 248.013 124.086 251.277 133.502 253.997C144.018 257.068 156.484 259.979 168.867 261.183Z" fill="#407BFF"/>
<path opacity="0.2" d="M168.867 261.183C168.867 261.183 165.659 261.183 160.325 261.183C138.448 259.659 112.906 248.793 112.906 248.793C103.685 250.82 97.3455 247.185 97.3455 247.185L72.4891 248.61C72.6229 249.222 72.6171 249.857 72.4719 250.466C72.3268 251.076 72.0462 251.644 71.6509 252.131C84.5363 255.75 98.4275 257.952 109.751 259.286C85.8317 257.495 63.1317 254.081 60.2209 247.551L105.766 244.244C105.766 244.244 137.579 258.135 168.867 261.183Z" fill="white"/>
<path opacity="0.2" d="M168.867 261.183C168.867 261.183 66.5988 261.892 60.2513 247.528C60.2513 247.528 94.808 262.456 133.502 253.997C144.018 257.068 156.484 259.979 168.867 261.183Z" fill="black"/>
</g>
<defs>
<clipPath id="clip0_201_2088">
<rect width="381" height="381" fill="white"/>
</clipPath>
</defs>
</svg>
