<svg width="122" height="160" viewBox="0 0 122 160" fill="none" xmlns="http://www.w3.org/2000/svg">
<rect x="6" y="134" width="51" height="24" fill="#0045ED"/>
<path d="M19.5073 138.586V141.594H13.2275V144.844H17.9263V147.764H13.2275V154H9.47285V138.586H19.5073ZM33.579 141.748V154H29.8244V152.331C29.4438 152.873 28.9241 153.312 28.2654 153.649C27.6213 153.971 26.9041 154.132 26.1136 154.132C25.1768 154.132 24.3497 153.927 23.6325 153.517C22.9152 153.092 22.3589 152.485 21.9637 151.695C21.5685 150.904 21.3709 149.975 21.3709 148.906V141.748H25.1036V148.401C25.1036 149.221 25.3158 149.857 25.7403 150.311C26.1648 150.765 26.7357 150.992 27.453 150.992C28.1849 150.992 28.7631 150.765 29.1876 150.311C29.6121 149.857 29.8244 149.221 29.8244 148.401V141.748H33.579ZM47.8254 147.676C47.8254 148.028 47.8035 148.394 47.7596 148.774H39.2621C39.3207 149.535 39.5622 150.121 39.9867 150.531C40.4259 150.926 40.9602 151.124 41.5896 151.124C42.5264 151.124 43.1778 150.728 43.5438 149.938H47.54C47.335 150.743 46.9618 151.468 46.4202 152.112C45.8932 152.756 45.2272 153.261 44.4221 153.627C43.617 153.993 42.7167 154.176 41.7213 154.176C40.521 154.176 39.4524 153.919 38.5156 153.407C37.5788 152.895 36.8469 152.163 36.3199 151.211C35.7929 150.26 35.5294 149.147 35.5294 147.874C35.5294 146.6 35.7856 145.488 36.2979 144.536C36.8249 143.585 37.5568 142.853 38.4936 142.341C39.4305 141.828 40.5064 141.572 41.7213 141.572C42.907 141.572 43.961 141.821 44.8832 142.319C45.8054 142.817 46.5226 143.526 47.035 144.449C47.5619 145.371 47.8254 146.447 47.8254 147.676ZM43.9829 146.688C43.9829 146.044 43.7634 145.532 43.3242 145.151C42.8851 144.771 42.3361 144.58 41.6774 144.58C41.048 144.58 40.5137 144.763 40.0746 145.129C39.6501 145.495 39.3866 146.015 39.2841 146.688H43.9829ZM53.5609 137.752V154H49.8062V137.752H53.5609Z" fill="white"/>
<path d="M70.2666 146.095C71.1596 146.286 71.8768 146.732 72.4184 147.435C72.96 148.123 73.2308 148.913 73.2308 149.806C73.2308 151.094 72.7771 152.119 71.8695 152.88C70.9766 153.627 69.725 154 68.1148 154H60.9349V138.586H67.8733C69.4396 138.586 70.6619 138.945 71.5401 139.662C72.4331 140.379 72.8795 141.353 72.8795 142.582C72.8795 143.49 72.638 144.244 72.1549 144.844C71.6865 145.444 71.0571 145.861 70.2666 146.095ZM64.6895 144.822H67.1487C67.7635 144.822 68.2319 144.69 68.554 144.427C68.8907 144.149 69.059 143.746 69.059 143.219C69.059 142.692 68.8907 142.29 68.554 142.011C68.2319 141.733 67.7635 141.594 67.1487 141.594H64.6895V144.822ZM67.4561 150.97C68.0856 150.97 68.5686 150.831 68.9053 150.553C69.2566 150.26 69.4323 149.843 69.4323 149.301C69.4323 148.76 69.2493 148.335 68.8833 148.028C68.532 147.72 68.0416 147.567 67.4122 147.567H64.6895V150.97H67.4561ZM82.9398 141.616C84.3451 141.616 85.4722 142.085 86.3212 143.021C87.1702 143.944 87.5947 145.217 87.5947 146.842V154H83.862V147.347C83.862 146.527 83.6498 145.891 83.2253 145.437C82.8008 144.983 82.2299 144.756 81.5126 144.756C80.7954 144.756 80.2245 144.983 79.8 145.437C79.3755 145.891 79.1632 146.527 79.1632 147.347V154H75.4085V137.752H79.1632V143.395C79.5438 142.853 80.0635 142.421 80.7222 142.099C81.3809 141.777 82.1201 141.616 82.9398 141.616ZM89.4573 147.852C89.4573 146.593 89.6915 145.488 90.16 144.536C90.643 143.585 91.2944 142.853 92.1141 142.341C92.9339 141.828 93.8488 141.572 94.8588 141.572C95.7224 141.572 96.4763 141.748 97.1204 142.099C97.7791 142.451 98.2841 142.912 98.6354 143.483V141.748H102.39V154H98.6354V152.265C98.2695 152.836 97.7571 153.297 97.0984 153.649C96.4543 154 95.7005 154.176 94.8368 154.176C93.8414 154.176 92.9339 153.919 92.1141 153.407C91.2944 152.88 90.643 152.141 90.16 151.189C89.6915 150.223 89.4573 149.111 89.4573 147.852ZM98.6354 147.874C98.6354 146.937 98.3719 146.198 97.8449 145.656C97.3326 145.115 96.7032 144.844 95.9566 144.844C95.2101 144.844 94.5733 145.115 94.0464 145.656C93.534 146.183 93.2779 146.915 93.2779 147.852C93.2779 148.789 93.534 149.535 94.0464 150.092C94.5733 150.633 95.2101 150.904 95.9566 150.904C96.7032 150.904 97.3326 150.633 97.8449 150.092C98.3719 149.55 98.6354 148.811 98.6354 147.874ZM106.995 140.474C106.336 140.474 105.794 140.284 105.37 139.904C104.96 139.508 104.755 139.025 104.755 138.454C104.755 137.869 104.96 137.386 105.37 137.005C105.794 136.61 106.336 136.412 106.995 136.412C107.639 136.412 108.166 136.61 108.576 137.005C109 137.386 109.212 137.869 109.212 138.454C109.212 139.025 109 139.508 108.576 139.904C108.166 140.284 107.639 140.474 106.995 140.474ZM108.861 141.748V154H105.106V141.748H108.861Z" fill="#0045ED"/>
<mask id="mask0_181_199" style="mask-type:luminance" maskUnits="userSpaceOnUse" x="12" y="0" width="66" height="119">
<path d="M12 0H77.3469V119H12V0Z" fill="white"/>
</mask>
<g mask="url(#mask0_181_199)">
<path d="M69.742 112.894V58.4235H75.5726V9.86774C75.5726 8.72245 74.809 7.57932 73.6616 7.19756L59.61 2.52311C49.7644 -0.721895 39.1531 -0.721895 29.3074 2.52311L15.2559 7.19756C14.1084 7.57932 13.3449 8.627 13.3449 9.86774V58.328H19.1755V112.799H12.0065V119H76.9109V112.799H69.742V112.894ZM66.8744 49.17H22.1385V17.1169H66.8744V49.17Z" fill="#0045ED"/>
</g>
<path d="M102.817 82.5588C100.999 79.3159 96.7931 69.4898 96.7931 69.4898V56.6118H98.4199V39.0593H102.146V31.5216L93.0665 22.459L91.1533 24.177L84.2707 17.3074L77.4857 15.7825V19.5979L82.3597 20.3615L88.5743 26.5608L84.2707 30.5672L85.8976 32.1897C84.6547 33.4304 81.1168 38.1049 80.926 50.6012C80.926 51.2692 81.5008 51.8419 82.1689 51.8419H92.6847V56.8027H94.5003V69.6807C94.5003 69.6807 96.4113 76.0731 98.036 79.0296C101.956 85.8016 104.25 94.4846 100.522 101.829C98.8971 104.977 96.4113 108.126 92.5871 108.315C89.1469 108.506 85.7067 106.504 83.889 103.736C83.2209 102.688 82.2643 100.97 82.2643 99.6341C82.2643 99.6341 82.2643 90.0943 82.2643 82.3679C82.2643 77.0254 82.2643 72.5418 82.2643 72.5418H72.4187V82.3679H79.8739V99.825C80.2579 101.543 80.8305 103.261 81.6917 104.786C85.2273 111.369 94.7866 112.61 99.9491 107.267C102.817 104.404 104.25 100.302 104.632 96.3912C105.109 91.6214 105.014 86.5651 102.817 82.5588ZM92.8756 49.6467H83.889C83.889 49.6467 83.7935 43.5428 85.3228 38.5821C90.2944 43.1611 86.9474 47.7401 86.9474 47.7401L90.1035 45.5449C90.5807 40.6796 87.7131 37.5322 86.1839 36.196C86.6611 35.2416 87.1405 34.4803 87.8086 33.8122L92.7802 38.773V49.6467H92.8756Z" fill="#0045ED"/>
<mask id="mask1_181_199" style="mask-type:luminance" maskUnits="userSpaceOnUse" x="35" y="23" width="20" height="20">
<path d="M35 23H54.9446V43H35V23Z" fill="white"/>
</mask>
<g mask="url(#mask1_181_199)">
<path fill-rule="evenodd" clip-rule="evenodd" d="M44.9367 23C50.4675 23.0391 54.7843 27.4553 54.8626 32.8473C54.9409 38.4364 50.5164 42.9804 44.9758 43C39.4353 43.0199 35.0398 38.5447 35.0104 33.0542C34.9909 27.5343 39.3566 23.0294 44.9367 23Z" fill="#0045ED"/>
</g>
<path fill-rule="evenodd" clip-rule="evenodd" d="M54.375 33.0115C54.3646 38.2225 50.1432 42.3854 44.9848 42.375C39.8263 42.3649 35.605 38.1823 35.6251 32.9612C35.6452 27.9219 39.6348 23.749 44.753 23.6279C50.2039 23.4971 54.375 27.8612 54.375 33.0115Z" fill="#F6F8F9"/>
<path fill-rule="evenodd" clip-rule="evenodd" d="M44.8715 24.251C49.5083 24.183 53.3967 27.7312 53.7273 32.3681C54.0772 37.3065 50.3441 41.4188 45.6005 41.7297C40.6622 42.0603 36.5601 38.3177 36.2683 33.5543C35.9474 28.5088 39.8943 24.3289 44.8715 24.251Z" fill="#0045ED"/>
<path fill-rule="evenodd" clip-rule="evenodd" d="M42.331 35.4412C42.331 34.8375 42.331 34.2238 42.331 33.6198C42.331 33.493 42.2911 33.4637 42.1701 33.4735C41.8983 33.4832 41.6262 33.4735 41.3645 33.4832C41.2334 33.4832 41.1528 33.4442 41.0721 33.3568C40.7399 32.9768 40.3975 32.5967 40.0652 32.2171C40.0249 32.1683 39.9745 32.1293 40.0148 32.061C40.0451 32.0025 40.1055 31.9931 40.166 31.9931C40.8104 31.983 41.4548 31.983 42.0996 31.9736C42.331 31.9736 42.331 31.9736 42.331 31.759C42.331 30.9798 42.3213 30.1908 42.331 29.4116C42.331 29.0901 42.0996 28.8463 41.7068 28.8564C41.5459 28.8564 41.3947 28.9146 41.2536 28.9926C41.0923 29.0804 41.0822 29.0706 40.9717 28.9341C40.7802 28.6808 40.589 28.4276 40.3975 28.1744C40.3773 28.1451 40.3572 28.1158 40.337 28.0866C40.2665 27.9894 40.2765 27.9211 40.3773 27.8431C40.6895 27.6191 41.0423 27.4732 41.4249 27.4147C42.0088 27.3171 42.5528 27.3952 43.0564 27.6972C43.298 27.8431 43.4794 28.0284 43.6101 28.2719C43.681 28.4081 43.7214 28.5446 43.7214 28.7003C43.7214 29.7526 43.7214 30.8046 43.7214 31.8565C43.7214 31.9443 43.7415 31.983 43.8319 31.9638C44.1641 31.8956 44.3758 32.0321 44.5774 32.2756C44.8593 32.6065 45.1815 32.9182 45.4835 33.23C45.5239 33.2788 45.5843 33.3178 45.544 33.3857C45.5037 33.454 45.4432 33.4637 45.373 33.4637C44.8593 33.4637 44.3456 33.4735 43.8218 33.4735C43.7415 33.4735 43.7109 33.493 43.7109 33.571C43.7109 34.779 43.7109 35.9964 43.7109 37.2044C43.7109 37.263 43.7214 37.3114 43.7512 37.3601C43.9629 37.7499 44.3053 37.9352 44.7484 37.9544C45.2722 37.9739 45.7255 37.7889 46.1485 37.5162C47.065 36.9219 47.6892 36.1135 47.9513 35.0709C48.0118 34.818 48.0118 34.818 47.7497 34.779C47.488 34.74 47.2259 34.6815 46.9945 34.5551C46.4505 34.282 46.1989 33.834 46.1384 33.269C46.0477 32.3435 46.7327 31.5936 47.6792 31.5155C48.7066 31.4375 49.7139 32.1488 49.9252 33.1812C50.026 33.6682 49.9957 34.1458 49.9957 34.6327C49.9957 36.2302 48.4146 38.4027 46.3497 39.0453C45.4936 39.3083 44.6476 39.3473 43.8016 38.9872C43.0766 38.6754 42.6133 38.1299 42.3415 37.4187C42.3213 37.3796 42.331 37.3309 42.331 37.2825C42.331 36.659 42.331 36.0549 42.331 35.4412Z" fill="#FEFEFE"/>
</svg>
