<svg width="17" height="24" viewBox="0 0 17 24" fill="none" xmlns="http://www.w3.org/2000/svg">
<g clip-path="url(#clip0_601_4037)">
<path d="M8.63379 15.5264C9.19166 15.528 9.7268 15.7499 10.1211 16.1445C10.5153 16.5391 10.7372 17.0741 10.7383 17.6318V21.9355C10.7383 22.494 10.516 23.0299 10.1211 23.4248C9.72614 23.8198 9.19038 24.042 8.63184 24.042C8.07335 24.0419 7.53749 23.8197 7.14258 23.4248C6.74782 23.0299 6.52637 22.4939 6.52637 21.9355V17.6309C6.52773 17.0729 6.74987 16.538 7.14453 16.1436C7.53917 15.7492 8.07391 15.5275 8.63184 15.5264H8.63379ZM8.44629 0C10.0823 5.04591e-05 11.4677 1.11064 11.9482 2.6709H15.915L15.918 2.66992H15.9199C16.203 2.68153 16.4717 2.80381 16.6719 3.01172C16.872 3.21965 16.9891 3.49835 17 3.79199C16.9992 4.07524 16.8903 4.34657 16.6973 4.54688C16.5042 4.74715 16.2427 4.86048 15.9697 4.86133H12.0029L11.9961 4.8877C11.7385 5.77264 11.1715 6.52559 10.4062 6.99902L10.4531 7.01172C11.8376 7.43936 13.0522 8.31922 13.916 9.52051C14.7797 10.7217 15.2464 12.1801 15.2471 13.6787V19.2363C15.2437 19.7032 15.0634 20.1505 14.7451 20.4805C14.427 20.8101 13.9965 20.9967 13.5469 21H12.1562V17.9541C12.1562 16.9479 11.7707 15.983 11.085 15.2715C10.3991 14.56 9.46891 14.1602 8.49902 14.1602C7.52913 14.1602 6.5989 14.56 5.91309 15.2715C5.22735 15.983 4.84181 16.9479 4.8418 17.9541V21H3.4502C3.00099 20.9954 2.57151 20.8081 2.25391 20.4785C1.93622 20.1487 1.75603 19.7026 1.75195 19.2363V13.624C1.76957 10.4797 3.78325 7.82653 6.59277 6.94629L6.57715 6.9375C5.82861 6.46951 5.25937 5.72217 4.99707 4.80957H1.03027C0.757045 4.80952 0.494963 4.69654 0.301758 4.49609C0.108573 4.29561 0 4.02373 0 3.74023C1.22427e-05 3.45674 0.108554 3.18485 0.301758 2.98438C0.494963 2.78393 0.757045 2.67095 1.03027 2.6709H4.94434L4.95117 2.64355C5.42483 1.11052 6.81012 0 8.44629 0ZM9.23438 1.81543C8.85792 1.65376 8.44355 1.61187 8.04395 1.69434C7.6443 1.77686 7.27741 1.98038 6.98926 2.2793C6.70104 2.57833 6.50432 2.95926 6.4248 3.37402C6.34532 3.78875 6.38602 4.21871 6.54199 4.60938C6.69797 5.00004 6.96191 5.3344 7.30078 5.56934C7.6397 5.80428 8.03868 5.92969 8.44629 5.92969V5.92773L8.50586 5.92969C9.61166 5.92969 10.5078 4.99883 10.5078 3.85156L10.5068 3.79102C10.5068 3.36831 10.3864 2.95503 10.1602 2.60352C9.9337 2.25189 9.61096 1.97726 9.23438 1.81543Z" fill="#2263FF"/>
</g>
<defs>
<clipPath id="clip0_601_4037">
<rect width="17" height="24" fill="white"/>
</clipPath>
</defs>
</svg>
