<svg width="24" height="24" viewBox="0 0 24 24" fill="none" xmlns="http://www.w3.org/2000/svg">
<path d="M16.5586 4C17.1882 3.99944 17.8027 4.19724 18.3135 4.56543C18.8241 4.93359 19.2059 5.45339 19.4043 6.05078L20.7725 10.1553C21.136 10.3075 21.4466 10.5635 21.665 10.8916C21.8835 11.2199 22 11.6057 22 12V17C21.9994 17.3497 21.907 17.6936 21.7314 17.9961C21.5559 18.2984 21.3033 18.5487 21 18.7227V21C21 21.2652 20.8946 21.5195 20.707 21.707C20.5195 21.8946 20.2652 22 20 22H19C18.7348 22 18.4805 21.8946 18.293 21.707C18.1054 21.5195 18 21.2652 18 21V19H6V21C6 21.2652 5.89457 21.5195 5.70703 21.707C5.51949 21.8946 5.26522 22 5 22H4C3.73478 22 3.48051 21.8946 3.29297 21.707C3.10543 21.5195 3 21.2652 3 21V18.7227C2.40408 18.3756 2 17.7379 2 17V12C2 11.6057 2.11647 11.2199 2.33496 10.8916C2.55335 10.5635 2.86402 10.3075 3.22754 10.1553L4.5957 6.05078C4.79414 5.45339 5.17593 4.93359 5.68652 4.56543C6.19725 4.19724 6.8118 3.99944 7.44141 4H16.5586ZM5.50098 12.999C5.30394 12.999 5.10882 13.0379 4.92676 13.1133C4.74471 13.1886 4.57881 13.2992 4.43945 13.4385C4.30024 13.5777 4.18966 13.7429 4.11426 13.9248C4.0388 14.1068 4.00007 14.302 4 14.499C3.99994 14.6961 4.03891 14.8912 4.11426 15.0732C4.1896 15.2553 4.30018 15.4212 4.43945 15.5605C4.57867 15.6998 4.74391 15.8103 4.92578 15.8857C5.1078 15.9612 5.30296 15.9999 5.5 16C5.89796 16.0001 6.28003 15.8419 6.56152 15.5605C6.8428 15.2793 7.00084 14.8978 7.00098 14.5C7.00111 14.102 6.84283 13.72 6.56152 13.4385C6.28025 13.1572 5.89877 12.9992 5.50098 12.999ZM18.501 12.999C18.3039 12.999 18.1088 13.0379 17.9268 13.1133C17.7447 13.1886 17.5788 13.2992 17.4395 13.4385C17.3002 13.5777 17.1897 13.7429 17.1143 13.9248C17.0388 14.1068 17.0001 14.302 17 14.499C16.9999 14.6961 17.0389 14.8912 17.1143 15.0732C17.1896 15.2553 17.3002 15.4212 17.4395 15.5605C17.5787 15.6998 17.7439 15.8103 17.9258 15.8857C18.1078 15.9612 18.303 15.9999 18.5 16C18.898 16.0001 19.28 15.8419 19.5615 15.5605C19.8428 15.2793 20.0008 14.8978 20.001 14.5C20.0011 14.102 19.8428 13.72 19.5615 13.4385C19.2803 13.1572 18.8988 12.9992 18.501 12.999ZM7.44141 6C7.2316 5.99995 7.0267 6.06589 6.85645 6.18848C6.68623 6.31116 6.55858 6.48457 6.49219 6.68359L5.38672 10H18.6133L17.5068 6.68359C17.3707 6.27383 16.9885 6 16.5576 6H7.44141Z" fill="#828282"/>
</svg>
