<svg width="20" height="20" viewBox="0 0 20 20" fill="none" xmlns="http://www.w3.org/2000/svg">
<path d="M0 15C0 15.5894 0.234126 16.1546 0.650874 16.5714C1.06762 16.9881 1.63285 17.2222 2.22222 17.2222H17.7778C18.3671 17.2222 18.9324 16.9881 19.3491 16.5714C19.7659 16.1546 20 15.5894 20 15V12.2222H0V15Z" fill="#138808"/>
<path d="M20 7.77777V4.99999C20 4.41062 19.7659 3.84539 19.3491 3.42864C18.9324 3.0119 18.3671 2.77777 17.7778 2.77777H2.22222C1.63285 2.77777 1.06762 3.0119 0.650874 3.42864C0.234126 3.84539 0 4.41062 0 4.99999L0 7.77777H20Z" fill="#FF9933"/>
<path d="M0 7.59277H20V12.4078H0V7.59277Z" fill="#F7F7F7"/>
<path d="M10.0001 12.2222C11.2274 12.2222 12.2223 11.2273 12.2223 9.99999C12.2223 8.77269 11.2274 7.77777 10.0001 7.77777C8.77275 7.77777 7.77783 8.77269 7.77783 9.99999C7.77783 11.2273 8.77275 12.2222 10.0001 12.2222Z" fill="#000080"/>
<path d="M10 11.875C11.0355 11.875 11.875 11.0355 11.875 10C11.875 8.96447 11.0355 8.125 10 8.125C8.96447 8.125 8.125 8.96447 8.125 10C8.125 11.0355 8.96447 11.875 10 11.875Z" fill="#F7F7F7"/>
<path d="M10.0555 9.30556L9.99995 9.66667L9.94439 9.30556L9.99995 8.22223L10.0555 9.30556ZM9.53995 8.28278L9.76661 9.34334L9.91383 9.67778L9.87384 9.31501L9.53995 8.28278ZM9.11106 8.46056L9.60439 9.42612L9.83328 9.71112L9.70106 9.37056L9.11106 8.46056ZM8.74272 8.74278L9.46939 9.54834L9.76439 9.76445L9.54828 9.46945L8.74272 8.74278ZM8.4605 9.11112L9.3705 9.70112L9.71106 9.83334L9.42606 9.60445L8.4605 9.11112ZM8.28272 9.54001L9.31495 9.8739L9.67772 9.9139L9.34328 9.76667L8.28272 9.54001ZM8.22217 10L9.3055 10.0556L9.66661 10L9.3055 9.94445L8.22217 10ZM8.28272 10.46L9.34328 10.2333L9.67772 10.0861L9.31495 10.1261L8.28272 10.46ZM8.4605 10.8889L9.42606 10.3956L9.71106 10.1667L9.3705 10.2989L8.4605 10.8889ZM8.74272 11.2572L9.54828 10.5306L9.76439 10.2356L9.46939 10.4517L8.74272 11.2572ZM9.11106 11.5395L9.70106 10.6295L9.83328 10.2889L9.60439 10.5739L9.11106 11.5395ZM9.53995 11.7172L9.87384 10.685L9.91383 10.3222L9.76661 10.6567L9.53995 11.7172ZM9.99995 11.7778L10.0555 10.6945L9.99995 10.3333L9.94439 10.6945L9.99995 11.7778ZM10.4599 11.7172L10.2333 10.6567L10.0861 10.3222L10.1261 10.685L10.4599 11.7172ZM10.8888 11.5395L10.3955 10.5739L10.1666 10.2889L10.2988 10.6295L10.8888 11.5395ZM11.2572 11.2572L10.5305 10.4517L10.2355 10.2356L10.4516 10.5306L11.2572 11.2572ZM11.5394 10.8889L10.6294 10.2989L10.2888 10.1667L10.5738 10.3956L11.5394 10.8889ZM11.7172 10.46L10.6849 10.1261L10.3222 10.0861L10.6566 10.2333L11.7172 10.46ZM11.7777 10L10.6944 9.94445L10.3333 10L10.6944 10.0556L11.7777 10ZM11.7172 9.54001L10.6566 9.76667L10.3222 9.9139L10.6849 9.8739L11.7172 9.54001ZM11.5394 9.11112L10.5738 9.60445L10.2888 9.83334L10.6294 9.70112L11.5394 9.11112ZM11.2572 8.74278L10.4516 9.46945L10.2355 9.76445L10.5305 9.54834L11.2572 8.74278ZM10.8888 8.46056L10.2988 9.37056L10.1666 9.71112L10.3955 9.42612L10.8888 8.46056ZM10.4599 8.28278L10.1261 9.31501L10.0861 9.67778L10.2333 9.34334L10.4599 8.28278Z" fill="#6666B3"/>
<path d="M9.7554 8.255C9.81676 8.255 9.86651 8.20525 9.86651 8.14389C9.86651 8.08252 9.81676 8.03278 9.7554 8.03278C9.69403 8.03278 9.64429 8.08252 9.64429 8.14389C9.64429 8.20525 9.69403 8.255 9.7554 8.255Z" fill="#000080"/>
<path d="M9.28323 8.38165C9.34459 8.38165 9.39434 8.3319 9.39434 8.27053C9.39434 8.20917 9.34459 8.15942 9.28323 8.15942C9.22186 8.15942 9.17212 8.20917 9.17212 8.27053C9.17212 8.3319 9.22186 8.38165 9.28323 8.38165Z" fill="#000080"/>
<path d="M8.85989 8.62554C8.92126 8.62554 8.971 8.5758 8.971 8.51443C8.971 8.45307 8.92126 8.40332 8.85989 8.40332C8.79853 8.40332 8.74878 8.45307 8.74878 8.51443C8.74878 8.5758 8.79853 8.62554 8.85989 8.62554Z" fill="#000080"/>
<path d="M8.51443 8.97112C8.5758 8.97112 8.62554 8.92138 8.62554 8.86001C8.62554 8.79865 8.5758 8.7489 8.51443 8.7489C8.45307 8.7489 8.40332 8.79865 8.40332 8.86001C8.40332 8.92138 8.45307 8.97112 8.51443 8.97112Z" fill="#000080"/>
<path d="M8.27053 9.39446C8.3319 9.39446 8.38165 9.34472 8.38165 9.28335C8.38165 9.22199 8.3319 9.17224 8.27053 9.17224C8.20917 9.17224 8.15942 9.22199 8.15942 9.28335C8.15942 9.34472 8.20917 9.39446 8.27053 9.39446Z" fill="#000080"/>
<path d="M8.14383 9.86669C8.20519 9.86669 8.25494 9.81695 8.25494 9.75558C8.25494 9.69422 8.20519 9.64447 8.14383 9.64447C8.08246 9.64447 8.03271 9.69422 8.03271 9.75558C8.03271 9.81695 8.08246 9.86669 8.14383 9.86669Z" fill="#000080"/>
<path d="M8.14383 10.3555C8.20519 10.3555 8.25494 10.3058 8.25494 10.2444C8.25494 10.183 8.20519 10.1333 8.14383 10.1333C8.08246 10.1333 8.03271 10.183 8.03271 10.2444C8.03271 10.3058 8.08246 10.3555 8.14383 10.3555Z" fill="#000080"/>
<path d="M8.27053 10.8278C8.3319 10.8278 8.38165 10.778 8.38165 10.7166C8.38165 10.6553 8.3319 10.6055 8.27053 10.6055C8.20917 10.6055 8.15942 10.6553 8.15942 10.7166C8.15942 10.778 8.20917 10.8278 8.27053 10.8278Z" fill="#000080"/>
<path d="M8.51443 11.2511C8.5758 11.2511 8.62554 11.2013 8.62554 11.14C8.62554 11.0786 8.5758 11.0289 8.51443 11.0289C8.45307 11.0289 8.40332 11.0786 8.40332 11.14C8.40332 11.2013 8.45307 11.2511 8.51443 11.2511Z" fill="#000080"/>
<path d="M8.85989 11.5967C8.92126 11.5967 8.971 11.5469 8.971 11.4856C8.971 11.4242 8.92126 11.3745 8.85989 11.3745C8.79853 11.3745 8.74878 11.4242 8.74878 11.4856C8.74878 11.5469 8.79853 11.5967 8.85989 11.5967Z" fill="#000080"/>
<path d="M9.28323 11.8406C9.34459 11.8406 9.39434 11.7908 9.39434 11.7295C9.39434 11.6681 9.34459 11.6183 9.28323 11.6183C9.22186 11.6183 9.17212 11.6681 9.17212 11.7295C9.17212 11.7908 9.22186 11.8406 9.28323 11.8406Z" fill="#000080"/>
<path d="M9.7554 11.9672C9.81676 11.9672 9.86651 11.9175 9.86651 11.8561C9.86651 11.7947 9.81676 11.745 9.7554 11.745C9.69403 11.745 9.64429 11.7947 9.64429 11.8561C9.64429 11.9175 9.69403 11.9672 9.7554 11.9672Z" fill="#000080"/>
<path d="M10.2444 11.9672C10.3058 11.9672 10.3555 11.9175 10.3555 11.8561C10.3555 11.7947 10.3058 11.745 10.2444 11.745C10.183 11.745 10.1333 11.7947 10.1333 11.8561C10.1333 11.9175 10.183 11.9672 10.2444 11.9672Z" fill="#000080"/>
<path d="M10.7166 11.8406C10.7779 11.8406 10.8277 11.7908 10.8277 11.7295C10.8277 11.6681 10.7779 11.6183 10.7166 11.6183C10.6552 11.6183 10.6055 11.6681 10.6055 11.7295C10.6055 11.7908 10.6552 11.8406 10.7166 11.8406Z" fill="#000080"/>
<path d="M11.1399 11.5967C11.2013 11.5967 11.251 11.5469 11.251 11.4856C11.251 11.4242 11.2013 11.3745 11.1399 11.3745C11.0786 11.3745 11.0288 11.4242 11.0288 11.4856C11.0288 11.5469 11.0786 11.5967 11.1399 11.5967Z" fill="#000080"/>
<path d="M11.4854 11.2511C11.5467 11.2511 11.5965 11.2013 11.5965 11.14C11.5965 11.0786 11.5467 11.0289 11.4854 11.0289C11.424 11.0289 11.3743 11.0786 11.3743 11.14C11.3743 11.2013 11.424 11.2511 11.4854 11.2511Z" fill="#000080"/>
<path d="M11.7293 10.8278C11.7906 10.8278 11.8404 10.778 11.8404 10.7166C11.8404 10.6553 11.7906 10.6055 11.7293 10.6055C11.6679 10.6055 11.6182 10.6553 11.6182 10.7166C11.6182 10.778 11.6679 10.8278 11.7293 10.8278Z" fill="#000080"/>
<path d="M11.856 10.3555C11.9173 10.3555 11.9671 10.3058 11.9671 10.2444C11.9671 10.183 11.9173 10.1333 11.856 10.1333C11.7946 10.1333 11.7449 10.183 11.7449 10.2444C11.7449 10.3058 11.7946 10.3555 11.856 10.3555Z" fill="#000080"/>
<path d="M11.856 9.86669C11.9173 9.86669 11.9671 9.81695 11.9671 9.75558C11.9671 9.69422 11.9173 9.64447 11.856 9.64447C11.7946 9.64447 11.7449 9.69422 11.7449 9.75558C11.7449 9.81695 11.7946 9.86669 11.856 9.86669Z" fill="#000080"/>
<path d="M11.7293 9.39446C11.7906 9.39446 11.8404 9.34472 11.8404 9.28335C11.8404 9.22199 11.7906 9.17224 11.7293 9.17224C11.6679 9.17224 11.6182 9.22199 11.6182 9.28335C11.6182 9.34472 11.6679 9.39446 11.7293 9.39446Z" fill="#000080"/>
<path d="M11.4854 8.97112C11.5467 8.97112 11.5965 8.92138 11.5965 8.86001C11.5965 8.79865 11.5467 8.7489 11.4854 8.7489C11.424 8.7489 11.3743 8.79865 11.3743 8.86001C11.3743 8.92138 11.424 8.97112 11.4854 8.97112Z" fill="#000080"/>
<path d="M11.1399 8.62554C11.2013 8.62554 11.251 8.5758 11.251 8.51443C11.251 8.45307 11.2013 8.40332 11.1399 8.40332C11.0786 8.40332 11.0288 8.45307 11.0288 8.51443C11.0288 8.5758 11.0786 8.62554 11.1399 8.62554Z" fill="#000080"/>
<path d="M10.7166 8.38165C10.7779 8.38165 10.8277 8.3319 10.8277 8.27053C10.8277 8.20917 10.7779 8.15942 10.7166 8.15942C10.6552 8.15942 10.6055 8.20917 10.6055 8.27053C10.6055 8.3319 10.6552 8.38165 10.7166 8.38165Z" fill="#000080"/>
<path d="M10.2444 8.255C10.3058 8.255 10.3555 8.20525 10.3555 8.14389C10.3555 8.08252 10.3058 8.03278 10.2444 8.03278C10.183 8.03278 10.1333 8.08252 10.1333 8.14389C10.1333 8.20525 10.183 8.255 10.2444 8.255Z" fill="#000080"/>
<path d="M10 10.5C10.2761 10.5 10.5 10.2761 10.5 10C10.5 9.72386 10.2761 9.5 10 9.5C9.72386 9.5 9.5 9.72386 9.5 10C9.5 10.2761 9.72386 10.5 10 10.5Z" fill="#000080"/>
</svg>
