<svg width="20" height="20" viewBox="0 0 20 20" fill="none" xmlns="http://www.w3.org/2000/svg">
<path d="M17.7778 2.77777H5V17.2222H17.7778C18.3671 17.2222 18.9324 16.9881 19.3491 16.5713C19.7659 16.1546 20 15.5894 20 15V4.99999C20 4.41062 19.7659 3.84539 19.3491 3.42864C18.9324 3.0119 18.3671 2.77777 17.7778 2.77777ZM12.5 14.1511C11.3949 14.1511 10.3351 13.7121 9.55372 12.9307C8.77232 12.1493 8.33333 11.0895 8.33333 9.98444C8.33333 7.91777 9.83944 6.20722 11.8128 5.87888C11.0665 6.22466 10.4608 6.81496 10.0959 7.55202C9.73093 8.28908 9.6287 9.12868 9.80611 9.93178C9.98351 10.7349 10.4299 11.4533 11.0714 11.968C11.7128 12.4828 12.5109 12.763 13.3333 12.7622C14.0212 12.7616 14.6947 12.5645 15.2744 12.1942C15.854 11.8238 16.3159 11.2956 16.6056 10.6717C16.2772 12.6455 14.5667 14.1511 12.5 14.1511ZM15.3389 8.35999L14.665 9.48333L14.5494 8.17833L13.2728 7.88499L14.4783 7.37166L14.3633 6.06666L15.2233 7.05499L16.4289 6.54166L15.7556 7.66555L16.6156 8.65388L15.3389 8.35999Z" fill="#004600"/>
<path d="M2.22222 2.77777C1.63285 2.77777 1.06762 3.0119 0.650874 3.42864C0.234126 3.84539 0 4.41062 0 4.99999L0 15C0 15.5894 0.234126 16.1546 0.650874 16.5713C1.06762 16.9881 1.63285 17.2222 2.22222 17.2222H5V2.77777H2.22222Z" fill="#EEEEEE"/>
<path d="M16.4288 6.54165L15.2233 7.05498L14.3633 6.06665L14.4783 7.37165L13.2727 7.88498L14.5494 8.17832L14.6649 9.48332L15.3388 8.35998L16.6155 8.65387L15.7555 7.66554L16.4288 6.54165Z" fill="white"/>
<path d="M13.3333 12.7622C12.5108 12.763 11.7128 12.4828 11.0713 11.968C10.4298 11.4533 9.98343 10.7349 9.80603 9.9318C9.62862 9.12871 9.73085 8.28911 10.0958 7.55205C10.4607 6.81499 11.0665 6.22469 11.8127 5.87891C9.83936 6.2078 8.33325 7.91835 8.33325 9.98446C8.33325 11.0895 8.77224 12.1493 9.55364 12.9307C10.335 13.7121 11.3948 14.1511 12.4999 14.1511C14.5666 14.1511 16.2771 12.645 16.6055 10.6717C16.3164 11.296 15.8546 11.8247 15.2748 12.1951C14.695 12.5655 14.0213 12.7623 13.3333 12.7622Z" fill="white"/>
</svg>
