<svg width="20" height="20" viewBox="0 0 20 20" fill="none" xmlns="http://www.w3.org/2000/svg">
<g clip-path="url(#clip0_683_4075)">
<path d="M20 15C20 15.5894 19.7659 16.1546 19.3491 16.5713C18.9324 16.9881 18.3671 17.2222 17.7778 17.2222H2.22222C1.63285 17.2222 1.06762 16.9881 0.650874 16.5713C0.234126 16.1546 0 15.5894 0 15V4.99999C0 4.41062 0.234126 3.84539 0.650874 3.42864C1.06762 3.0119 1.63285 2.77777 2.22222 2.77777H17.7778C18.3671 2.77777 18.9324 3.0119 19.3491 3.42864C19.7659 3.84539 20 4.41062 20 4.99999V15Z" fill="#006A4D"/>
<path d="M8.88889 13.6111C11.0367 13.6111 12.7778 11.87 12.7778 9.7222C12.7778 7.57443 11.0367 5.83331 8.88889 5.83331C6.74112 5.83331 5 7.57443 5 9.7222C5 11.87 6.74112 13.6111 8.88889 13.6111Z" fill="#F42A41"/>
</g>
<defs>
<clipPath id="clip0_683_4075">
<rect width="20" height="20" fill="white"/>
</clipPath>
</defs>
</svg>
