<svg width="26" height="26" viewBox="0 0 26 26" fill="none" xmlns="http://www.w3.org/2000/svg">
<path d="M2.1665 7.58334C2.1665 7.0087 2.39478 6.4576 2.80111 6.05127C3.20743 5.64494 3.75853 5.41667 4.33317 5.41667H21.6665C22.2411 5.41667 22.7922 5.64494 23.1986 6.05127C23.6049 6.4576 23.8332 7.0087 23.8332 7.58334V18.4167C23.8332 18.9913 23.6049 19.5424 23.1986 19.9487C22.7922 20.3551 22.2411 20.5833 21.6665 20.5833H4.33317C3.75853 20.5833 3.20743 20.3551 2.80111 19.9487C2.39478 19.5424 2.1665 18.9913 2.1665 18.4167V7.58334Z" stroke="#2263FF" stroke-width="2" stroke-linecap="round" stroke-linejoin="round"/>
<path d="M13 16.25C14.7949 16.25 16.25 14.7949 16.25 13C16.25 11.2051 14.7949 9.75 13 9.75C11.2051 9.75 9.75 11.2051 9.75 13C9.75 14.7949 11.2051 16.25 13 16.25Z" stroke="#2263FF" stroke-width="2" stroke-linecap="round" stroke-linejoin="round"/>
<path d="M2.1665 9.75001C3.31578 9.75001 4.41798 9.29346 5.23063 8.4808C6.04329 7.66814 6.49984 6.56594 6.49984 5.41667M19.4998 20.5833C19.4998 19.4341 19.9564 18.3319 20.769 17.5192C21.5817 16.7066 22.6839 16.25 23.8332 16.25" stroke="#2263FF" stroke-width="2" stroke-linecap="round" stroke-linejoin="round"/>
</svg>
