<svg width="26" height="26" viewBox="0 0 26 26" fill="none" xmlns="http://www.w3.org/2000/svg">
<path d="M1.8959 14.5167C1.66118 14.3542 1.52143 14.1332 1.47665 13.8537C1.43187 13.5742 1.48134 13.3077 1.62507 13.0542L4.92923 7.74584C5.32645 7.1139 5.89087 6.77553 6.62248 6.73076C7.35409 6.68598 7.95426 6.94309 8.42298 7.50209L9.75007 9.04584L12.323 4.87501C12.7383 4.1889 13.3388 3.84151 14.1246 3.83284C14.9103 3.82417 15.5195 4.15351 15.9521 4.82084L17.3334 6.87917L20.3667 2.05834C20.5292 1.78751 20.7686 1.62067 21.085 1.55784C21.4013 1.49501 21.6855 1.56253 21.9376 1.76042C22.1723 1.92292 22.3124 2.14428 22.3579 2.42451C22.4034 2.70473 22.3536 2.97087 22.2084 3.22292L19.1751 8.04376C18.7598 8.71181 18.1596 9.04584 17.3746 9.04584C16.5895 9.04584 15.98 8.72084 15.5459 8.07084L14.1646 6.01251L11.5917 10.1833C11.2126 10.8153 10.6575 11.1583 9.92665 11.2125C9.19576 11.2667 8.59523 11.0139 8.12507 10.4542L6.7709 8.88334L3.46673 14.2188C3.30423 14.4896 3.06482 14.6568 2.74848 14.7203C2.43215 14.7839 2.14795 14.716 1.8959 14.5167ZM15.7084 19.5C16.4667 19.5 17.1077 19.2382 17.6313 18.7146C18.1549 18.191 18.4167 17.55 18.4167 16.7917C18.4167 16.0333 18.1549 15.3924 17.6313 14.8688C17.1077 14.3451 16.4667 14.0833 15.7084 14.0833C14.9501 14.0833 14.3091 14.3451 13.7855 14.8688C13.2619 15.3924 13.0001 16.0333 13.0001 16.7917C13.0001 17.55 13.2619 18.191 13.7855 18.7146C14.3091 19.2382 14.9501 19.5 15.7084 19.5ZM15.7084 21.6667C14.3542 21.6667 13.203 21.1929 12.2547 20.2453C11.3065 19.2978 10.8327 18.1466 10.8334 16.7917C10.8341 15.4368 11.3083 14.2859 12.2558 13.3391C13.2034 12.3923 14.3542 11.9181 15.7084 11.9167C17.0626 11.9152 18.2138 12.3894 19.1621 13.3391C20.1103 14.2888 20.5841 15.4397 20.5834 16.7917C20.5834 17.2611 20.5202 17.7172 20.3938 18.1599C20.2674 18.6026 20.0778 19.0132 19.8251 19.3917L21.9917 21.5583C22.1903 21.757 22.2896 22.0097 22.2896 22.3167C22.2896 22.6236 22.1903 22.8764 21.9917 23.075C21.7931 23.2736 21.5403 23.3729 21.2334 23.3729C20.9265 23.3729 20.6737 23.2736 20.4751 23.075L18.3084 20.9083C17.9292 21.1611 17.5186 21.3507 17.0766 21.4771C16.6346 21.6035 16.1786 21.6667 15.7084 21.6667Z" fill="white"/>
</svg>
